<svg xmlns="http://www.w3.org/2000/svg" fill="none" viewBox="0 0 25 25"><path fill="#fff" d="M.402344 5.58676 24.2319 5.58545V20.415H.405027L.402344 5.58676Z"/><path fill="#F58220" d="M24.148 13.832s-6.5115 4.4905-18.43706 6.499H24.148v-6.499Z"/><path fill="#231F20" fill-rule="evenodd" d="M.318359 5.5H24.3184v15H.318359v-15ZM24.146 20.3295V5.67041H.492188V20.3295H24.146Z" clip-rule="evenodd"/><path fill="#231F20" fill-rule="evenodd" d="M1.42188 10.0889h.99424c1.0989 0 1.86504.6988 1.86504 1.7044-.00458.5018-.2353.9762-.63063 1.2966-.33409.2727-.71381.3933-1.23978.3933h-.98887v-3.3943Zm.85826 2.8189c.43741 0 .71381-.0813.92715-.2701v.0013c.24177-.2212.37796-.5311.37569-.8548.00191-.3205-.13448-.6271-.37569-.8443-.22407-.198-.48974-.2753-.92715-.2753h-.18248v2.2432h.18248Z" clip-rule="evenodd"/><path fill="#231F20" d="M4.59375 10.0898h.677587v3.39306H4.59375zM6.9268 11.392c-.40253-.1468-.52597-.2439-.52597-.4274 0-.2137.21334-.3763.50584-.3763.21572.0047.41718.1063.54609.2753l.35423-.4536c-.2809-.2447-.64477-.3788-1.02108-.3763-.61452 0-1.0828.4169-1.0828.9728 0 .4668.21871.7067.8547.9309.16239.0497.31962.1142.46962.1927.12664.0737.20377.2074.2026.3514-.00121.1328-.05823.2593-.15769.3498-.09947.0905-.23263.137-.36828.1287-.31592.0041-.60505-.1728-.7393-.4523l-.43742.4117c.31263.4471.68698.6464 1.20758.6464.69503 0 1.19148-.4615 1.19148-1.1171 0-.5375-.22809-.7866-.9996-1.0567ZM8.1387 11.7932c-.00266.4748.19131.9304.53778 1.2633.34647.3329.816.5147 1.30177.504.29255.0006.58115-.0658.84265-.194v-.7866c-.2684.2622-.5099.3723-.8172.3723-.68291 0-1.16729-.4838-1.16729-1.1708-.01086-.3039.1042-.5992.31913-.8191.21492-.2198.51155-.3457.82271-.3491.32335 0 .56755.1128.84935.3816v-.7749c-.2555-.1367-.542-.2084-.83325-.2084-.48895-.0078-.96064.1765-1.30944.5114-.3488.3349-.54556.7925-.54621 1.2703ZM16.1925 12.3698l-.9258-2.28h-.7394l1.4733 3.4809h.365l1.5-3.4809h-.7339l-.9392 2.28ZM18.1719 13.4829h1.9214v-.5742h-1.2438v-.9165h1.1982v-.5742h-1.1982v-.7539h1.2438v-.5743h-1.9214v3.3931Z"/><path fill="#231F20" fill-rule="evenodd" d="M21.546 10.0898c.7809 0 1.229.3658 1.229 1.0017 0 .5192-.2804.8601-.7916.9636l1.0962 1.4278h-.8332l-.9392-1.3635h-.0886v1.3635h-.6776v-3.3931h1.005Zm-.3272 1.5631h.1972c.4334 0 .6628-.1954.6628-.5258 0-.3303-.2294-.5021-.6521-.5021h-.2079v1.0279Z" clip-rule="evenodd"/><path fill="url(#a)" d="M14.7382 11.7933c.0022.7306-.4466 1.3905-1.1368 1.6716-.6902.2811-1.4858.128-2.0153-.388-.5295-.5159-.6886-1.2928-.403-1.968.2857-.6753.9597-1.11573 1.7075-1.11574 1.0183 0 1.8447.80514 1.8476 1.80014Z"/><path fill="url(#b)" d="M14.7382 11.7933c.0022.7306-.4466 1.3905-1.1368 1.6716-.6902.2811-1.4858.128-2.0153-.388-.5295-.5159-.6886-1.2928-.403-1.968.2857-.6753.9597-1.11573 1.7075-1.11574 1.0183 0 1.8447.80514 1.8476 1.80014Z" opacity=".65" style="mix-blend-mode:multiply"/><path fill="#231F20" fill-rule="evenodd" d="M23.0924 10.1279c.074 0 .1157.0338.1157.0945.0022.0412-.0258.0778-.0659.0864l.0995.1269h-.0888l-.0861-.1201v.1201h-.0727v-.3078h.0983Zm-.0321.1365h.0135l.0067-.0027c.0363 0 .0484-.0135.0484-.0405 0-.027-.0188-.0391-.0551-.0391h-.0135v.0823Z" clip-rule="evenodd"/><path fill="#231F20" fill-rule="evenodd" d="M22.8379 10.2842c0-.1492.1205-.27.2691-.27s.2691.1208.2691.27c0 .1491-.1205.27-.2691.27s-.2691-.1209-.2691-.27Zm.06.0869c.0364.0821.1189.1337.2084.1304l-.0013-.0054c.1168-.0015.2111-.0961.2126-.2133.0005-.0899-.0535-.171-.1365-.2049-.0829-.034-.178-.014-.2404.0505-.0623.0646-.0793.1606-.0428.2427Z" clip-rule="evenodd"/><g clip-path="url(#c)"><path fill="#fff" d="M24.1829 19.8493c-.005.4075-.1772.7965-.4788 1.0813-.3016.2849-.7079.4424-1.1296.4378H2.06344c-.4217.0046-.82802-.1529-1.129631-.4378-.301607-.2848-.473804-.6738-.478731-1.0813V6.15142c.002324-.20187.04577-.40132.127857-.58696.082088-.18563.201209-.35383.350562-.49498.149353-.14114.326013-.25247.519893-.32763.19387-.07516.40117-.11268.61005-.11041H22.5745c.2089-.00227.4162.03525.6101.11041.1938.07516.3705.18649.5198.32763.1494.14115.2685.30935.3506.49498.0821.18564.1255.38509.1279.58696V19.8493Z"/><path fill="#004A98" d="M.590571 6.15159V19.8494c.005159.3726.163089.728.439119.9881.27603.2602.6476.4039 1.03314.3995H22.573c.3856.0046.7573-.139 1.0334-.3992.2761-.2602.4339-.6157.4389-.9884V6.15159c-.005-.37265-.1628-.72817-.4389-.98837s-.6478-.4038-1.0334-.39921H2.06283c-.38554-.00436-.75711.13931-1.03314.39947-.27603.26015-.43396.61553-.439119.98811ZM2.06283 21.5001c-.45773.0043-.89854-.167-1.225616-.4765-.327079-.3095-.513691-.7318-.518855-1.1742V6.15159c.005164-.44243.191748-.86481.518801-1.17443.32705-.30963.76786-.48121 1.22567-.47708H22.573c.458-.00436.899.16712 1.2262.47677.3273.30965.514.73216.5192 1.17474V19.8494c-.0054.4425-.1922.8648-.5195 1.1742-.3272.3095-.7681.4808-1.2259.4765H2.06283Z"/><path fill="#231F20" d="M3.05813 16.7174c0 .3216.23751.3585.44923.3585.93318 0 1.23919-.68 1.23919-1.3016 0-.7806-.51773-1.3446-1.35127-1.3446-.17792 0-.25976.0129-.33715.0172v2.2705Zm-.427-1.9575c0-.3757-.20283-.3508-.39675-.3551v-.104c.16813.0077.3407.0077.50972.0077.16903 0 .427-.0077.74725-.0077 1.11821 0 1.72757.7213 1.72757 1.4615 0 .4135-.25086 1.4529-1.77916 1.4529-.21973 0-.42344-.0086-.62271-.0086s-.3843 0-.57823.0086v-.1083c.25887-.0258.3843-.0335.39676-.3181l-.00445-2.0289ZM5.83279 14.6592c-.05616 0-.11001-.0215-.14971-.0599-.03971-.0384-.06201-.0904-.06201-.1447s.0223-.1063.06201-.1447c.0397-.0383.09355-.0599.14971-.0599.05554 0 .10886.0211.14846.0587.03961.0376.06232.0888.06326.1425 0 .0546-.02219.107-.06179.1459-.03961.0389-.09346.0612-.14993.0621Zm-.4617 2.4425h.08184c.12099 0 .20728 0 .20728-.1384v-1.1314c0-.1831-.06494-.2089-.22507-.2915v-.067c.20283-.0585.44479-.1376.46259-.1505.02347-.0133.05016-.0204.07739-.0206.02135 0 .03024.0249.03024.0585v1.605c0 .1385.09519.1385.21617.1385h.07295v.1083c-.14678 0-.29801-.0086-.4528-.0086-.15479 0-.31135 0-.47059.0086v-.1109ZM6.70832 15.8579c0-.1548-.04804-.1961-.25086-.276v-.0774c.19356-.0571.38389-.124.57022-.2003.01334 0 .0258.0077.0258.0413v.2716c.24641-.1719.45813-.3129.74814-.3129.3665 0 .49549.2579.49549.5846v1.0772c0 .1384.09608.1384.21617.1384h.07828v.1084c-.15212 0-.30245-.0086-.45813-.0086-.15568 0-.31135 0-.46703.0086v-.1084h.07828c.12099 0 .20727 0 .20727-.1384v-1.0832c0-.2382-.15034-.3551-.39675-.3551-.13877 0-.35583.1083-.50172.2003v1.238c0 .1384.09518.1384.21617.1384h.0765v.1084c-.15123 0-.30157-.0086-.45813-.0086-.15657 0-.31047 0-.46614.0086v-.1084h.07828c.12098 0 .20727 0 .20727-.1384l.00089-1.1081ZM9.68513 15.9238c.10764 0 .1201-.0541.1201-.104 0-.2124-.13433-.3843-.3763-.3843-.26687 0-.44479.1874-.49638.4883h.75258Zm-.76504.1341c-.00993.0803-.00993.1614 0 .2416.02491.3972.28912.7222.63427.7222.23841 0 .42433-.1255.58354-.2794l.0605.0584c-.19924.2579-.44477.472-.8006.472-.68676 0-.82553-.6431-.82553-.9104 0-.8185.57022-1.0601.87268-1.0601.3496 0 .72585.2124.73035.6552.0022.0251.0022.0504 0 .0756l-.0391.0249H8.92009ZM10.2754 17.1019h.1174c.1201 0 .2064 0 .2064-.1384v-1.1727c0-.1289-.1592-.1547-.2242-.1882v-.0619c.3149-.1299.4875-.2382.5275-.2382.025 0 .0383.0121.0383.0542v.3757h.0089c.1076-.1625.2891-.4299.5524-.4299.0313-.0015.0626.0031.092.0134.0294.0104.0564.0263.0794.0469.0229.0206.0414.0454.0543.073.0129.0276.0199.0574.0207.0877.0015.0269-.0027.0538-.0121.0792-.0095.0254-.0241.0487-.043.0685-.0189.0199-.0417.0359-.067.0471-.0254.0113-.0528.0175-.0807.0184-.1343 0-.1343-.1006-.2855-.1006-.0863.0117-.1655.0527-.2232.1158-.0577.063-.0903.1439-.0918.2281v.9861c0 .1384.089.1384.2073.1384h.2411v.1083c-.2375-.0043-.4181-.0086-.604-.0086-.186 0-.3559 0-.5142.0086v-.1109ZM11.9387 16.6296c.057.2752.2295.509.5453.509.2545 0 .3488-.1504.3488-.2957 0-.4935-.9412-.3345-.9412-1.0059 0-.2347.1948-.5348.6698-.5348.1714.0041.3395.0455.492.1213l.0302.4255h-.0996c-.0427-.263-.1939-.4135-.4706-.4135-.1726 0-.3363.0963-.3363.276 0 .4883 1.0017.3378 1.0017.9929 0 .276-.2286.5683-.7428.5683-.1849-.0051-.3657-.0538-.5266-.1418l-.0481-.4806.0774-.0207ZM17.0779 15.0516h-.1076c-.0828-.4875-.4448-.6878-.9243-.6878-.4973 0-1.2187.3216-1.2187 1.3231 0 .8434.6227 1.4486 1.2872 1.4486.2102 0 .4134-.0728.5727-.2054.1594-.1325.2642-.3158.2955-.5167l.0996.0249-.0996.6138c-.1779.1084-.669.2219-.9545.2219-1.0106 0-1.6493-.6302-1.6493-1.5699 0-.8597.79-1.4692 1.6368-1.4692.3496 0 .6868.1083 1.0186.2218l.0436.5949ZM17.2344 17.1017h.0818c.121 0 .2073 0 .2073-.1384v-2.3212c0-.2717-.0641-.2794-.2286-.3259V14.25c.1533-.0473.3021-.1074.4448-.1796.0295-.0189.0611-.0345.0943-.0465.0266 0 .0355.0258.0355.0593v2.8827c0 .1384.0952.1384.2162.1384h.0729v.1083c-.1467 0-.298-.0086-.4536-.0086-.1557 0-.3105 0-.4706.0086v-.1109ZM20.0057 16.9805c0 .0748.0471.0791.121.0791.0516 0 .1165-.0043.1725-.0043v.086c-.2104.029-.4185.0724-.6227.1298l-.0213-.0129v-.3379c-.2589.2047-.4581.3508-.765.3508-.2331 0-.4751-.1461-.4751-.4969v-1.0669c0-.1092-.0169-.2132-.2589-.2339v-.0791c.1557 0 .5009-.0292.5569-.0292.0561 0 .0481.0292.0481.1212v1.0764c0 .1255 0 .484.3754.484.1467 0 .3416-.1083.5222-.2536v-1.1236c0-.086-.2073-.129-.3621-.172v-.0748c.3887-.0258.6307-.0584.6734-.0584.0427 0 .0347.0292.0347.0748l.0009 1.5414ZM20.8676 16.7381c.0051.1124.0535.219.1359.2986.0823.0795.1926.1264.3089.1312.4626 0 .6565-.4376.6565-.8098 0-.4505-.3558-.8262-.6903-.8262-.1601 0-.2944.1006-.411.1969v1.0093Zm0-1.1357c.1726-.141.4066-.3001.6441-.3001.5008 0 .8006.4222.8006.877 0 .5467-.4145 1.0935-1.0328 1.0935-.2095-.0005-.4157-.0507-.6005-.1461l-.1281.0971-.0889-.0456c.0399-.2457.0601-.494.0605-.7427v-1.7969c0-.2716-.065-.2794-.2295-.3258v-.0662c.1534-.047.3023-.1072.4448-.1797.03-.019.0623-.0346.096-.0464.0258 0 .0338.0258.0338.0593v1.5226ZM2.23242 19.637h.03292c.08451 0 .17791-.0112.17791-.1298v-1.1898c0-.1178-.08896-.1299-.17791-.1299h-.03292v-.0679c.08896 0 .23307.0095.34872.0095.11564 0 .25798-.0095.36828-.0095v.0679h-.03291c-.08451 0-.17347.0121-.17347.1299v1.1898c0 .1186.08896.1298.17347.1298h.03291v.0679c-.11297 0-.25353-.0086-.37095-.0086-.11743 0-.25442.0086-.34605.0086v-.0679Z"/><path fill="#231F20" d="M2.9409 19.6954v-.0481h-.02313c-.08362 0-.18415-.0146-.18415-.1402v-1.1898c0-.1255.10053-.1393.18415-.1393h.02313v-.0481c-.10853 0-.24464.0086-.35584.0086-.11119 0-.2473-.0086-.33804-.0086v.0481h.02224c.08362 0 .18415.0138.18415.1393v1.1898c0 .1256-.10053.1402-.18415.1402h-.02224v.0481c.08896 0 .22329-.0094.33537-.0094.11209 0 .24998.0086.36117.0094H2.9409Zm.01245.0189c-.11387 0-.25442-.0086-.37096-.0086-.11653 0-.25353.0086-.34604.0086h-.00979v-.0859h.0427c.08896 0 .1628-.0086.16369-.1195v-1.1916c0-.1109-.07829-.1178-.16369-.1195h-.0427v-.086h.00979c.08896 0 .23307.0086.34871.0086.11565 0 .25709-.0086.36829-.0086h.01067v.086h-.04358c-.08896 0-.1628.0086-.16369.1195v1.1898c0 .1109.07829.1178.16369.1195h.04358v.086l-.01067.0017ZM4.5638 19.2579l.00445-.0052v-.8511c.00417-.0276.0019-.0558-.00665-.0825-.00856-.0267-.02318-.0512-.04279-.0717-.01961-.0205-.04372-.0366-.07057-.0469-.02685-.0104-.05575-.0148-.08459-.013h-.0516v-.0679c.1112 0 .21884.0095.32915.0095.09607 0 .19304-.0095.28911-.0095v.0679h-.03469c-.09964 0-.20994.0181-.20994.2889v1.0317c-.0013.0767.00346.1535.01423.2295h-.08896l-1.20983-1.3042v.9397c0 .1977.04003.2656.22062.2656h.04003v.068c-.10052 0-.20194-.0086-.30246-.0086s-.21439.0086-.32025.0086v-.068h.03648c.16279 0 .21172-.1066.21172-.288v-.9585c.00012-.0271-.00534-.0539-.01605-.0789-.01071-.025-.02646-.0476-.04633-.0667-.01987-.019-.04347-.0341-.06942-.0442-.02594-.0102-.05372-.0152-.0817-.0149h-.03114v-.0679c.08896 0 .17792.0095.26688.0095.07027 0 .13877-.0095.20905-.0095l1.04525 1.1383Z"/><path fill="#231F20" d="m4.56365 19.2578.00712-.0069-.00712.0069Zm.04626.4711h.07828c-.00966-.0726-.01383-.1459-.01245-.2192v-1.0316c0-.2726.11831-.2984.21972-.2984h.02402v-.0481c-.08896 0-.18503.0086-.27844.0086-.10764 0-.21261-.0086-.31847-.0086v.0481h.04092c.03011-.0016.06023.0032.0882.0141.02798.0109.05313.0276.07368.0489.02054.0213.03598.0468.04521.0745.00923.0278.01203.0572.00819.0861v.864l-.008.0069-1.0506-1.1443c-.06939 0-.13788.0086-.20905.0086-.08896 0-.17792-.0086-.25976-.0086v.0481h.02135c.02927-.0003.05832.005.08546.0156.02713.0106.05181.0263.07259.0462.02078.02.03725.0437.04845.0698.0112.0262.01691.0542.01679.0825v.9568c0 .1814-.05249.2975-.22151.2984h-.0258v.049c.10142 0 .20639-.0095.30869-.0095.1023 0 .1966.0086.29356.0095v-.0482h-.03025c-.18503 0-.2304-.0782-.2304-.2759v-.9621l1.21962 1.3188Zm.08896.0198H4.6019l-1.19204-1.2878v.9121c0 .1978.03381.2579.21083.2579h.05071v.086h-.01067c-.10142 0-.20283-.0086-.30335-.0086s-.21261.0086-.31936.0086h-.01068v-.086h.04804c.15568 0 .20016-.0971.20194-.2777v-.9611c0-.0258-.00529-.0512-.01556-.075-.01027-.0237-.02532-.0452-.04427-.0633-.01895-.0181-.04143-.0324-.06613-.042-.0247-.0096-.05113-.0144-.07776-.014h-.04181v-.086h.01068c.08895 0 .17791.0086.26687.0086.06939 0 .13789-.0086.21706-.0051l1.0328 1.1236v-.8374c0-.1805-.12632-.202-.19482-.2037H4.303v-.086h.00979c.1112 0 .21972.0086.32914.0086.09519 0 .19215-.0086.28912-.0086h.01245v.086h-.04537c-.09696 0-.19659.0103-.20015.2785v1.0317c-.00135.0762.00341.1523.01423.2278v.0112l-.01334.0017ZM5.28325 18.2333c-.17791 0-.18325.0413-.21883.2072h-.07028c.0089-.0636.02046-.1273.02847-.1935.00893-.0638.01339-.1281.01334-.1925h.05693c.01869.0679.0774.0653.14145.0653h1.21161c.06405 0 .12276 0 .12721-.0705l.05604.0095c-.0089.061-.01868.1221-.02491.184-.00622.0619 0 .122 0 .1839l-.07116.025c0-.086-.01602-.2184-.17792-.2184h-.38608v1.2088c0 .1719.08273.1951.19571.1951h.04448v.0679c-.08896 0-.2562-.0086-.38341-.0086s-.30513.0086-.39675.0086v-.0679h.04892c.12988 0 .19482-.0112.19482-.1908v-1.2131h-.38964Z"/><path fill="#231F20" d="M6.20844 19.717c-.08896 0-.25709-.0086-.38341-.0086-.14055 0-.30513.0086-.39675.0086H5.4176v-.086h.0596c.12988 0 .17792 0 .18415-.1805v-1.2036h-.37897v-.0207h.39498v1.2234c0 .1823-.07562.2012-.2046.2012h-.0347v.0481c.08896 0 .25086-.0094.38697-.0094.1361 0 .27933.0086.37273.0094v-.0481h-.0338c-.11387 0-.20549-.0275-.20549-.2055v-1.2225h.39586c.15746 0 .17792.1307.18325.2149l.05071-.018c0-.0594 0-.1187.00445-.1789.00445-.0601.01512-.116.02402-.1719l-.03559-.0052c-.01067.0654-.0765.0697-.1361.0688H5.221c-.05515 0-.11564 0-.13699-.0662h-.03825c-.00066.0616-.00542.123-.01424.184-.00711.0628-.01779.1229-.02579.1831h.04981c.03114-.159.05071-.2098.22684-.208v.0206c-.17791 0-.17079.0309-.20905.1986v.0077h-.08895v-.0111c.00978-.0637.02134-.1273.02846-.1935.00967-.0632.01443-.127.01423-.1908v-.0104h.07473v.0069c.01601.0576.0596.0576.1192.0593h1.22407c.06583 0 .11297 0 .11742-.0619v-.0103h.01068l.06672.0103v.0104c-.00979.061-.01869.122-.0258.1831-.00712.061 0 .1212 0 .1831v.0069h-.00712l-.08273.0292v-.0129c-.00623-.086-.01512-.2089-.16368-.2089h-.38163v1.2002c0 .1719.07294.1831.18503.1848h.05426v.086l-.00978.0043ZM6.70508 19.637h.03291c.08896 0 .17792-.0112.17792-.1298v-1.1898c0-.1178-.08896-.1299-.17792-.1299h-.03291v-.0679c.14322 0 .38786.0095.58445.0095.1966 0 .44479-.0095.60225-.0095 0 .098 0 .2476.00445.3439l-.07028.0181c-.01156-.147-.04003-.2648-.28645-.2648h-.32647v.594h.27933c.14055 0 .17169-.0765.18592-.1994h.07028c0 .086-.00712.1771-.00712.2656 0 .0886 0 .172.00712.258l-.07028.0137c-.01423-.1358-.02135-.2244-.18325-.2244h-.282v.5348c0 .1478.1361.1478.28644.1478.282 0 .40654-.018.47682-.2768l.06583.0155c-.03025.1203-.05871.2407-.08006.3611-.15034 0-.42078-.0086-.63161-.0086-.21083 0-.49105.0086-.6227.0086l-.00267-.0697Z"/><path fill="#231F20" d="M7.95246 19.6954c.02135-.1152.04804-.2295.07651-.3439l-.04626-.0112c-.07028.2537-.20638.2769-.48393.2752-.14856 0-.29623 0-.29712-.1582v-.5391h.29178c.16457 0 .17792.0946.19304.2236l.05071-.0104c-.00445-.0859-.00712-.1676-.00712-.251s0-.1719.00712-.2579h-.05071c-.01334.1186-.0516.202-.19482.2003h-.29v-.6147h.33715c.24463 0 .28466.1204.29534.2631l.05071-.0129c0-.0645-.00712-.147-.00712-.2227v-.1074c-.15924 0-.39764.0085-.59157.0085-.19393 0-.43056-.0085-.57467-.0085v.0481h.02313c.08362 0 .18325.0138.18414.1393v1.1898c0 .1255-.10052.1393-.18414.1401h-.02046v.0482c.13699 0 .4092-.0095.61559-.0095.20638 0 .47148.0086.6227.0095v.0017Zm.0089.0172c-.15034 0-.42077-.0086-.6316-.0086-.21083 0-.49105.0086-.62271.0086h-.00978v-.086h.0427c.08895 0 .16279-.0086.16368-.1195v-1.1898c0-.1109-.07828-.1178-.16368-.1195h-.0427v-.086h.00978c.14322 0 .38786.0086.58446.0086.19659 0 .44479-.0086.60224-.0086h.00979v.1273c0 .0782 0 .1642.00711.2295v.0077h-.008l-.08273.0207v-.0121c-.01424-.147-.0347-.2579-.27666-.2579h-.32114v.5752h.26687c.13522 0 .15924-.0688.17792-.1909v-.0094h.08896v.0103c0 .0859-.00712.1771-.00712.2656 0 .0886 0 .172.00712.2579v.0078h-.0089l-.08184.0154v-.0103c-.01601-.1392-.0169-.2149-.17792-.2166h-.26687v.5158c0 .1384.12365.1376.27666.1384.28288 0 .39586-.0154.46703-.2699v-.0095h.00978l.07473.0189v.0095c-.03025.1204-.05871.2399-.08006.3602v.0077l-.00712.0095ZM8.65977 18.8875h.11476c.23485 0 .36206-.086.36206-.3542.00331-.0444-.00331-.089-.01939-.1307-.01609-.0417-.04127-.0796-.07384-.1111s-.07177-.0558-.11493-.0713c-.04316-.0156-.08928-.022-.13522-.0188-.04464.0005-.08921.0036-.13344.0095v.6766Zm-.30068-.527c0-.166-.09429-.172-.16724-.172h-.04537v-.0679c.07562 0 .22151.0095.36473.0095s.25353-.0095.37807-.0095c.29534 0 .55955.0774.55955.3998 0 .2046-.14144.3292-.32648.3997l.40121.5812c.02218.0403.05503.0742.09519.0982.04017.024.08621.0373.13343.0385v.0679c-.07829 0-.15301-.0086-.2304-.0086-.0774 0-.14856.0086-.22062.0086-.18065-.234-.34414-.4799-.48927-.7359h-.15212v.4892c0 .1719.08896.1814.19215.1814h.0427v.0679c-.13432 0-.26687-.0086-.40476-.0086-.11208 0-.22328.0086-.34071.0086v-.0679h.0427c.08896 0 .16724-.0387.16724-.123v-1.1571Z"/><path fill="#231F20" d="M8.77383 18.8778c.23218 0 .34961-.0808.35583-.3439.00318-.0431-.00328-.0864-.01892-.1269-.01564-.0405-.04011-.0773-.07174-.1078-.03164-.0306-.0697-.0542-.11161-.0694-.04191-.0151-.08669-.0213-.13132-.0183-.04136.0004-.08266.0033-.12365.0086v.6586l.10141-.0009Zm-.11475.0189H8.6484v-.6955h.0089c.04489-.005.09002-.0079.13521-.0086.04765-.0034.09551.0031.14031.0191.04481.0161.08549.0413.11928.0739.03379.0327.05988.072.07649.1153.01661.0433.02335.0896.01976.1356 0 .2717-.13522.3637-.37185.3637l-.11742-.0035Zm0 .0628h.16012v.0052c.14505.2527.30576.4967.48126.7307.07117 0 .14678-.0094.21973-.0094.07295 0 .14767.0086.22062.0094v-.0499c-.04703-.0018-.0927-.0157-.13238-.0402-.03968-.0245-.07197-.0586-.09358-.099l-.4092-.5915h.01156c.18414-.0705.32025-.1917.32025-.3912 0-.3155-.25353-.3886-.54887-.3894-.12365 0-.23663.0086-.37807.0086-.14145 0-.27755-.0086-.35584-.0086v.0481h.03292c.07294 0 .17792.012.17792.1823v1.1537c0 .092-.08896.1333-.17792.1333h-.03292v.0481c.11298 0 .22062-.0094.33093-.0094.13166 0 .26687.0086.39408.0094v-.0481h-.03202c-.10675 0-.20283-.0129-.20283-.1926v-.4952l.01424-.0043Zm1.09507.7574c-.07917 0-.1539-.0086-.23129-.0086-.07739 0-.14678.0086-.22862.0052-.17886-.2332-.34142-.4776-.4866-.7317h-.13878v.4772c0 .1719.07384.1719.18237.1719h.05248v.086h-.01067c-.13433 0-.26688-.0086-.40387-.0086-.11209 0-.2224.0086-.34071.0086h-.00979v-.086h.05249c.08451 0 .15567-.0361.15656-.1126v-1.158c0-.1608-.08362-.1599-.15656-.1625h-.05249v-.086h.00712c.0765 0 .2215.0086.36473.0086.14322 0 .25264-.0086.37807-.0086.29623 0 .56933.0791.57022.4092 0 .2047-.14055.3327-.32203.4041l.39498.5717c.02097.0392.05258.0722.09144.0953.03886.0232.08351.0357.12917.0363h.0089v.0859l-.00712.0026ZM11.3495 19.2579v-.8563c.0042-.0276.0019-.0558-.0067-.0825-.0085-.0267-.0231-.0512-.0427-.0717-.0197-.0205-.0438-.0366-.0706-.0469-.0269-.0104-.0558-.0148-.0846-.013h-.0507v-.0679c.1103 0 .2179.0095.3282.0095.1104 0 .1922-.0095.2901-.0095v.0679h-.0356c-.0988 0-.2091.0181-.2091.2889v1.0317c-.0016.0767.0029.1534.0134.2295h-.089l-1.2098-1.3042v.9397c0 .1977.0391.2656.2206.2656h.04v.068c-.1014 0-.2019-.0086-.3033-.0086-.1014 0-.21442.0086-.31939.0086v-.068h.03203c.16276 0 .21256-.1066.21256-.288v-.9585c0-.0271-.0055-.0539-.0163-.0789-.0108-.025-.0267-.0477-.0466-.0667-.01995-.0191-.0436-.0341-.0696-.0442-.026-.0102-.05381-.0152-.08184-.0149h-.03025v-.0679c.08896 0 .17792.0095.26689.0095.0694 0 .1379-.0095.209-.0095l1.0533 1.1383Z"/><path fill="#231F20" d="m11.3545 19.2578.008-.0069-.008.0069Zm.0471.4711h.0774c-.0097-.0726-.0138-.1459-.0124-.2192v-1.0316c0-.2726.1192-.2984.2197-.2984h.0187v-.0481c-.089 0-.1859.0086-.2793.0086-.1077 0-.2127-.0086-.3185-.0086v.0481h.0409c.0301-.0016.0602.0032.0882.0141.028.0109.0531.0276.0737.0489.0205.0213.036.0468.0452.0745.0092.0278.012.0572.0082.0861v.864l-.0071.0069-1.0453-1.1417c-.0703 0-.1388.0085-.209.0085-.089 0-.17795-.0085-.26068-.0085v.0481h.02046c.02927-.0003.05831.0049.08545.0156.02713.0106.05181.0263.07257.0462.0208.0199.0373.0437.0485.0698.0112.0261.0169.0542.0168.0825v.956c0 .1822-.0525.2983-.22155.2991h-.02668v.0482c.10141 0 .20633-.0095.30953-.0095.1032 0 .1957.0086.2927.0095v-.0482h-.0293c-.1851 0-.2313-.0782-.2313-.2759v-.9638l1.2231 1.3188Zm.089.0198h-.0961l-1.1929-1.2844v.9087c0 .1978.0338.2579.2108.2579h.0472v.086h-.0107c-.1014 0-.2019-.0086-.3025-.0086-.1005 0-.21346.0086-.31932.0086h-.01067v-.086h.0427c.15569 0 .20019-.0971.20189-.2785v-.9603c0-.0258-.0052-.0512-.0155-.075-.0103-.0237-.0253-.0452-.0443-.0633-.01894-.0181-.04142-.0324-.06612-.042-.0247-.0096-.05113-.0144-.07775-.014h-.04092v-.086h.01067c.08896 0 .17792.0086.26692.0086.0685 0 .137-.0086.2152-.006l1.04 1.1228v-.8357c0-.1805-.1264-.2029-.1949-.2037h-.0613v-.086h.0097c.1112 0 .2198.0086.3292.0086s.1921-.0086.2891-.0086h.0107v.086h-.0454c-.097 0-.1975.0103-.1993.2785v1.0317c-.0017.0762.003.1524.0143.2278v.0112l-.0107.0017ZM12.4384 18.3744h-.0053l-.2179.643h.4394l-.2162-.643Zm-.3433 1.0067c-.0229.0556-.0402.1131-.0516.1719 0 .0688.0987.08.1779.08h.0258v.0679c-.0943-.0052-.1895-.0086-.2847-.0086s-.1681 0-.2535.0086v-.0679h.0142c.0461-.0001.0909-.0145.1277-.0411.0369-.0267.0639-.0641.0769-.1068l.3754-1.042c.0374-.0915.0671-.1858.089-.282.0743-.0258.1458-.0586.2135-.098.006-.0022.0123-.0036.0187-.0043.0032-.0005.0065-.0001.0095.0011.003.0012.0055.0032.0074.0058.0062.0181.0133.0387.0204.0568l.4333 1.1881c.0275.0791.056.1633.0889.2312.0118.0298.0335.0548.0617.0713.0282.0165.0613.0235.094.0199h.0142v.0679c-.1067-.0052-.2126-.0086-.3247-.0086-.1121 0-.233 0-.3558.0086v-.0679h.0258c.0543 0 .1468-.0095.1468-.0662-.0093-.0561-.0254-.111-.0481-.1634l-.0889-.263h-.5338l-.08.2407Z"/><path fill="#231F20" d="M12.4273 18.3778h.0062-.0062Zm-.1993.6293h.4119l-.2046-.6086-.2073.6086Zm-.0276.0198.2251-.6628h.0124v.0103-.0103h.0072l.2232.6628h-.4679Zm.4804.668c.1165-.0043.2304-.0086.3425-.0086.1121 0 .2117.0043.314.0086v-.0473c-.0347.0034-.0697-.0043-.0995-.0218-.0299-.0175-.053-.044-.066-.0753-.0302-.0688-.0587-.153-.0889-.233l-.4332-1.1873c-.0072-.018-.0134-.0387-.0196-.055-.0047-.0007-.0095-.0007-.0142 0-.0651.0393-.1354.0697-.2091.0903-.0217.0967-.0515.1916-.089.2837l-.3754 1.0428c-.014.0445-.0423.0835-.0809.1114-.0386.0278-.0853.043-.1334.0434v.0473c.08-.0043.1619-.0086.2437-.0086.0818 0 .1833.0043.2731.0086v-.0473h-.0151c-.0765 0-.1833-.0095-.1868-.0903.0114-.0614.029-.1216.0524-.1797h.0098-.0098l.0774-.2424h.548l.0943.2691c.0226.0535.0385.1095.0472.1668 0 .0696-.1023.0748-.1557.0765h-.0231l-.0027.0481Zm.6663.0198c-.1059-.0043-.2117-.0086-.3238-.0086-.1121 0-.2322 0-.3559.0086h-.0106v-.086h.0356c.0551 0 .1352-.012.1361-.0559-.0093-.0548-.0252-.1085-.0472-.1599l-.0889-.2579h-.5187l-.0729.2296c-.0232.0554-.0405.113-.0516.1719 0 .0559.0889.0696.1663.0696h.0365v.086h-.0107c-.0943-.0043-.1903-.0086-.2837-.0086-.0934 0-.1691 0-.2536.0086h-.0106v-.086h.024c.0439.0002.0867-.0135.1218-.0389.0352-.0254.0608-.0613.073-.1021l.3763-1.0419c.0364-.0943.0676-.1905.0934-.288.0742-.0258.1457-.0583.2135-.0972.0069-.0033.0145-.0051.0222-.0051.0052-.0005.0103.0004.0149.0027s.0084.0058.0109.0102c.0071.018.0143.0386.0214.0567l.4323 1.1881c.0285.08.0561.1634.089.2304.0106.0282.0308.0521.0574.0677.0265.0156.0577.0221.0885.0183h.0231v.086l-.008.0017ZM13.4521 18.2333c-.1779 0-.1841.0413-.2188.2072h-.0712c.0098-.0636.0214-.1273.0285-.1935.0096-.0637.0144-.1281.0142-.1925h.0569c.0178.0679.0774.0653.1406.0653h1.2125c.0632 0 .1219 0 .1272-.0705l.056.0095c-.0088.061-.0186.1221-.0257.184-.0072.0619-.0054.122-.0054.1839l-.0703.025c0-.086-.016-.2184-.1779-.2184h-.3852v1.2088c0 .1719.0819.1951.1948.1951h.0445v.0679c-.0889 0-.2553-.0086-.3825-.0086-.1414 0-.306.0086-.3976.0086v-.0679h.0444c.1299 0 .1958-.0112.1958-.1908v-1.2131h-.3808Z"/><path fill="#231F20" d="M14.3741 19.717c-.089 0-.2571-.0086-.3825-.0086-.1406 0-.3052.0086-.3977.0086h-.0107v-.086h.0552c.1299 0 .1824 0 .185-.1805v-1.2036h-.3745v-.0207h.395v1.2234c0 .1823-.0756.2003-.2055.2012h-.0347v.0481c.089 0 .2509-.0094.3879-.0094.1227 0 .2793.0086.3727.0094v-.0481h-.0347c-.113 0-.2046-.0267-.2046-.2055v-1.2225h.395c.1574 0 .1779.1307.1832.2149l.0507-.018c0-.0594 0-.1187.0054-.178.0053-.0593.0151-.1169.024-.1719l-.0356-.0061c-.0107.0654-.0774.0697-.1361.0688h-1.2223c-.0551 0-.1147 0-.1361-.0662h-.0356c-.0005.0616-.0055.1231-.0151.184-.0062.0628-.0178.1229-.0267.1831h.0507c.0312-.159.0516-.2106.2278-.208v.0206c-.178 0-.1708.0309-.2091.1986v.0077h-.089v-.0111c.0098-.0637.0214-.1273.0276-.1926.0097-.0635.0144-.1276.0143-.1917v-.0104h.0747v.0069c.0169.0576.0596.0576.1192.0593h1.2223c.0649 0 .1129 0 .1165-.0619v-.0103h.0107l.0667.0103v.0104c-.0098.061-.0187.122-.0258.1831-.0071.061-.0044.1212-.0044.1831v.0069h-.0072l-.0827.0292v-.0129c-.0062-.086-.0151-.2089-.1637-.2089h-.3754v1.2002c0 .1719.073.1831.1851.1848h.0542v.086l-.0142.0043ZM14.8828 19.637h.0329c.089 0 .1779-.0112.1779-.1298v-1.1898c0-.1178-.0889-.1299-.1779-.1299h-.0329v-.0679c.089 0 .2331.0095.3478.0095.1148 0 .2589-.0095.3701-.0095v.0679h-.0338c-.0845 0-.1735.0121-.1735.1299v1.1898c0 .1186.089.1298.1735.1298h.0338v.0679c-.113 0-.2544-.0086-.3718-.0086-.1175 0-.2536.0086-.3461.0086v-.0679Z"/><path fill="#231F20" d="M15.5904 19.6954v-.0481h-.0222c-.089 0-.1842-.0146-.1842-.1402v-1.1898c0-.1255.0996-.1393.1842-.1393h.0222v-.0481c-.1085 0-.2446.0086-.3558.0086s-.2464-.0086-.3372-.0086v.0481h.0231c.0828 0 .1833.0138.1833.1393v1.1898c0 .1256-.1005.1402-.1833.1402h-.0231v.0481c.089 0 .2233-.0094.3354-.0094.1121 0 .25.0086.3612.0094h-.0036Zm.0142.0189c-.1138 0-.2544-.0086-.3718-.0086s-.2535.0086-.3461.0086h-.0097v-.0859h.0435c.0846 0 .1628-.0086.1628-.1195v-1.1916c0-.1109-.0782-.1178-.1628-.1195h-.0435v-.086h.0097c.089 0 .234.0086.3479.0086.1138 0 .2579-.0086.37-.0086h.0089v.086h-.0418c-.0889 0-.1637.0086-.1646.1195v1.1898c0 .1109.0783.1187.1646.1195h.0418v.086l-.0089.0017ZM16.5745 19.6395c.4555 0 .5338-.3886.5338-.7204 0-.3319-.1851-.7333-.5756-.7333-.411 0-.5337.3542-.5337.6585 0 .4066.193.7952.5738.7952h.0017Zm-.0373-1.5535c.5008 0 .9002.3001.9002.7832.0054.1148-.0139.2294-.0566.3366-.0427.1072-.1078.2047-.1914.2864-.0835.0817-.1836.1458-.294.1883-.1104.0426-.2288.0625-.3476.0588-.499 0-.8798-.3276-.8798-.8159-.0015-.1105.0199-.2201.0629-.3224.0431-.1024.1069-.1953.1878-.2734.0808-.078.1771-.1397.283-.1812.1059-.0414.2194-.062.3337-.0604"/><path fill="#231F20" d="M15.9894 18.8446c0-.3061.1236-.6689.5435-.6689.3985 0 .5853.4101.5853.7437 0 .3335-.0809.729-.5453.729v-.0172c.4448 0 .524-.3783.5249-.7101.0009-.3319-.1833-.723-.5649-.7239-.403 0-.5222.3439-.524.6491 0 .4041.1922.784.564.7849v.0189c-.3905 0-.5835-.3954-.5835-.8038v-.0017Zm-.3292.0808c-.0014-.1117.0203-.2226.0639-.326.0435-.1035.1081-.1975.1898-.2765.0818-.079.179-.1414.2861-.1835.1071-.0421.2218-.0631.3374-.0617v.0198c-.113-.0015-.2252.0189-.3298.0599-.1047.0411-.1998.102-.2798.1792-.0799.0771-.143.169-.1856.2701-.0426.1012-.0638.2095-.0624.3187 0 .4831.3763.8055.87.8055.1173.0036.2341-.0163.343-.0584.109-.0421.2078-.1055.2902-.1862.0824-.0807.1467-.177.1888-.2828.0422-.1059.0612-.219.056-.3323 0-.478-.3941-.7737-.8896-.7737v-.0198c.5044 0 .9092.3035.9101.7935.0052.1158-.0144.2314-.0575.3396-.0431.1082-.1088.2066-.1931.2891-.0842.0826-.1851.1474-.2964.1906-.1114.0431-.2307.0636-.3506.0602-.5035 0-.8896-.331-.8896-.8253M19.0221 19.2579l.0053-.0052v-.8511c.004-.0277.0016-.0559-.007-.0826-.0087-.0266-.0234-.0511-.0431-.0716-.0197-.0205-.0438-.0365-.0707-.0469-.0269-.0103-.0558-.0148-.0847-.013h-.0507v-.0679c.1103 0 .2188.0095.3283.0095.1094 0 .193-.0095.29-.0095v.0679h-.0338c-.0988 0-.2091.0181-.2091.2889v1.0317c-.0017.0767.003.1535.0142.2295h-.0889l-1.2107-1.3042v.9397c0 .1977.04.2656.2206.2656h.0409v.068c-.1014 0-.2019-.0086-.3033-.0086-.1015 0-.2135.0086-.3194.0086v-.068h.0329c.1619 0 .2108-.1066.2108-.288v-.9585c.0002-.0271-.0053-.0539-.016-.0789-.0107-.025-.0265-.0476-.0463-.0667-.0199-.019-.0435-.0341-.0694-.0442-.026-.0102-.0538-.0152-.0818-.0149H17.5v-.0679c.089 0 .1779.0095.2669.0095.0711 0 .1387-.0095.209-.0095l1.0462 1.1383Z"/><path fill="#231F20" d="m19.0209 19.2578.008-.0069-.008.0069Zm.0471.4711h.0774c-.0092-.0727-.0134-.1459-.0125-.2192v-1.0316c0-.2734.1184-.2984.2198-.2984h.0249v-.0481c-.089 0-.1851.0086-.2794.0086-.0942 0-.2117-.0086-.3184-.0086v.0481h.0409c.0301-.0016.0602.0032.0881.0141s.053.0276.0735.0489c.0205.0214.0359.0468.045.0746.0091.0277.0118.0571.0078.086v.864l-.008.0069-1.0462-1.1417c-.0694 0-.1378.0085-.209.0085-.089 0-.1779-.0085-.2598-.0085v.0481h.0205c.0293-.0003.0584.0049.0856.0155.0272.0106.0519.0264.0727.0463.0209.0199.0374.0436.0487.0697.0113.0262.0172.0542.0172.0826v.9568c0 .1814-.0525.2975-.2215.2983h-.0232v.0482c.1014 0 .2064-.0095.3096-.0095.1032 0 .1957.0086.2927.0095v-.0482h-.0303c-.1841 0-.2304-.0782-.2304-.2759v-.9638l1.2143 1.3188Zm.089.0198h-.0979l-1.192-1.2844v.9087c0 .1978.0338.2579.2099.2579h.0507v.086h-.0098c-.1014 0-.2028-.0086-.3033-.0086s-.2135.0086-.3203.0086h-.008v-.086h.0436c.1548 0 .1993-.0971.2011-.2777v-.9611c.0001-.0258-.0051-.0513-.0153-.0751-.0103-.0238-.0253-.0454-.0443-.0635-.019-.0181-.0415-.0323-.0663-.0419-.0247-.0096-.0512-.0143-.0779-.0138h-.0409v-.086h.0098c.089 0 .1824.0086.2669.0086.0703 0 .1379-.0086.217-.0051l1.0328 1.1236v-.8374c0-.1805-.1263-.202-.1948-.2037h-.0614v-.086h.0107c.1103 0 .2189.0086.3283.0086.0961 0 .1921-.0086.29-.0086h.0098v.086h-.041c-.0969 0-.1966.0112-.1992.2785v1.0317c-.0017.0762.0028.1523.0133.2278v.0112l-.0115.0017ZM20.1094 18.3742l-.2206.6431h.4395l-.2189-.6431Zm-.3434 1.0067c-.0228.0556-.0401.1132-.0515.172 0 .0688.0987.0799.1779.0799h.0267v.0679c-.0943-.0051-.1913-.0086-.2847-.0086-.0934 0-.169 0-.2535.0086v-.0679h.0133c.046 0 .0908-.0144.1277-.0411.0369-.0266.0639-.0641.0769-.1067l.379-1.0377c.0374-.0916.0671-.1859.0889-.282.0746-.0258.1464-.0587.2144-.098.006-.0023.0123-.0037.0187-.0043.0071 0 .0116 0 .016.0069.0045.0068.0142.0387.0214.0567l.4323 1.1881c.0285.0791.0569.1634.089.2313.0118.0297.0335.0548.0617.0713.0281.0165.0612.0235.0939.0198h.0143v.0679c-.1059-.0051-.2118-.0086-.3247-.0086-.113 0-.2331 0-.3559.0086v-.0679h.0267c.0534 0 .1459-.0094.1459-.0662-.0092-.0561-.0254-.1109-.048-.1633l-.089-.2631h-.5337l-.0837.2364Z"/><path fill="#231F20" d="M20.1005 18.3779h.0054-.0054Zm-.1992.6293h.411l-.2046-.6078-.2064.6078Zm-.0285.0198.226-.6629h.0115v.0103-.0103h.0072l.2223.6629h-.467Zm.4804.668c.1156-.0043.2304-.0086.3425-.0086.1121 0 .2117.0043.314.0086v-.0473h-.0044c-.0347.0031-.0694-.0046-.099-.0221-.0297-.0176-.0527-.0439-.0656-.0751-.0303-.0687-.0587-.153-.089-.2321l-.4332-1.1881-.0196-.0542h-.0044c-.0044-.0007-.009-.0007-.0134 0-.0666.0402-.1384.0717-.2135.0937-.0227.0965-.0524.1913-.0889.2837l-.3772 1.0429c-.0136.0445-.0417.0837-.0802.1116-.0385.0278-.0852.043-.1333.0431v.0473c.0809-.0043.1619-.0086.2437-.0086.0819 0 .1833.0043.274.0086v-.0473h-.016c-.0765 0-.1832-.0094-.1868-.0902.0119-.0613.0294-.1215.0525-.1797h.0098-.0098l.0774-.2425h.548l.0943.2691c.0226.0536.0384.1096.0471.1668 0 .0696-.1023.0748-.1548.0765h-.016l.0018.0439Zm.6663.0197c-.1059 0-.2117-.0086-.3238-.0086-.1121 0-.2322.0052-.3559.0086h-.0053v-.0859h.0365c.0542 0 .1352-.0121.1352-.0559-.0089-.055-.0247-.1087-.0472-.1599l-.0889-.2579h-.5186l-.073.2295c-.0226.0556-.0396.1132-.0507.172 0 .0558.089.0696.1655.0696h.0356v.086h-.0098c-.0943 0-.1904-.0086-.2838-.0086-.0934 0-.169.0051-.2535.0086h-.0107v-.086h.024c.0439 0 .0866-.0137.1217-.0391.0352-.0254.0608-.0612.0731-.1019l.3763-1.042c.0303-.0859.0721-.1977.089-.288.0741-.0259.1456-.0584.2135-.0971.0069-.0034.0145-.0051.0222-.0052.0052-.0006.0104.0003.015.0026s.0084.0059.0108.0103l.0214.0568.4323 1.1881c.0285.0799.056.1633.089.2312.0106.0281.0307.0518.057.0674.0263.0156.0573.0222.088.0186h.024v.086l-.0089.0008ZM21.6106 19.4823c0 .0911.0658.1186.1406.1281.1034.0076.2073.0059.3104-.0052.0442-.0049.087-.0183.1258-.0394.0388-.0211.0729-.0495.1002-.0835.0339-.05.0586-.1052.0729-.1634h.0676c-.0258.1298-.0587.2579-.0889.386-.2064 0-.4137-.0086-.6227-.0086-.2091 0-.4137.0086-.6227.0086v-.0679h.04c.0889 0 .1779-.0111.1779-.1521v-1.1675c0-.1178-.089-.1299-.1779-.1299h-.032v-.0679c.1236 0 .2464.0095.3709.0095.1246 0 .2375-.0095.3558-.0095v.0679h-.0596c-.0889 0-.1592 0-.1592.123l.0009 1.1718Z"/><path fill="#231F20" d="M22.3342 19.6954c.0267-.1238.0578-.2441.0827-.3671h-.048c-.0143.0569-.0387.111-.0721.1599-.0576.0701-.1412.1158-.233.1273-.0614.0051-.1228.0086-.178.0086-.0551 0-.0889 0-.1316-.0052-.0765-.0077-.1504-.0396-.1504-.1367v-1.1718c0-.1264.0828-.1324.17-.1324h.0489v-.0481c-.1157 0-.2304.0086-.347.0086-.1165 0-.241-.0086-.3611-.0086v.0481h.0204c.0837 0 .1869.0138.1869.1393v1.1675c0 .147-.1024.1625-.1869.1625h-.0222v.0481c.2028 0 .4065-.0094.6103-.0094.2037 0 .4083.0086.612.0094h-.0009Zm.0089.0189c-.2073 0-.4137-.0086-.6227-.0086-.2091 0-.4137.0086-.6227.0086h-.0098v-.0859h.0471c.089 0 .1655-.0078.1673-.1419v-1.1692c0-.1109-.0819-.1178-.1673-.1195h-.0427v-.086h.0098c.1255 0 .2473.0086.3719.0086.1245 0 .2366-.0086.3558-.0086h.0089v.086h-.0685c-.089 0-.1477 0-.1495.1126v1.1718c0 .086.0579.1075.1317.1178.0409 0 .089.0043.1299.0043.0594.0001.1188-.0028.1779-.0086.0428-.0049.0841-.0179.1216-.0383.0376-.0203.0706-.0476.0972-.0804.0331-.0492.0572-.1036.0712-.1607v-.0069h.089v.012c-.0267.1299-.0596.2579-.089.386v.0069h-.0071ZM22.3597 18.2951h.0293c.032 0 .0472-.0233.0472-.0611.001-.0066.0006-.0134-.0014-.0199-.002-.0064-.0055-.0123-.0102-.0173-.0047-.0049-.0105-.0088-.017-.0113-.0065-.0025-.0134-.0035-.0204-.0031h-.0275v.1127Zm-.0828.1263v-.012c.0303 0 .0356 0 .0356-.0215v-.1771c0-.0249 0-.0335-.0347-.0318v-.0095h.1263c.0436 0 .0837.0198.0837.0637-.0001.0166-.0059.0327-.0166.0458-.0106.0131-.0255.0224-.0422.0264l.041.0541c.0151.0214.0334.0405.0542.0568v.0077h-.048c-.0231 0-.0436-.0473-.089-.11h-.0275v.0791c0 .0154.0062.0146.0364.0189v.012l-.1192-.0026Zm.1228.068c.0402.001.0798-.0096.1137-.0305.0339-.0208.0606-.051.0767-.0866.0161-.0356.0208-.075.0135-.1132-.0072-.0382-.0261-.0735-.0542-.1013-.0281-.0278-.0642-.0468-.1035-.0546-.0394-.0079-.0803-.0042-.1175.0105-.0372.0147-.069.0399-.0913.0722s-.0342.0703-.034.1092c-.0005.0509.0199.0999.0568.1363.0368.0364.0871.0573.1398.058Zm0-.4342c.0489 0 .0966.014.1373.0402.0406.0262.0723.0635.0911.1071.0187.0437.0237.0917.0142.138-.0095.0463-.0329.0889-.0674.1224-.0345.0335-.0785.0563-.1264.0656-.0479.0093-.0976.0047-.1428-.0132-.0452-.018-.0839-.0485-.1112-.0877-.0273-.0392-.0419-.0853-.0421-.1325-.0006-.0316.0054-.063.0176-.0923.0122-.0293.0304-.056.0534-.0783.0231-.0224.0506-.0401.0809-.052s.0627-.0178.0954-.0173Z"/><path fill="#fff" d="M7.7207 10.1011c0-.76077.23341-1.50449.67072-2.1371.4373-.63262 1.05887-1.12573 1.78608-1.41699.7273-.29127 1.5276-.3676 2.2997-.21937.7722.14824 1.4815.5144 2.0383 1.05218.5569.53779.9362 1.22306 1.0901 1.96917.1539.74611.0755 1.51961-.2254 2.22261-.3009.703-.8107 1.3041-1.465 1.7271-.6543.4231-1.4237.6491-2.211.6497-.523.0004-1.041-.0988-1.5243-.2919-.48337-.1932-.92258-.4765-1.29254-.8338-.36997-.3573-.66343-.7816-.86361-1.2486-.20019-.467-.30316-.9675-.30305-1.473Z"/><path fill="#004A98" d="M11.7057 14.0174c-2.28092.0103-4.15882-1.7762-4.15882-3.9495.00266-2.37627 1.88057-4.02005 4.15882-4.02005h1.0675c2.2542 0 4.3118 1.64206 4.3118 4.01915 0 2.1734-2.0576 3.9495-4.3118 3.9495l-1.0675.0009Zm.0089-7.63942c-.7466 0-1.4763.21394-2.09703.61476-.62072.40082-1.1045.97053-1.39018 1.63707-.28569.66654-.36043 1.39999-.21479 2.10759.14564.7076.50512 1.3576 1.03299 1.8677.52787.5102 1.20041.8576 1.93261.9983.7322.1408 1.4911.0685 2.1808-.2075.6897-.2761 1.2792-.7437 1.6939-1.3436.4148-.5998.6362-1.3051.6362-2.0265 0-.96705-.3973-1.89448-1.1046-2.5785-.7073-.68401-1.6667-1.06863-2.6673-1.06932h-.0026Zm-.854 5.80482V7.86873c-.4516.16728-.8401.46301-1.1141.84813-.27402.38512-.42072.84151-.42072 1.30894 0 .4673.1467.9237.42072 1.3088.274.3852.6625.6809 1.1141.8482Zm3.2469-2.157c-.0004-.46764-.1474-.92413-.4217-1.30935-.2742-.38522-.6628-.68108-1.1146-.84858v4.31573c.4518-.1674.8405-.4632 1.1148-.8484.2742-.3853.4212-.8418.4215-1.3094Z"/></g><defs><linearGradient id="a" x1="14.8382" x2="13.6011" y1="12.6212" y2="10.6378" gradientUnits="userSpaceOnUse"><stop stop-color="#F9A020"/><stop offset=".25" stop-color="#F89B20"/><stop offset=".53" stop-color="#F78E20"/><stop offset=".62" stop-color="#F68820"/><stop offset=".73" stop-color="#F58120"/><stop offset="1" stop-color="#F47521"/></linearGradient><linearGradient id="b" x1="15.4607" x2="13.6593" y1="12.3052" y2="8.70139" gradientUnits="userSpaceOnUse"><stop stop-color="#F68820" stop-opacity=".01"/><stop offset=".11" stop-color="#EF8023" stop-opacity=".14"/><stop offset=".31" stop-color="#E47327" stop-opacity=".35"/><stop offset=".5" stop-color="#DB682A" stop-opacity=".52"/><stop offset=".69" stop-color="#D5612C" stop-opacity=".64"/><stop offset=".85" stop-color="#D15D2E" stop-opacity=".71"/><stop offset=".98" stop-color="#D05B2E" stop-opacity=".74"/></linearGradient><clipPath id="c"><path fill="#fff" d="M0 0h24v17H0z" transform="translate(.318359 4.5)"/></clipPath></defs></svg>