<svg xmlns="http://www.w3.org/2000/svg" fill="none" viewBox="0 0 25 25"><path fill="#fff" d="M.402344 5.58676 24.2319 5.58545V20.415H.405027L.402344 5.58676Z"/><path fill="#F58220" d="M24.148 13.832s-6.5115 4.4905-18.43706 6.499H24.148v-6.499Z"/><path fill="#231F20" fill-rule="evenodd" d="M.318359 5.5H24.3184v15H.318359v-15ZM24.146 20.3295V5.67041H.492188V20.3295H24.146Z" clip-rule="evenodd"/><path fill="#231F20" fill-rule="evenodd" d="M1.42188 10.0889h.99424c1.0989 0 1.86504.6988 1.86504 1.7044-.00458.5018-.2353.9762-.63063 1.2966-.33409.2727-.71381.3933-1.23978.3933h-.98887v-3.3943Zm.85826 2.8189c.43741 0 .71381-.0813.92715-.2701v.0013c.24177-.2212.37796-.5311.37569-.8548.00191-.3205-.13448-.6271-.37569-.8443-.22407-.198-.48974-.2753-.92715-.2753h-.18248v2.2432h.18248Z" clip-rule="evenodd"/><path fill="#231F20" d="M4.59375 10.0898h.677587v3.39306H4.59375zM6.9268 11.392c-.40253-.1468-.52597-.2439-.52597-.4274 0-.2137.21334-.3763.50584-.3763.21572.0047.41718.1063.54609.2753l.35423-.4536c-.2809-.2447-.64477-.3788-1.02108-.3763-.61452 0-1.0828.4169-1.0828.9728 0 .4668.21871.7067.8547.9309.16239.0497.31962.1142.46962.1927.12664.0737.20377.2074.2026.3514-.00121.1328-.05823.2593-.15769.3498-.09947.0905-.23263.137-.36828.1287-.31592.0041-.60505-.1728-.7393-.4523l-.43742.4117c.31263.4471.68698.6464 1.20758.6464.69503 0 1.19148-.4615 1.19148-1.1171 0-.5375-.22809-.7866-.9996-1.0567ZM8.1387 11.7932c-.00266.4748.19131.9304.53778 1.2633.34647.3329.816.5147 1.30177.504.29255.0006.58115-.0658.84265-.194v-.7866c-.2684.2622-.5099.3723-.8172.3723-.68291 0-1.16729-.4838-1.16729-1.1708-.01086-.3039.1042-.5992.31913-.8191.21492-.2198.51155-.3457.82271-.3491.32335 0 .56755.1128.84935.3816v-.7749c-.2555-.1367-.542-.2084-.83325-.2084-.48895-.0078-.96064.1765-1.30944.5114-.3488.3349-.54556.7925-.54621 1.2703ZM16.1925 12.3698l-.9258-2.28h-.7394l1.4733 3.4809h.365l1.5-3.4809h-.7339l-.9392 2.28ZM18.1719 13.4829h1.9214v-.5742h-1.2438v-.9165h1.1982v-.5742h-1.1982v-.7539h1.2438v-.5743h-1.9214v3.3931Z"/><path fill="#231F20" fill-rule="evenodd" d="M21.546 10.0898c.7809 0 1.229.3658 1.229 1.0017 0 .5192-.2804.8601-.7916.9636l1.0962 1.4278h-.8332l-.9392-1.3635h-.0886v1.3635h-.6776v-3.3931h1.005Zm-.3272 1.5631h.1972c.4334 0 .6628-.1954.6628-.5258 0-.3303-.2294-.5021-.6521-.5021h-.2079v1.0279Z" clip-rule="evenodd"/><path fill="url(#a)" d="M14.7382 11.7933c.0022.7306-.4466 1.3905-1.1368 1.6716-.6902.2811-1.4858.128-2.0153-.388-.5295-.5159-.6886-1.2928-.403-1.968.2857-.6753.9597-1.11573 1.7075-1.11574 1.0183 0 1.8447.80514 1.8476 1.80014Z"/><path fill="url(#b)" d="M14.7382 11.7933c.0022.7306-.4466 1.3905-1.1368 1.6716-.6902.2811-1.4858.128-2.0153-.388-.5295-.5159-.6886-1.2928-.403-1.968.2857-.6753.9597-1.11573 1.7075-1.11574 1.0183 0 1.8447.80514 1.8476 1.80014Z" opacity=".65" style="mix-blend-mode:multiply"/><path fill="#231F20" fill-rule="evenodd" d="M23.0924 10.1279c.074 0 .1157.0338.1157.0945.0022.0412-.0258.0778-.0659.0864l.0995.1269h-.0888l-.0861-.1201v.1201h-.0727v-.3078h.0983Zm-.0321.1365h.0135l.0067-.0027c.0363 0 .0484-.0135.0484-.0405 0-.027-.0188-.0391-.0551-.0391h-.0135v.0823Z" clip-rule="evenodd"/><path fill="#231F20" fill-rule="evenodd" d="M22.8379 10.2842c0-.1492.1205-.27.2691-.27s.2691.1208.2691.27c0 .1491-.1205.27-.2691.27s-.2691-.1209-.2691-.27Zm.06.0869c.0364.0821.1189.1337.2084.1304l-.0013-.0054c.1168-.0015.2111-.0961.2126-.2133.0005-.0899-.0535-.171-.1365-.2049-.0829-.034-.178-.014-.2404.0505-.0623.0646-.0793.1606-.0428.2427Z" clip-rule="evenodd"/><defs><linearGradient id="a" x1="14.8382" x2="13.6011" y1="12.6212" y2="10.6378" gradientUnits="userSpaceOnUse"><stop stop-color="#F9A020"/><stop offset=".25" stop-color="#F89B20"/><stop offset=".53" stop-color="#F78E20"/><stop offset=".62" stop-color="#F68820"/><stop offset=".73" stop-color="#F58120"/><stop offset="1" stop-color="#F47521"/></linearGradient><linearGradient id="b" x1="15.4607" x2="13.6593" y1="12.3052" y2="8.70139" gradientUnits="userSpaceOnUse"><stop stop-color="#F68820" stop-opacity=".01"/><stop offset=".11" stop-color="#EF8023" stop-opacity=".14"/><stop offset=".31" stop-color="#E47327" stop-opacity=".35"/><stop offset=".5" stop-color="#DB682A" stop-opacity=".52"/><stop offset=".69" stop-color="#D5612C" stop-opacity=".64"/><stop offset=".85" stop-color="#D15D2E" stop-opacity=".71"/><stop offset=".98" stop-color="#D05B2E" stop-opacity=".74"/></linearGradient></defs></svg>