<svg xmlns="http://www.w3.org/2000/svg" fill="none" viewBox="0 0 25 25"><path fill="#1A1F71" d="M24.3184 19.1478c0 .4959-.3967.8926-.8926.8926H1.21092c-.495866 0-.892561-.3967-.892561-.8926V5.79246c0-.49586.396695-.89256.892561-.89256H23.4258c.4959 0 .8926.3967.8926.89256V19.1478Z"/><path fill="#fff" fill-rule="evenodd" d="M16.286 13.594c0-1.0176-.843-1.4572-1.5114-1.8057-.439-.2288-.8026-.4184-.8026-.7067 0-.2314.2314-.4628.6942-.529.2314-.033.8925-.0661 1.6198.2976l.2975-1.35541c-.3967-.13224-.8925-.29752-1.5537-.29752-1.6198 0-2.7768.85953-2.7768 2.11573 0 .9256.8264 1.4215 1.4545 1.719.6281.2975.8595.4958.8595.7934 0 .4297-.4959.6281-.9917.6281-.8137 0-1.307-.2244-1.6691-.389l-.0169-.0077-.2975 1.3884c.3967.1653 1.0909.3306 1.8182.3306 1.719 0 2.843-.8595 2.876-2.1818ZM9.44242 9.29644l-.01387.03306H7.69036l-1.71901 4.3306-.69422-3.7025c-.06611-.42976-.39669-.66116-.76033-.66116H1.70689l-.03306.19835c.56198.09917 1.22314.33057 1.61983.52891.23141.1322.33058.2645.3967.562l1.32231 5.0909h1.75207l2.66381-6.3471h.01387v-.03306ZM22.1029 15.6766h-1.5207l-.2314-.9587h-2.1157l-.3305.9587h-1.7191l2.4794-5.9174c.0992-.26447.3636-.46281.6942-.46281h1.4215l1.3223 6.38021Zm-3.3705-2.2481.8595-2.3802.4959 2.3802h-1.3554Zm-8.2982 2.2481 1.3553-6.38016h-1.6529L8.78127 15.6766h1.65293Z" clip-rule="evenodd"/></svg>