<svg xmlns="http://www.w3.org/2000/svg" fill="none" viewBox="0 0 25 25"><mask id="a" width="6" height="7" x="0" y="10" maskUnits="userSpaceOnUse" style="mask-type:alpha"><path fill="#fff" fill-rule="evenodd" d="M.318359 10.3242H5.47728v6.1756H.318359v-6.1756Z" clip-rule="evenodd"/></mask><g mask="url(#a)"><path fill="#042C18" fill-rule="evenodd" d="M.318359 10.3242c.025386.0132.052725.0067.079087.0068.463656.0004.927254.0014 1.390844-.0011.05883-.0003.07146.0168.07134.0722-.00159 1.1568-.00183 2.3136-.00067 3.4704.00024.2608.02172.5196.11729.7663.14621.3774.45602.58.90034.5907.33489.0079.66717-.0184.99803-.07.05377-.0083.05975-.029.0592-.0737-.00214-.171-.00086-.3422-.00086-.5133 0-1.3857.00061-2.7714-.00177-4.1571-.00012-.0705.01782-.0864.08775-.0858.45872.0034.91749.0034 1.37614-.0001.07018-.0006.08172.0214.08165.0842-.00158 1.8966-.0017 3.7932.00055 5.6899.00006.0655-.0194.0912-.08158.1071-.41625.1057-.83999.1674-1.266.2163-.23726.0273-.475.0502-.71385.0594-.01031.0005-.01892.0024-.02227.0135h-.80539c-.00647-.019-.02319-.0134-.03668-.0147-.2602-.0229-.5168-.0652-.7659-.1445-.76585-.2439-1.253974-.7379-1.414587-1.5293-.018796-.0927-.016843-.1891-.052664-.2785v-4.2087Z" clip-rule="evenodd"/></g><path fill="#042C18" fill-rule="evenodd" d="M20.9302 12.4723c0 .2625.0006.5249-.0005.7875-.0001.0398.0009.0691.0545.0712.2433.0093.486.0268.7289-.0124.4269-.0688.677-.3091.7249-.7277.0497-.4343-.1254-.7883-.577-.9328-.2925-.0936-.5916-.0696-.8905-.0425-.0479.0043-.0403.0385-.0403.0692v.7875Zm3.0672.2819c-.0354.0795-.0312.1666-.0493.2496-.1563.7146-.5971 1.1827-1.2784 1.4414-.3448.1309-.7049.1843-1.0727.1973-.1903.0067-.3798-.0066-.5697-.0111-.0976-.0024-.0976-.0047-.0976.0941 0 .5302-.0017 1.0605.0019 1.5907.0006.0722-.0204.0848-.0885.0843-.4563-.0032-.9127-.0039-1.369.0005-.0777.0008-.0886-.0227-.0885-.0915.0019-1.9474.002-3.8947-.0008-5.8421-.0001-.0748.0265-.0909.0908-.0994.5535-.0739 1.1091-.1196 1.6679-.1342.4458-.0117.8869.009 1.3173.1344.494.1439.9123.3964 1.1997.8314.1875.284.2816.5998.3217.9335.0018.0146-.009.0352.0152.0426v.5785Z" clip-rule="evenodd"/><mask id="b" width="8" height="2" x="15" y="9" maskUnits="userSpaceOnUse" style="mask-type:alpha"><path fill="#fff" fill-rule="evenodd" d="M15.1836 9.5h7.2454v.8381h-7.2454V9.5Z" clip-rule="evenodd"/></mask><g mask="url(#b)"><path fill="#41B649" fill-rule="evenodd" d="M15.1836 10.3292c.6722-.2941 1.3713-.50321 2.0926-.64043.4906-.09339.9854-.15284 1.4847-.17575.0137-.00066.0297.00272.0388-.01302h1.1276c.0811.02755.1664.01863.2495.02436.6304.04401 1.2536.13366 1.8683.2795.1088.0258.2155.06065.3249.08362.0629.01327.0641.05257.0548.09586-.0108.04996-.0528.02196-.0781.01806-.4726-.0731-.9478-.115-1.4264-.11506-.7713-.00006-1.53.09966-2.2772.28676-.1674.0419-.3331.091-.4994.137-.023.0063-.0481.0089-.0658.028-.034-.0011-.0681-.0033-.1022-.0033-.9042 0-1.8086.0002-2.7128.0001-.0265 0-.0529-.0037-.0793-.0057Z" clip-rule="evenodd"/></g><path fill="#042C18" fill-rule="evenodd" d="M15.1838 10.3291c.0264.0019.0528.0057.0792.0057.9043.0001 1.8086-.0001 2.7129-.0001.034 0 .0682.0022.1022.0033.0006.4265-.0004.8529.0034 1.2794.0006.0652-.0357.0544-.0736.0544-.5635 0-1.1271.0014-1.6907-.0019-.0697-.0004-.0815.0209-.0813.0837.0017 1.5229.0009 3.0457.0028 4.5685.0001.0626-.0133.0788-.0783.0783-.4587-.0033-.9173-.0031-1.376-.0003-.0647.0004-.0842-.0131-.0841-.081.0023-1.4288.0017-2.8577.0016-4.2866 0-.0289-.0022-.0577-.0033-.0865.0007-.0602.0019-.1204.002-.1806.0003-.0942.0001-.0942-.0928-.0943-.5806-.0008-1.1611-.0016-1.7416-.0023.0001-.421.0015-.842-.001-1.2631-.0003-.0588.0136-.0759.0752-.0758.7186.0023 1.4371.0015 2.1557.0013.0293 0 .0584-.0013.0877-.0021ZM8.41528 14.6782c-.09386.2135-.16593.4351-.24788.6529-.12705.3374-.25178.6756-.37627 1.0138-.01263.0343-.0235.0552-.06884.055-.51442-.002-1.02879-.0013-1.54322-.0014-.00928 0-.01855-.0015-.03454-.003.1849-.4701.36852-.9368.55196-1.4034.04052-.1048.08104-.2097.12162-.3146.17605-.4449.35271-.8895.52803-1.3346.38775-.9843.77512-1.9685 1.16122-2.9533.01782-.0455.04052-.0597.09007-.0595.57313.002 1.14627.0014 1.71937.0009.0402 0 .0701-.0006.0895.0491.2975.7639.5978 1.5267.8975 2.2897-.0046.028-.0289.0367-.0495.0488-.2467.1454-.4919.2936-.7409.4351-.1642.0933-.3276.189-.5014.2649-.18464-.5144-.36924-1.0288-.55878-1.5571-.20339.5483-.40159 1.0794-.59705 1.6114-.0703.1914-.15012.3796-.20724.5757-.03264.0427-.04204.095-.05949.1436-.05798.162-.12895.3195-.17416.486Z" clip-rule="evenodd"/><path fill="#41B649" fill-rule="evenodd" d="M10.0127 13.4188c.1739-.076.3372-.1717.5014-.265.2491-.1414.4942-.2896.741-.435.0205-.0122.0448-.0208.0494-.0488.0325.002.0539-.0206.078-.0356.502-.3103.9907-.6406 1.4829-.9655.5805.0008 1.1611.0016 1.7416.0023.093.0002.0932.0002.0929.0943-.0002.0603-.0014.1204-.0021.1807-.3948.2291-.7881.4611-1.185.6865-.2732.1553-.552.3008-.8301.4477-.4832.2553-.9763.4886-1.4793.7021-.8834.3751-1.79301.6725-2.72972.888-.01879.0044-.03844.0053-.05766.0079.04521-.1665.11618-.324.17416-.486.01745-.0486.02685-.101.05949-.1436.00934-.0021.01929-.0028.02808-.0064.45468-.1877.90088-.3929 1.33495-.6236Z" clip-rule="evenodd"/><path fill="#042C18" fill-rule="evenodd" d="M12.7605 16.3989h-.0691c-.5124 0-1.0249-.0011-1.5374.0015-.0566.0003-.0775-.0175-.0958-.0687-.2183-.6139-.4392-1.227-.6609-1.8398-.0158-.0437-.0135-.0619.0371-.0803.4335-.1581.8597-.3339 1.2778-.5284.045-.0209.0645-.0192.0841.0309.3172.8109.6363 1.6212.9549 2.4317.0059.0151.0184.0292.0093.0531Z" clip-rule="evenodd"/><path fill="#41B649" fill-rule="evenodd" d="M6.81924 14.6777c-.04059.1049-.0811.2098-.12162.3147-.0772-.0287-.15299.0023-.22842.0093-.2497.0232-.49966.0428-.74985.0595-.02819.002-.05193.0006-.04656-.0342.00506-.0325-.02545-.0785.03924-.0907.11948-.0224.23835-.0483.35656-.0764.2505-.0595.50045-.1213.75065-.1822Z" clip-rule="evenodd"/><path fill="#042C18" fill-rule="evenodd" d="M23.1309 10.0255c-.0013.1935.1393.339.3283.3399.1866.0008.3336-.1486.3327-.3383-.0009-.18541-.147-.33179-.3313-.33179-.1877.00006-.3286.14114-.3297.33019Zm-.0879.0005c.0007-.22625.1828-.40247.4168-.40344.2342-.0009.4194.18099.4178.41074-.0015.2253-.1867.4046-.4175.4041-.2356-.0004-.4179-.1802-.4171-.4114Z" clip-rule="evenodd"/><path fill="#042C18" fill-rule="evenodd" d="M23.4544 9.85942c-.0445-.00223-.0869-.01079-.0808.06089.0043.05058.0017.08949.0713.07946.053-.00765.124.01023.1262-.07054.0021-.07777-.0653-.06668-.1167-.06981Zm.2061.39978c-.0569.0206-.0907.0032-.1143-.0459-.0177-.0367-.0455-.0689-.0628-.1057-.0191-.0405-.0499-.0522-.0885-.0419-.0372.0101-.0169.0441-.0192.0671-.0035.0334-.002.0675-.0007.1012.001.0253-.0099.0329-.0346.0332-.0267.0003-.0399-.0058-.0396-.0357.0011-.1349.0007-.26999.0004-.40492 0-.02321.0078-.03594.0338-.03503.0706.00241.1415-.00531.2116.00886.059.01194.0963.04239.1023.10509.0058.05998-.0047.1157-.0668.1374-.055.0193-.037.0399-.0154.071.0326.047.0623.0962.0938.1453Z" clip-rule="evenodd"/></svg>