<svg xmlns="http://www.w3.org/2000/svg" fill="none" viewBox="0 0 49 49"><circle cx="24.6367" cy="24.25" r="24" fill="#EFF5FF"/><path fill="#0E68FF" fill-rule="evenodd" stroke="#0E68FF" stroke-width=".975" d="M22.0388 31.9817c.3646 0 .6988-.1924.9013-.4963l4.7499-7.6058h5.5702c.8405 0 1.5191-.6785 1.5191-1.5191 0-.8406-.6786-1.5192-1.5191-1.5192H27.69l-4.7499-7.6058c-.1924-.3038-.5367-.4962-.9013-.4962-.7089 0-1.2255.6886-1.0128 1.3773l2.1066 6.7247h-5.5702l-1.3672-1.8229c-.0912-.1317-.2431-.2026-.4051-.2026h-.5976c-.3342 0-.5772.3241-.4861.6482l.8305 2.8965-.8305 2.8965c-.0911.324.1519.6481.4861.6481h.5976c.162 0 .3139-.0709.4051-.2025l1.3672-1.823h5.5702l-2.1066 6.7247c-.2127.6887.3039 1.3774 1.0128 1.3774Z" clip-rule="evenodd"/><path fill="#0E68FF" d="m38.3566 27.1732-2.1576-2.1576c-.2397-.2474-.6573-.0773-.6573.2707v1.3843h-4.6478c-.4253 0-.7733.348-.7733.7733s.348.7733.7733.7733h4.6478v1.3843c0 .348.4176.5181.6573.2707l2.1576-2.1576c.1469-.147.1469-.3944 0-.5414Z"/><path fill="#EFF5FF" fill-rule="evenodd" d="m37.0631 23.9474.1208.1144 2.1423 2.1421c.6822.6822.6822 1.7975 0 2.4797l-2.1423 2.1421c-1.0997 1.1352-3.0124.3509-3.0124-1.2244l.0003-.0143-3.2774.0007c-1.1201 0-2.0421-.8631-2.1361-1.9593l-.0079-.1847c0-1.1823.9617-2.144 2.144-2.144l3.2774-.0005.0064-.173c.1195-1.4128 1.8115-2.1082 2.8849-1.1788Zm1.3475 3.6986c.0899-.147.0719-.3468-.054-.4728l-2.1576-2.1576-.0693-.0573c-.2429-.1577-.588.0116-.588.328v1.3843h-4.6478l-.125.0101c-.3664.0602-.6483.3804-.6483.7632 0 .4253.348.7733.7733.7733h4.6478v1.3843l.0099.0903c.0645.2852.4295.4053.6474.1804l2.1576-2.1576.054-.0686Z" clip-rule="evenodd"/><path fill="#0E68FF" d="m25.7567 31.264 2.1576-2.1576c.2397-.2474.6573-.0773.6573.2707v1.3843h4.6478c.4253 0 .7733.348.7733.7733s-.348.7733-.7733.7733h-4.6478v1.3843c0 .348-.4176.5181-.6573.2707l-2.1576-2.1576c-.1469-.147-.1469-.3944 0-.5414Z"/><path fill="#EFF5FF" fill-rule="evenodd" d="m27.0502 28.0382-.1208.1144-2.1424 2.1421c-.6822.6822-.6822 1.7975 0 2.4797l2.1424 2.1421c1.0997 1.1352 3.0124.3509 3.0124-1.2244l-.0003-.0143 3.2774.0007c1.1201 0 2.0421-.8631 2.1361-1.9592l.0079-.1848c0-1.1823-.9617-2.1439-2.144-2.1439l-3.2774-.0006-.0064-.173c-.1195-1.4128-1.8115-2.1082-2.8849-1.1788Zm-1.3475 3.6986c-.09-.147-.072-.3468.054-.4728l2.1576-2.1576.0693-.0573c.2429-.1577.588.0116.588.328v1.3843h4.6478l.125.0101c.3664.0603.6483.3804.6483.7632 0 .4253-.348.7733-.7733.7733h-4.6478v1.3843l-.0099.0903c-.0645.2852-.4295.4054-.6474.1804l-2.1576-2.1576-.054-.0686Z" clip-rule="evenodd"/></svg>