<svg xmlns="http://www.w3.org/2000/svg" fill="none" viewBox="0 0 49 49"><circle cx="24.6367" cy="24.25" r="24" fill="#EFF5FF"/><path fill="#0E68FF" fill-rule="evenodd" stroke="#0E68FF" stroke-width=".975" d="M34.6367 27.0507c0-.3789-.2-.7263-.5158-.9368l-7.9052-4.9369v-5.7895c0-.8736-.7053-1.5789-1.579-1.5789-.8737 0-1.5789.7053-1.5789 1.5789v5.7895l-7.9053 4.9369c-.3158.2-.5158.5579-.5158.9368 0 .7368.7158 1.2737 1.4316 1.0526l6.9895-2.1894v5.7894l-1.8948 1.4211c-.1368.0947-.2105.2526-.2105.421v.6211c0 .3474.3369.6.6737.5053l3.0105-.8632 3.0105.8632c.3369.0947.6737-.1579.6737-.5053v-.6211c0-.1684-.0737-.3263-.2105-.421l-1.8947-1.4211v-5.7894l6.9894 2.1894c.7158.2211 1.4316-.3158 1.4316-1.0526Z" clip-rule="evenodd"/></svg>