<svg xmlns="http://www.w3.org/2000/svg" fill="none" viewBox="0 0 49 49"><circle cx="24.6367" cy="24.25" r="24" fill="#EFF5FF"/><path fill="#0E68FF" fill-rule="evenodd" d="M24.6367 37.25c7.1797 0 13-5.8203 13-13s-5.8203-13-13-13-13 5.8203-13 13 5.8203 13 13 13Zm1.0589-19.0312c-.031-.6509-.5685-1.169-1.227-1.169-.6784 0-1.2284.55-1.2284 1.2284h.0693c-1.5599.3129-2.6728 1.8158-2.6728 3.4497 0 1.8898 1.1931 3.5247 3.8323 3.5247.1456 0 .2814.0017.408.0058l.2411.0112c1.0692.0685 1.3689.3714 1.3689 1.3877 0 .7385-.3484 1.068-1.1741 1.2456-.4061.0873-.7763.1093-1.4011.1093h-1.8869l-.0882.0036c-.5524.0448-.9867.5073-.9867 1.0713 0 .5936.4813 1.0748 1.0749 1.0748l1.2205-.0005c.0564.6262.5826 1.1169 1.2235 1.1169.6784 0 1.2284-.55 1.2284-1.2284h-.1615c.0751-.0135.1512-.0286.2293-.0454 1.7227-.3706 2.8716-1.4569 2.8716-3.3472 0-1.5159-.6084-2.583-1.7036-3.1274-.7139-.3548-1.3404-.427-2.4641-.427-1.2794 0-1.6826-.5525-1.6826-1.375 0-.7242.5347-1.3594 1.1254-1.3594h3.0503l.0882-.0036c.5524-.0448.9867-.5074.9867-1.0713 0-.5936-.4813-1.0748-1.0749-1.0748h-1.2665Z" clip-rule="evenodd"/></svg>