<svg xmlns="http://www.w3.org/2000/svg" fill="none" viewBox="0 0 49 49"><circle cx="24.6367" cy="24.25" r="24" fill="#EFF5FF"/><path fill="#0E68FF" fill-rule="evenodd" d="M33.4367 18.5687h-3.19V17.5c0-1.2375-.99-2.25-2.2-2.25h-6.82c-1.21 0-2.2 1.0125-2.2 2.25v1.0687h-3.19c-1.21 0-2.2 1.0126-2.2 2.25V31c0 1.2375.99 2.25 2.2 2.25h17.6c1.21 0 2.2-1.0125 2.2-2.25V20.8187c0-1.2374-.99-2.25-2.2-2.25Zm-4.8.0003h-8v-1.0842c.05-.5625.45-1.0688 1-1.0688h6.05c.5.0563.95.5063.95 1.125v1.028Z" clip-rule="evenodd"/></svg>