<svg xmlns="http://www.w3.org/2000/svg" fill="none" viewBox="0 0 49 49"><rect width="48" height="48" x=".636719" y=".25" fill="#EFF5FF" rx="24"/><path fill="#fff" d="M8.63672 8.25h32v32h-32z" opacity=".01"/><path fill="#0E68FF" fill-rule="evenodd" d="M23.1367 19.75c0 2.4862-2.0137 4.5-4.5 4.5-2.4862 0-4.5-2.0138-4.5-4.5s2.0138-4.5 4.5-4.5c2.4863 0 4.5 2.0138 4.5 4.5ZM9.63672 31c0-2.9925 5.99628-4.5 8.99998-4.5 3.0038 0 9 1.5075 9 4.5v2.25H9.63672V31Z" clip-rule="evenodd"/><mask id="a" width="20" height="19" x="23.002" y="16.25" fill="#000" maskUnits="userSpaceOnUse"><path fill="#fff" d="M23.002 16.25h20v19h-20z"/><path fill-rule="evenodd" d="M36.6367 22.25c0 2.21-1.79 4-4 4s-4-1.79-4-4 1.79-4 4-4 4 1.79 4 4ZM25.002 31.5833c0-2.2166 4.6301-3.3333 7.6339-3.3333 3.0037 0 8 1.1167 8 3.3333V33.25H25.002v-1.6667Z" clip-rule="evenodd"/></mask><path fill="#0E68FF" fill-rule="evenodd" d="M36.6367 22.25c0 2.21-1.79 4-4 4s-4-1.79-4-4 1.79-4 4-4 4 1.79 4 4ZM25.002 31.5833c0-2.2166 4.6301-3.3333 7.6339-3.3333 3.0037 0 8 1.1167 8 3.3333V33.25H25.002v-1.6667Z" clip-rule="evenodd"/><path fill="#EFF5FF" d="M40.6359 33.25v2h2v-2h-2Zm-15.6339 0h-2v2h2v-2Zm7.6347-5c3.3146 0 6-2.6854 6-6h-4c0 1.1054-.8946 2-2 2v4Zm-6-6c0 3.3146 2.6854 6 6 6v-4c-1.1054 0-2-.8946-2-2h-4Zm6-6c-3.3146 0-6 2.6854-6 6h4c0-1.1054.8946-2 2-2v-4Zm6 6c0-3.3146-2.6854-6-6-6v4c1.1054 0 2 .8946 2 2h4Zm-6.0008 4c-1.6987 0-3.8425.3084-5.6256.9554-.8866.3217-1.8099.7718-2.547 1.4098-.7502.6495-1.4613 1.6416-1.4613 2.9681h4c0 .2182-.1324.2395.0794.0562.2249-.1948.6469-.4395 1.2933-.674 1.283-.4655 2.9561-.7155 4.2612-.7155v-4Zm10 5.3333c0-1.3876-.7988-2.3879-1.5706-3.0116-.7703-.6224-1.7328-1.0626-2.6551-1.3784-1.8574-.636-4.0793-.9433-5.7743-.9433v4c1.3087 0 3.0868.2511 4.4785.7276.7022.2404 1.1765.495 1.4369.7054.2588.2091.0846.1796.0846-.0997h4Zm0 1.6667v-1.6667h-4V33.25h4Zm-17.6339 2h15.6339v-4H25.002v4Zm-2-3.6667V33.25h4v-1.6667h-4Z" mask="url(#a)"/></svg>