<svg xmlns="http://www.w3.org/2000/svg" fill="none" viewBox="0 0 49 49"><circle cx="24.6367" cy="24.25" r="24" fill="#EFF5FF"/><path fill="#0E68FF" fill-rule="evenodd" d="M24.6116 13.38c-1.0402.0765-1.8579.9424-1.8579 2.0025l-.0003 5.3037-7.3829 4.6118c-.4491.2845-.726.7852-.726 1.3157l.0057.134c.0821.9697 1.0477 1.6408 2.0042 1.3454l6.099-1.9119v4.668l-1.6293 1.2232c-.2496.1724-.3977.4741-.3977.7955v.598l.0065.1143c.0681.5981.6648 1.0094 1.2617.8416l2.7668-.7936 2.7649.7929c.2881.081.5757.028.8042-.1154l-1.6881-1.6881c-.8435-.8436-.8435-2.2112 0-3.0547.0411-.0411.0835-.0802.127-.1174v-3.2643l5.1175 1.6041.8888-.8891c.5629-.5628 1.3591-.7501 2.0773-.5618-.0776-.4156-.3255-.7868-.688-1.0285l-7.3956-4.6187.0002-5.3047c0-1.1106-.8974-2.008-2.0079-2.008l-.1501.0055Zm9.2248 14.5769c.1442-.1442.3385-.2077.5268-.1906.1484.0135.293.0771.4065.1906.2578.2577.2578.6756 0 .9333l-4.8666 4.8667-1.1362-1.1362-1.0638-1.0638c-.2578-.2577-.2578-.6756 0-.9333.2577-.2578.6756-.2578.9333 0l1.2667 1.2666 3.7649-3.7649.1684-.1684Z" clip-rule="evenodd"/></svg>