<svg xmlns="http://www.w3.org/2000/svg" fill="none" viewBox="0 0 49 49"><circle cx="24.6367" cy="24.25" r="24" fill="#EFF5FF"/><path fill="#0E68FF" fill-rule="evenodd" d="M32.5076 20.0666c.8-.21 1.62.26 1.84 1.06.21.8-.27 1.62-1.07 1.84l-15.82 4.24c-.43.11-.89-.08-1.12-.47l-1.88-3.25c-.17-.28-.02-.65.3-.73l.33-.09c.31-.08.63-.01.88.18l1.57 1.24 4.97-1.33-3.44-5.96c-.35-.61-.03-1.39.65-1.58.36-.1.75-.01 1.02.25l6.46 6.02 5.31-1.42ZM15.7773 30.4868h17c.55 0 1 .45 1 1s-.45 1-1 1h-17c-.55 0-1-.45-1-1s.45-1 1-1Z" clip-rule="evenodd"/><path fill="#0E68FF" d="m34.3476 21.1266.3627-.0952-.0012-.0042-.3615.0994Zm-1.84-1.06-.0952-.3627-.0017.0004.0969.3623Zm.77 2.9.097.3622.0024-.0006-.0994-.3616Zm-15.82 4.24.0929.3633.0041-.0011-.097-.3622Zm-1.12-.47-.3246.1878.0016.0027.323-.1905Zm-1.88-3.25.3246-.1878-.0041-.0068-.3205.1946Zm.3-.73.0909.3639.0077-.0021-.0986-.3618Zm.33-.09-.0937-.3631-.005.0013.0987.3618Zm.88.18.2324-.2943-.0055-.0043-.2269.2986Zm1.57 1.24-.2325.2943.1477.1166.1817-.0486-.0969-.3623Zm4.97-1.33.0969.3623.4722-.1264-.2444-.4234-.3247.1875Zm-3.44-5.96-.3253.1866.0005.0009.3248-.1875Zm.65-1.58-.1004-.3613-.0005.0001.1009.3612Zm1.02.25-.2602.2702.0045.0041.2557-.2743Zm6.46 6.02-.2557.2743.1519.1416.2006-.0536-.0968-.3623Zm7.5115-.4594c-.2746-.9987-1.2987-1.5853-2.2967-1.3233l.1904.7254c.6019-.158 1.2178.1954 1.3832.7967l.7231-.1988Zm-1.3321 2.301c.9948-.2736 1.5963-1.2949 1.3333-2.2968l-.7254.1904c.157.5981-.2016 1.2168-.8068 1.3832l.1989.7232Zm-15.8224 4.2406 15.82-4.24-.1941-.7244-15.82 4.24.1941.7244Zm-1.54-.6417c.3141.5327.9431.7945 1.5359.6428l-.1859-.7266c-.2671.0684-.5582-.0499-.704-.2972l-.646.381Zm-1.8816-3.2527 1.88 3.25.6492-.3756-1.88-3.25-.6492.3756Zm.5336-1.2816c-.5665.1416-.8299.7937-.5296 1.2884l.6411-.3892c-.0396-.0653-.003-.1532.0704-.1716l-.1819-.7276Zm.3223-.088-.33.09.1973.7236.33-.09-.1973-.7236Zm1.2056.2432c-.3384-.2571-.7759-.3541-1.2006-.2445l.1874.7262c.1953-.0504.3977-.0074.5594.1155l.4538-.5972Zm1.5755 1.2443-1.57-1.24-.4649.5886 1.57 1.24.4649-.5886Zm4.6406-1.3979-4.97 1.33.1939.7245 4.97-1.33-.1939-.7245Zm-3.6678-5.4103 3.44 5.96.6495-.375-3.44-5.96-.6495.375Zm.8739-2.1287c-.9145.2556-1.3466 1.3049-.8744 2.1278l.6505-.3732c-.2278-.3971-.0198-.9078.4257-1.0322l-.2018-.7224Zm1.381.3411c-.3702-.3565-.8989-.475-1.3805-.3412l.2007.7226c.2385-.0662.4897-.0047.6595.1588l.5203-.5402Zm6.4555 6.0158-6.46-6.02-.5113.5486 6.46 6.02.5113-.5486Zm4.9575-1.508-5.31 1.42.1937.7246 5.31-1.42-.1937-.7246Zm.3666 10.4075h-17v.75h17v-.75Zm1.375 1.375c0-.7571-.6178-1.375-1.375-1.375v.75c.3429 0 .625.2821.625.625h.75Zm-1.375 1.375c.7572 0 1.375-.6179 1.375-1.375h-.75c0 .3429-.2821.625-.625.625v.75Zm-17 0h17v-.75h-17v.75Zm-1.375-1.375c0 .7571.6179 1.375 1.375 1.375v-.75c-.3428 0-.625-.2821-.625-.625h-.75Zm1.375-1.375c-.7571 0-1.375.6179-1.375 1.375h.75c0-.3429.2822-.625.625-.625v-.75Z"/></svg>