<svg xmlns="http://www.w3.org/2000/svg" fill="none" viewBox="0 0 49 49"><circle cx="24.6367" cy="24.25" r="24" fill="#EFF5FF"/><path fill="#0E68FF" fill-rule="evenodd" d="M29.1662 27.2799c.4123.4123.4123 1.0861 0 1.4984-.4124.4123-1.0861.4123-1.4984 0l-3.0389-3.0389-3.0389 3.0389c-.4123.4123-1.086.4123-1.4984 0-.4123-.4123-.4123-1.0861 0-1.4984l3.0389-3.0389-3.0389-3.0388c-.4123-.4124-.4123-1.0861 0-1.4984.4124-.4124 1.0861-.4124 1.4984 0l3.0389 3.0388 3.0389-3.0388c.4123-.4124 1.086-.4124 1.4984 0 .4123.4123.4123 1.086 0 1.4984l-3.0389 3.0388 3.0389 3.0389Z" clip-rule="evenodd"/><path fill="#0E68FF" fill-rule="evenodd" d="M35.6367 24.25c0 6.0751-4.9248 11-11 11-6.0751 0-11-4.9249-11-11s4.9249-11 11-11c6.0752 0 11 4.9249 11 11Zm-20 0c0 4.9706 4.0295 9 9 9 4.9706 0 9-4.0294 9-9s-4.0294-9-9-9c-4.9705 0-9 4.0294-9 9Z" clip-rule="evenodd"/></svg>