<svg xmlns="http://www.w3.org/2000/svg" fill="none" viewBox="0 0 49 49"><circle cx="24.6367" cy="24.25" r="24" fill="#EFF5FF"/><path fill="#0E68FF" fill-rule="evenodd" d="m30.2123 15.0469 1.8512 3.7023c.0813.1628.5563.3662.3732.3662h-2.0139c-.3865 0-.7425-.2136-.9053-.5594l-1.7596-3.5091h-2.6804l1.8512 3.7023c.0814.1628.6054.3662.4223.3662h-2.0139c-.3865 0-.7425-.2136-.9052-.5594l-1.7597-3.5091h-2.7358l1.8512 3.7023c.0814.1628.6609.3662.4778.3662h-2.014c-.3865 0-.7425-.2136-.9154-.5594l-1.7494-3.5091h-1.0172c-1.1188 0-2.0342.9154-2.0342 2.0342v12.2056c0 1.1189.9154 2.0343 2.0342 2.0343h16.2742c1.1188 0 2.0342-.9154 2.0342-2.0343V17.0848c0-1.1248-.8172-2.0379-2.0342-2.0379h-2.6313Z" clip-rule="evenodd"/><path stroke="#EFF5FF" stroke-linejoin="round" stroke-width="1.39856" d="M14.5333 19.5857H34.876"/><path fill="#0E68FF" stroke="#EFF5FF" stroke-width="2.8146" d="m32.1388 36.1441.011-.0066 5.8464-3.5112c1.4679-.8751 1.4115-2.9587.0236-3.8261l-.0106-.0066-.0107-.0064-5.8487-3.5126-.0189-.0113-.0192-.0107c-1.476-.8249-3.353.2078-3.353 1.9575v7.0085c0 1.7464 1.8888 2.8027 3.3801 1.9255Z"/><path fill="#EFF5FF" fill-rule="evenodd" d="M32.8524 37.3568c-2.4343 1.432-5.5008-.3092-5.5008-3.1384v-7.0086c0-2.8059 3.0164-4.5441 5.5229-3.1419l5.8913 3.5387c2.3032 1.4395 2.3032 4.8318-.0426 6.2246l-5.8708 3.5256Zm4.4216-7.3632-5.8488-3.5125c-.5633-.3148-1.2592.0828-1.2592.729v7.0085c0 .6462.6959 1.0438 1.2592.7125l5.8488-3.5126c.5302-.3148.5302-1.0935 0-1.4249Z" clip-rule="evenodd"/></svg>