<svg xmlns="http://www.w3.org/2000/svg" fill="none" viewBox="0 0 49 49"><circle cx="24.6367" cy="24.25" r="24" fill="#EFF5FF"/><path fill="#0E68FF" fill-rule="evenodd" d="M20.5301 12.7615c-1.087 1.087-1.087 2.8567 0 3.9437 1.0869 1.1009 2.8428 1.1009 3.9436 0 1.087-1.087 1.087-2.8567 0-3.9437-1.0869-1.0869-2.8567-1.0869-3.9436 0Zm-1.5735 7.6524v9.4359c0 1.9579 1.5805 3.5384 3.5385 3.5384h5.8974c.6487 0 1.1795.5308 1.1795 1.1795 0 .6487-.5308 1.1795-1.1795 1.1795h-5.8974c-3.2554 0-5.8974-2.6421-5.8974-5.8974v-9.4359c0-.6488.5307-1.1795 1.1794-1.1795.6488 0 1.1795.5307 1.1795 1.1795Zm11.0605 7.8475c-.1478-.0268-.3054-.0399-.4724-.0399H25.786v-3.8917c0-3.5013-.6723-4.2344-.6723-4.2344-.2241-.2477-.5072-.4482-.8139-.5897-.342-.1652-1.0728-.2713-1.4739-.2713h-.0353c-1.4626 0-2.6539 1.1913-2.6539 2.6538v6.7821c0 1.9579 1.5805 3.5384 3.5385 3.5384l5.7199.0602 1.6521 2.9768c.4102.7392 1.3499.9935 2.0769.5622l.3848-.2283c.6991-.4149.9406-1.3112.5444-2.0211l-2.5337-4.5401c-.3103-.5559-.9162-.8323-1.5025-.757Z" clip-rule="evenodd"/></svg>