<svg xmlns="http://www.w3.org/2000/svg" fill="none" viewBox="0 0 49 49"><circle cx="24.6367" cy="24.25" r="24" fill="#EFF5FF"/><mask id="a" width="49" height="49" x="0" y="0" maskUnits="userSpaceOnUse" style="mask-type:alpha"><circle cx="24.6367" cy="24.25" r="24" fill="#fff"/></mask><g mask="url(#a)"><circle cx="24.6367" cy="24.25" r="24" fill="#EFF5FF"/><path fill="#0E68FF" fill-rule="evenodd" stroke="#0E68FF" stroke-width="1.5" d="M31.8083 25.3929H26.094v5.7142c0 .6286-.5143 1.1429-1.1428 1.1429-.6286 0-1.1429-.5143-1.1429-1.1429v-5.7142H18.094c-.6285 0-1.1428-.5143-1.1428-1.1429s.5143-1.1429 1.1428-1.1429h5.7143v-5.7142c0-.6286.5143-1.1429 1.1429-1.1429.6285 0 1.1428.5143 1.1428 1.1429v5.7142h5.7143c.6286 0 1.1429.5143 1.1429 1.1429s-.5143 1.1429-1.1429 1.1429Z" clip-rule="evenodd"/></g></svg>