<svg xmlns="http://www.w3.org/2000/svg" fill="none" viewBox="0 0 49 49"><circle cx="24.6367" cy="24.25" r="24" fill="#EFF5FF"/><path fill="#0E68FF" d="M11.6367 18.25c0-1.6569 1.3432-3 3-3h19c1.1046 0 2 .8954 2 2v10c0 1.1046-.8954 2-2 2h-20c-1.1046 0-2-.8954-2-2v-9Z"/><rect width="25.5" height="15.5" x="13.8867" y="17.5" fill="#0E68FF" stroke="#EFF5FF" stroke-width="1.5" rx="2.75"/><circle cx="18.6367" cy="25.25" r="1" fill="#EFF5FF"/><circle cx="34.6367" cy="25.25" r="1" fill="#EFF5FF"/><path fill="#fff" fill-rule="evenodd" d="M26.6628 21.0342c.3878 0 .7043.3052.7225.6885h.7455c.3495 0 .6329.2833.6329.6329 0 .332-.2558.6043-.581.6308l-.0519.002h-1.7961c-.3478 0-.6627.3741-.6627.8005 0 .4843.2375.8097.9908.8097.6616 0 1.0305.0425 1.4509.2514.6449.3205 1.0031.9489 1.0031 1.8414 0 1.1131-.6765 1.7527-1.6909 1.9709-.0454.0098-.0897.0186-.1334.0265h.0942c0 .3995-.3238.7233-.7233.7233-.3772 0-.687-.2888-.7203-.6574l-.7195.0003c-.3495 0-.6329-.2833-.6329-.6329 0-.332.2558-.6043.581-.6308l.0519-.002h1.1111c.3679 0 .5858-.013.825-.0644.4861-.1046.6913-.2986.6913-.7335 0-.5984-.1765-.7767-.806-.8171l-.142-.0066c-.0745-.0023-.1545-.0034-.2402-.0034-1.554 0-2.2566-.9626-2.2566-2.0754 0-.9623.6557-1.8476 1.5747-2.0314h-.0414c0-.3995.3238-.7233.7233-.7233Z" clip-rule="evenodd"/></svg>