<svg xmlns="http://www.w3.org/2000/svg" fill="none" viewBox="0 0 49 49"><circle cx="24.6367" cy="24.25" r="24" fill="#EFF5FF"/><path fill="#0E68FF" fill-rule="evenodd" d="M23.2626 32.7804c-.2117.2874-.561.4694-.942.4694-.741 0-1.2808-.6514-1.0585-1.3027l2.2017-6.3605h-5.8219l-1.429 1.7243c-.0952.1245-.254.1915-.4234.1915h-.6245c-.3493 0-.6034-.3065-.5081-.613l.868-2.7396-.868-2.7396c-.0953-.3065.1588-.613.5081-.613h.6245c.1694 0 .3282.067.4234.1916l1.429 1.7242h5.8219l-2.2017-6.3605c-.2223-.6513.3175-1.3027 1.0585-1.3027.381 0 .7409.182.942.4694l4.9645 7.1938h5.8218c.8786 0 1.5878.6418 1.5878 1.4368 0 .7951-.7092 1.4368-1.5878 1.4368H29.885c.1566.1766.2517.4089.2517.6634v1.5h1.5c.5523 0 1 .4477 1 1s-.4477 1-1 1h-1.5v1.5c0 .5523-.4477 1-1 1s-1-.4477-1-1v-1.5h-1.5c-.3937 0-.7343-.2276-.8974-.5584l-2.4767 3.5888Zm3.4716-5.0304h1.4025v-1.5c0-.2545.0951-.4868.2517-.6634h-.1613L26.7342 27.75Z" clip-rule="evenodd"/><path fill="#0E68FF" d="m23.2626 32.7804.3925.2892.0045-.0061.0043-.0062-.4013-.2769Zm-2.0005-.8333-.4607-.1595-.0007.002.4614.1575Zm2.2017-6.3605.4606.1595.224-.647h-.6846v.4875Zm-5.8219 0v-.4875h-.2291l-.1462.1765.3753.311Zm-1.429 1.7243-.3753-.3111-.0061.0073-.0058.0075.3872.2963Zm-1.556-.4215-.4647-.1473-.0008.0026.4655.1447Zm.868-2.7396.4647.1472.0467-.1472-.0467-.1472-.4647.1472Zm-.868-2.7396-.4655.1447.0008.0026.4647-.1473Zm1.556-.4214-.3872.2962.0058.0075.0061.0073.3753-.311Zm1.429 1.7242-.3753.311.1462.1765h.2291v-.4875Zm5.8219 0v.4875h.6846l-.224-.647-.4606.1595Zm-2.2017-6.3605-.4614.1575.0007.002.4607-.1595Zm2.0005-.8333.4013-.2769-.0018-.0027-.3995.2796Zm4.9645 7.1938-.4012.2769.1453.2106h.2559v-.4875Zm1.6579 2.8736v-.4875h-1.0841l.7195.8111.3646-.3236Zm.2517 2.1634h-.4875v.4875h.4875V27.75Zm0 2v-.4875h-.4875v.4875h.4875Zm-2 0h.4875v-.4875h-.4875v.4875Zm-2.3974-.5584.4372-.2155-.367-.7445-.4715.6832.4013.2768Zm2.3974-1.4416v.4875h.4875V27.75h-.4875Zm-1.4025 0-.4013-.2769-.5275.7644h.9288V27.75Zm1.6542-2.1634.3647.3236.7194-.8111h-1.0841v.4875Zm-.1613 0v-.4875h-.2559l-.1453.2107.4012.2768Zm-5.9065 8.1507c.5354 0 1.0306-.2552 1.3345-.6677l-.7849-.5783c-.1195.1622-.3229.271-.5496.271v.975Zm-1.5199-1.9477c-.353 1.0344.5185 1.9477 1.5199 1.9477v-.975c-.4806 0-.6888-.3894-.5972-.6578l-.9227-.3149Zm2.2024-6.3624-2.2017 6.3604.9213.3189 2.2017-6.3604-.9213-.3189Zm-5.3612.6469h5.8219v-.975h-5.8219v.975Zm-1.0536 1.5478 1.429-1.7242-.7507-.6221-1.429 1.7242.7507.6221Zm-.7988.368c.2904 0 .6059-.1152.8106-.3828l-.7744-.5925c.0068-.0088.0111-.0093.0054-.0068-.0063.0028-.0204.0071-.0416.0071v.975Zm-.6245 0h.6245v-.975h-.6245v.975Zm-.9736-1.2452c-.2111.679.3598 1.2452.9736 1.2452v-.975c-.03 0-.0431-.0123-.0454-.0151-.0011-.0013.0016.0014.0034.0095.0021.0093.0013.0189-.0006.0248l-.931-.2894Zm.8688-2.7421-.868 2.7395.9294.2945.868-2.7396-.9294-.2944Zm-.868-2.4451.868 2.7395.9294-.2944-.868-2.7396-.9294.2945Zm.9728-1.2478c-.6138 0-1.1847.5662-.9736 1.2452l.931-.2894c.0019.006.0027.0155.0006.0248-.0018.0081-.0045.0108-.0034.0095.0023-.0028.0154-.0151.0454-.0151v-.975Zm.6245 0h-.6245v.975h.6245v-.975Zm.8106.3828c-.2047-.2676-.5202-.3828-.8106-.3828v.975c.0212 0 .0353.0043.0416.0071.0057.0025.0014.002-.0054-.0068l.7744-.5925Zm1.4172 1.7094-1.429-1.7242-.7507.6221 1.429 1.7242.7507-.6221Zm5.4465-.1764h-5.8219v.975h5.8219v-.975Zm-2.6624-5.7135 2.2017 6.3604.9213-.3189-2.2017-6.3604-.9213.3189Zm1.5192-1.9497c-1.0014 0-1.8729.9133-1.5199 1.9477l.9227-.3149c-.0916-.2684.1166-.6578.5972-.6578v-.975Zm1.3415.6773c-.2991-.4272-.8134-.6773-1.3415-.6773v.975c.234 0 .4395.1139.5426.2614l.7989-.5591Zm4.9662 7.1965-4.9644-7.1938-.8025.5538 4.9645 7.1938.8024-.5538Zm5.4206-.2106h-5.8218v.975h5.8218v-.975Zm2.0753 1.9243c0-1.109-.9744-1.9243-2.0753-1.9243v.975c.6563 0 1.1003.4682 1.1003.9493h.975Zm-2.0753 1.9243c1.1009 0 2.0753-.8153 2.0753-1.9243h-.975c0 .4811-.444.9493-1.1003.9493v.975Zm-4.1639 0h4.1639v-.975H29.885v.975Zm.7392.1759c0-.3783-.1418-.7246-.3745-.9869l-.7293.6471c.0805.0907.1288.209.1288.3398h.975Zm0 1.5v-1.5h-.975v1.5h.975Zm1.0125-.4875h-1.5v.975h1.5v-.975Zm1.4875 1.4875c0-.8215-.666-1.4875-1.4875-1.4875v.975c.2831 0 .5125.2295.5125.5125h.975Zm-1.4875 1.4875c.8215 0 1.4875-.666 1.4875-1.4875h-.975c0 .283-.2294.5125-.5125.5125v.975Zm-1.5 0h1.5v-.975h-1.5v.975Zm.4875 1.0125v-1.5h-.975v1.5h.975Zm-1.4875 1.4875c.8215 0 1.4875-.666 1.4875-1.4875h-.975c0 .283-.2294.5125-.5125.5125v.975ZM27.6492 31.25c0 .8215.666 1.4875 1.4875 1.4875v-.975c-.283 0-.5125-.2295-.5125-.5125h-.975Zm0-1.5v1.5h.975v-1.5h-.975Zm-1.0125.4875h1.5v-.975h-1.5v.975Zm-1.3347-.8303c.2421.4909.7483.8303 1.3347.8303v-.975c-.2011 0-.376-.1157-.4602-.2864l-.8745.4311Zm-1.6381 3.6501 2.4766-3.5888-.8025-.5537-2.4766 3.5887.8025.5538Zm4.4728-5.7948h-1.4025v.975h1.4025v-.975Zm-.4875-1.0125v1.5h.975v-1.5h-.975Zm.3745-.9869c-.2326.2623-.3745.6086-.3745.9869h.975c0-.1308.0484-.2491.1289-.3398l-.7294-.6471Zm.2034.811h.1613v-.975h-.1613v.975Zm-1.0917 1.9528 1.4929-2.1634-.8024-.5537-1.493 2.1633.8025.5538Z"/><path fill="#EFF5FF" fill-rule="evenodd" d="M27.1367 26.25c0-1.0544.8159-1.9182 1.8508-1.9945l.1492-.0055c1.1046 0 2 .8954 2 2v.5h.5c1.0544 0 1.9182.8159 1.9945 1.8507l.0055.1493c0 1.1046-.8954 2-2 2h-.5v.5c0 1.0544-.8159 1.9182-1.8507 1.9945l-.1493.0055c-1.1046 0-2-.8954-2-2v-.501l-.5.001c-1.0543 0-1.9181-.8159-1.9945-1.8507l-.0055-.1493c0-1.1046.8954-2 1.9994-2h.5006v-.5Zm3 0c0-.5523-.4477-1-1-1s-1 .4477-1 1v1.499l-1.5.001c-.5523 0-1 .4477-1 1s.4477 1 1 1l1.5-.001v1.501c0 .5523.4477 1 1 1s1-.4477 1-1v-1.5h1.5c.5523 0 1-.4477 1-1s-.4477-1-1-1h-1.5v-1.5Z" clip-rule="evenodd"/></svg>