<svg xmlns="http://www.w3.org/2000/svg" fill="none" viewBox="0 0 49 49"><circle cx="24.6367" cy="24.25" r="24" fill="#EFF5FF"/><path fill="#0E68FF" fill-rule="evenodd" d="M31.3873 24.25c0 .306-.027.594-.063.882l1.899 1.485c.171.135.216.378.108.576l-1.8 3.114c-.108.198-.342.279-.549.198l-2.241-.9c-.468.351-.972.657-1.521.882l-.342 2.385c-.027.216-.216.378-.441.378h-3.6c-.225 0-.414-.162-.441-.378l-.342-2.385c-.549-.225-1.053-.522-1.521-.882l-2.241.9c-.198.072-.441 0-.549-.198l-1.8-3.114c-.108-.198-.063-.441.108-.576l1.899-1.485c-.036-.288-.063-.585-.063-.882 0-.297.027-.594.063-.882l-1.899-1.485c-.171-.135-.225-.378-.108-.576l1.8-3.114c.108-.198.342-.279.549-.198l2.241.9c.468-.351.972-.657 1.521-.882l.342-2.385c.027-.216.216-.378.441-.378h3.6c.225 0 .414.162.441.378l.342 2.385c.549.225 1.053.522 1.521.882l2.241-.9c.198-.072.441 0 .549.198l1.8 3.114c.108.198.063.441-.108.576l-1.899 1.485c.036.288.063.576.063.882Zm-9.899-.0004c0 1.737 1.413 3.15 3.15 3.15 1.737 0 3.15-1.413 3.15-3.15 0-1.737-1.413-3.15-3.15-3.15-1.737 0-3.15 1.413-3.15 3.15Z" clip-rule="evenodd"/><path fill="#0E68FF" d="m31.3243 25.132-.4466-.0558c-.0196.157.0447.3128.1694.4103l.2772-.3545Zm1.899 1.485.2788-.3532-.0016-.0013-.2772.3545Zm.108.576.3897.2253.0053-.0098-.395-.2155Zm-1.8 3.114-.3898-.2253-.0053.0098.3951.2155Zm-.549.198-.1678.4176.0038.0015.164-.4191Zm-2.241-.9.1677-.4176c-.146-.0586-.3119-.0368-.4377.0576l.27.36Zm-1.521.882-.1707-.4164c-.1476.0605-.2521.1946-.2748.3525l.4455.0639Zm-.342 2.385-.4456-.0639-.001.0081.4466.0558Zm-4.482 0 .4466-.0558-.0012-.0081-.4454.0639Zm-.342-2.385.4454-.0639c-.0226-.1579-.1272-.292-.2748-.3525l-.1706.4164Zm-1.521-.882.2743-.3567c-.1262-.0971-.2943-.1202-.442-.0609l.1677.4176Zm-2.241.9.1537.4229c.0047-.0017.0094-.0035.014-.0053l-.1677-.4176Zm-.549-.198.3951-.2155-.0055-.0097-.3896.2252Zm-1.8-3.114-.3952.2155.0056.0097.3896-.2252Zm.108-.576-.2772-.3545-.0017.0013.2789.3532Zm1.899-1.485.2772.3545c.1246-.0975.1889-.2533.1693-.4103l-.4465.0558Zm0-1.764.4465.0558c.0196-.157-.0447-.3128-.1693-.4103l-.2772.3545Zm-1.899-1.485-.2789.3532.0017.0013.2772-.3545Zm-.108-.576.3874.2289.0022-.0037-.3896-.2252Zm1.8-3.114.3897.2253.0053-.0098-.395-.2155Zm.549-.198.1677-.4176-.0038-.0015-.1639.4191Zm2.241.9-.1677.4176c.1459.0586.3118.0368.4377-.0576l-.27-.36Zm1.521-.882.1706.4164c.1476-.0605.2522-.1946.2748-.3525l-.4454-.0639Zm.342-2.385.4455.0639.001-.0081-.4465-.0558Zm4.482 0-.4466.0558.0011.0081.4455-.0639Zm.342 2.385-.4455.0639c.0227.1579.1272.292.2748.3525l.1707-.4164Zm1.521.882-.2744.3567c.1262.0971.2943.1202.4421.0609l-.1677-.4176Zm2.241-.9-.1538-.4229c-.0047.0017-.0093.0035-.0139.0053l.1677.4176Zm.549.198-.3952.2155.0056.0097.3896-.2252Zm1.8 3.114.3951-.2155-.0055-.0097-.3896.2252Zm-.108.576.2772.3545.0016-.0013-.2788-.3532Zm-1.899 1.485-.2772-.3545c-.1247.0975-.189.2533-.1694.4103l.4466-.0558Zm.4465 1.8198c.0371-.2968.0665-.6054.0665-.9378h-.9c0 .2796-.0247.547-.0596.8262l.8931.1116Zm1.7297 1.0747-1.899-1.485-.5544.709 1.899 1.485.5544-.709Zm.2258 1.146c.2066-.3788.1293-.8657-.2242-1.1447l-.5577.7064c-.0016-.0012-.0031-.003-.0041-.0047-.0009-.0015-.0009-.0021-.0008-.0015.0003.0013.0007.0062-.0033.0135l.7901.431Zm-1.8054 3.1237 1.8-3.114-.7792-.4504-1.8 3.114.7792.4504Zm-1.1026.3919c.4128.1615.8889.0002 1.108-.4016l-.7901-.431c-.0003.0005.0003-.0006.002-.0021.0016-.0013.0032-.0022.0046-.0027.0031-.0011.0047-.0002.0034-.0008l-.3279.8382Zm-2.2447-.9015 2.241.9.3354-.8352-2.241-.9-.3354.8352Zm-1.1827.8808c.592-.2426 1.1291-.57 1.6204-.9384l-.54-.72c-.4448.3336-.9156.6182-1.4217.8256l.3413.8328Zm-.0672 2.0325.342-2.385-.8909-.1278-.342 2.385.8909.1278Zm-.8864.7641c.4401 0 .8309-.3195.8875-.7722l-.8931-.1116c.0005-.0037.0018-.0075.0035-.0107.0016-.0029.0032-.0045.004-.0052.0015-.0013.0015-.0003-.0019-.0003v.9Zm-3.6 0h3.6v-.9h-3.6v.9Zm-.8876-.7722c.0566.4527.4474.7722.8876.7722v-.9c-.0035 0-.0035-.001-.0019.0003.0007.0007.0023.0023.0039.0052.0018.0032.003.007.0035.0107l-.8931.1116Zm-.3409-2.3769.342 2.385.8909-.1278-.342-2.385-.8909.1278Zm-1.3499-.5892c.4973.3826 1.0359.7004 1.6247.9417l.3413-.8328c-.5092-.2087-.9786-.4849-1.4173-.8223l-.5487.7134Zm-1.7989.9609 2.241-.9-.3354-.8352-2.241.9.3354.8352Zm-1.1118-.4001c.2267.4156.7156.5444 1.0978.4054l-.3075-.8458c.0008-.0003-.0002.0002-.0028.0002s-.005-.0005-.0065-.001c-.0014-.0004-.0005-.0004.0019.0015.0026.0022.0054.0054.0072.0087l-.7901.431Zm-1.7945-3.1043 1.8 3.114.7792-.4504-1.8-3.114-.7792.4504Zm.2187-1.1544c-.3534.279-.4308.7659-.2242 1.1447l.7901-.431c-.004-.0073-.0036-.0122-.0033-.0135.0001-.0006.0001 0-.0008.0015-.001.0017-.0025.0035-.0041.0047l-.5577-.7064Zm1.9007-1.4863-1.899 1.485.5544.709 1.899-1.485-.5544-.709Zm-.2358-.5275c0 .3231.0293.6406.0664.9378l.8931-.1116c-.0349-.2788-.0595-.5553-.0595-.8262h-.9Zm.0664-.9378c-.0371.2972-.0664.6147-.0664.9378h.9c0-.2709.0246-.5474.0595-.8262l-.8931-.1116Zm-1.7296-1.0747 1.899 1.485.5544-.709-1.899-1.485-.5544.709Zm-.2183-1.1594c-.2359.3993-.1243.889.2166 1.1581l.5577-.7064c-.0001-.0001.0004.0003.0006.0015.0002.0008.0003.0021 0 .0037-.0003.0018-.0008.0022 0 .0009l-.7749-.4578Zm1.7979-3.1103-1.8 3.114.7792.4504 1.8-3.114-.7792-.4504Zm1.1025-.3919c-.4128-.1615-.8888-.0002-1.108.4016l.7901.431c.0003-.0005-.0003.0006-.002.0021-.0016.0013-.0032.0022-.0046.0027-.0031.0011-.0047.0002-.0034.0008l.3279-.8382Zm2.2448.9015-2.241-.9-.3354.8352 2.241.9.3354-.8352Zm1.1826-.8808c-.5919.2426-1.1291.57-1.6203.9384l.54.72c.4447-.3336.9156-.6182 1.4216-.8256l-.3413-.8328Zm.0672-2.0325-.342 2.385.8909.1278.342-2.385-.8909-.1278Zm.8865-.7641c-.4402 0-.831.3195-.8876.7722l.8931.1116c-.0005.0037-.0017.0075-.0035.0107-.0016.0029-.0032.0045-.0039.0052-.0016.0013-.0016.0003.0019.0003v-.9Zm3.6 0h-3.6v.9h3.6v-.9Zm.8875.7722c-.0566-.4527-.4474-.7722-.8875-.7722v.9c.0034 0 .0034.001.0019-.0003-.0008-.0007-.0024-.0023-.004-.0052-.0017-.0032-.003-.007-.0035-.0107l.8931-.1116Zm.3409 2.3769-.342-2.385-.8909.1278.342 2.385.8909-.1278Zm1.3499.5892c-.4973-.3826-1.0359-.7004-1.6247-.9417l-.3413.8328c.5092.2087.9786.4849 1.4173.8223l.5487-.7134Zm1.799-.9609-2.241.9.3354.8352 2.241-.9-.3354-.8352Zm1.1117.4001c-.2267-.4156-.7156-.5444-1.0978-.4054l.3075.8458c-.0007.0003.0002-.0002.0028-.0002s.005.0005.0065.001c.0014.0004.0005.0004-.0018-.0015-.0027-.0022-.0055-.0054-.0073-.0087l.7901-.431Zm1.7946 3.1043-1.8-3.114-.7792.4504 1.8 3.114.7792-.4504Zm-.2188 1.1544c.3535-.279.4308-.7659.2242-1.1447l-.7901.431c.004.0073.0036.0122.0033.0135-.0001.0006-.0001 0 .0008-.0015.001-.0017.0025-.0035.0041-.0047l.5577.7064Zm-1.9006 1.4863 1.899-1.485-.5544-.709-1.899 1.485.5544.709Zm.2358.5275c0-.3324-.0294-.641-.0665-.9378l-.8931.1116c.0349.2792.0596.5466.0596.8262h.9Zm-7.199 2.6996c-1.4885 0-2.7-1.2115-2.7-2.7h-.9c0 1.9855 1.6145 3.6 3.6 3.6v-.9Zm2.7-2.7c0 1.4885-1.2115 2.7-2.7 2.7v.9c1.9855 0 3.6-1.6145 3.6-3.6h-.9Zm-2.7-2.7c1.4885 0 2.7 1.2115 2.7 2.7h.9c0-1.9855-1.6145-3.6-3.6-3.6v.9Zm-2.7 2.7c0-1.4885 1.2115-2.7 2.7-2.7v-.9c-1.9855 0-3.6 1.6145-3.6 3.6h.9Z"/></svg>