<svg xmlns="http://www.w3.org/2000/svg" fill="none" viewBox="0 0 49 49"><circle cx="24.6367" cy="24.25" r="24" fill="#EFF5FF"/><path fill="#0E68FF" d="M13.6367 13.75c0-.8284.7296-1.5 1.6296-1.5h18.7408c.9 0 1.6296.6716 1.6296 1.5s-.7296 1.5-1.6296 1.5H15.2663c-.9 0-1.6296-.6716-1.6296-1.5Z"/><path fill="#0E68FF" fill-rule="evenodd" d="M25.635 17.6694c-.5513-.5592-1.4452-.5592-1.9965 0l-6.5883 6.6818c-.5513.5591-.5513 1.4657 0 2.0249.5513.5591 1.4452.5591 1.9966 0l4.1778-4.2372v14.6995c0 .7797.6321 1.4117 1.4118 1.4117s1.4117-.632 1.4117-1.4117V22.1382l4.1786 4.2379c.5513.5591 1.4452.5591 1.9965 0 .5514-.5592.5514-1.4658 0-2.0249l-6.5882-6.6818Z" clip-rule="evenodd"/></svg>