<svg xmlns="http://www.w3.org/2000/svg" fill="none" viewBox="0 0 49 49"><circle cx="24.6367" cy="24.25" r="24" fill="#EFF5FF"/><path fill="#0E68FF" fill-rule="evenodd" d="M15.601 22.4858c.4636.4636 1.2.5091 1.7.0909 4.2454-3.4909 10.4091-3.4909 14.6636-.0091.5091.4182 1.2545.3818 1.7182-.0818.5363-.5364.5-1.4273-.0909-1.9091-5.1909-4.2455-12.7-4.2455-17.9 0-.5909.4727-.6364 1.3636-.0909 1.9091Zm7.0551 7.0552 1.3364 1.3364c.3545.3545.9272.3545 1.2818 0l1.3364-1.3364c.4272-.4273.3363-1.1636-.2091-1.4454-1.1091-.5728-2.4364-.5728-3.5546 0-.5182.2818-.6182 1.0181-.1909 1.4454Zm-1.7271-3.2734c-.5182.3727-1.2182.3273-1.6637-.1182-.5545-.5545-.5182-1.4727.1091-1.9273 3.1364-2.2636 7.4-2.2636 10.5273 0 .6273.4455.6636 1.3728.1182 1.9182l-.0091.0091c-.4455.4455-1.1455.4818-1.6637.1182-2.2181-1.5727-5.2-1.5727-7.4181 0Z" clip-rule="evenodd"/><path fill="#0E68FF" d="m17.301 22.5767-.1588-.1931-.0016.0013.1604.1918Zm-1.7-.0909.1767-.1768-.1767.1768Zm16.3636.0818.1587-.1932-.0004-.0003-.1583.1935Zm1.6273-1.9909-.1583.1935.0003.0002.158-.1937Zm-17.9 0 .1562.1952.0019-.0016-.1581-.1936Zm8.3006 10.3007-.1768.1768.1768-.1768Zm-1.3364-1.3364.1768-.1768-.1768.1768Zm3.7455-1.4454.1147-.2221v-.0001l-.1147.2222Zm-3.5546 0-.114-.2226-.0054.0029.1194.2197Zm-1.918-1.828-.1446-.2039-.0014.0009.146.203Zm-1.5546-2.0455-.1463-.2027-.0004.0003.1467.2024Zm10.5273 0-.1466.2026.0018.0013.1448-.2039Zm.1182 1.9182.1767.1768-.1767-.1768Zm-.0091.0091-.1768-.1768.1768.1768Zm-1.6637.1182-.1446.2039.001.0007.1436-.2046Zm-11.2065-3.8827c-.3968.3318-.9871.2999-1.3629-.0759l-.3535.3535c.5515.5515 1.4339.6105 2.0372.1059l-.3208-.3835Zm14.9823-.0108c-4.3465-3.5571-10.6429-3.5574-14.9807.0095l.3175.3862c4.1532-3.415 10.1841-3.4153 14.3466-.0088l.3166-.3869Zm1.3831-.0651c-.3724.3724-.9727.4022-1.3827.0654l-.3174.3864c.6082.4995 1.4988.4566 2.0537-.0983l-.3536-.3535Zm-.0721-1.5386c.4741.3866.5056 1.1051.0721 1.5386l.3536.3535c.6392-.6392.5979-1.7025-.1097-2.2796l-.316.3875ZM15.85 20.7703c5.108-4.1704 12.4849-4.1702 17.5836-.0001l.3165-.3871c-5.283-4.3208-12.9244-4.3206-18.2163-.0001l.3162.3873Zm-.0723 1.5387c-.4424-.4425-.4016-1.1595.0703-1.5371l-.3123-.3904c-.7099.5678-.76 1.6326-.1115 2.281l.3535-.3535Zm8.3915 8.3916-1.3363-1.3364-.3536.3536 1.3364 1.3364.3535-.3536Zm.9283 0c-.2569.2569-.6713.2569-.9283 0l-.3535.3536c.4522.4521 1.1832.4521 1.6354 0l-.3536-.3536Zm1.3364-1.3364-1.3364 1.3364.3536.3536 1.3363-1.3364-.3535-.3536Zm-.1471-1.0465c.3863.1996.4617.7319.1471 1.0465l.3535.3536c.5399-.5399.4335-1.4803-.2711-1.8443l-.2295.4442Zm-3.3258.0004c1.0469-.5363 2.289-.5358 3.3259-.0004l.2294-.4443c-1.1814-.61-2.5938-.6096-3.7833-.0004l.228.4451Zm-.1281 1.0461c-.3136-.3135-.2325-.8499.1336-1.049l-.2389-.4393c-.6703.3646-.7893 1.3009-.2483 1.8419l.3536-.3536Zm-3.7444-3.038c.5358.5357 1.373.5856 1.9864.1443l-.2919-.4059c-.423.3043-.9857.2632-1.3409-.092l-.3536.3536Zm.1392-2.3065c-.7633.5532-.7921 1.6535-.1392 2.3065l.3536-.3536c-.4561-.4561-.4122-1.1921.079-1.548l-.2934-.4049Zm10.8206-.0001c-3.2149-2.327-7.5966-2.3268-10.8202-.0002l.2926.4055c3.0492-2.2007 7.1947-2.2005 10.2344-.0002l.2932-.4051Zm.1483 2.2975c.6439-.6439.6156-1.755-.1502-2.2988l-.2895.4077c.4888.3471.5332 1.0905.0862 1.5375l.3535.3536Zm-.0091.0091.0091-.0091-.3535-.3536-.0091.0091.3535.3536Zm-1.984.146c.6099.428 1.4462.3918 1.984-.146l-.3535-.3536c-.3531.3531-.9167.3897-1.3433.0904l-.2872.4092Zm-7.13-.0007c2.1316-1.5113 4.9975-1.5113 7.129 0l.2892-.4078c-2.3048-1.6342-5.4025-1.6342-7.7073 0l.2891.4078Z"/></svg>