<svg xmlns="http://www.w3.org/2000/svg" fill="none" viewBox="0 0 49 49"><circle cx="24.6367" cy="24.25" r="24" fill="#EFF5FF"/><path fill="#0E68FF" fill-rule="evenodd" stroke="#0E68FF" stroke-width=".975" d="M34.3921 26.613c0-.3649-.1926-.6994-.4967-.9022l-7.6125-4.754v-5.575c0-.8413-.6791-1.5205-1.5205-1.5205-.8413 0-1.5204.6792-1.5204 1.5205v5.575l-7.6125 4.754c-.3041.1926-.4967.5373-.4967.9022 0 .7095.6893 1.2265 1.3786 1.0136l6.7306-2.1084v5.5751l-1.8246 1.3684c-.1318.0912-.2027.2433-.2027.4055v.598c0 .3345.3244.5778.6487.4866l2.899-.8312 2.8991.8312c.3243.0912.6487-.1521.6487-.4866v-.598c0-.1622-.071-.3143-.2027-.4055l-1.8246-1.3684v-5.5751l6.7306 2.1084c.6893.2129 1.3786-.3041 1.3786-1.0136Z" clip-rule="evenodd"/><path fill="#EFF5FF" fill-rule="evenodd" d="M31.734 34.7986c-.3616.4017-.8674.6125-1.3811.6125h-1.351c-1.035 0-1.871-.836-1.871-1.8711v-1.3509c0-.5008.1968-.9732.5496-1.326l6.0141-6.0141.1228-.1228c.8172-.8172 2.1412-.8172 2.9585 0l1.0398 1.0399c.8173.8172.8173 2.1412 0 2.9584l-1.289 1.289-4.7927 4.7851Zm4.9165-7.2405c.1733-.1733.1733-.4532 0-.6265l-1.0398-1.0399c-.1733-.1733-.4533-.1733-.6266 0l-.1228.1228 1.6665 1.6664.1227-.1228Zm-7.8045 4.4708 4.1577-4.1578 1.6661 1.6661-4.1619 4.1581c-.0399.0444-.0977.0666-.1555.0666h-1.3509c-.1244 0-.2222-.0977-.2222-.2221v-1.351c0-.0622.0222-.1155.0667-.1599Z" clip-rule="evenodd"/><path fill="#0E68FF" fill-rule="evenodd" d="M36.6496 26.9316c.1733.1733.1733.4532 0 .6265l-.8132.8133-1.6665-1.6665.8132-.8132c.1734-.1733.4533-.1733.6266 0l1.0399 1.0399Zm-7.8703 6.6082v-1.3509c0-.0623.0222-.1156.0667-.16l4.8482-4.8482 1.6664 1.6664-4.8527 4.8482c-.0399.0445-.0977.0667-.1555.0667h-1.3509c-.1244 0-.2222-.0978-.2222-.2222Z" clip-rule="evenodd"/></svg>