<svg xmlns="http://www.w3.org/2000/svg" fill="none" viewBox="0 0 49 49"><circle cx="24.6367" cy="24.25" r="24" fill="#EFF5FF"/><path fill="#0E68FF" fill-rule="evenodd" d="M27.6836 13.0191c.3237.1472.6216.3521.878.6082l4.195 4.1895c.2569.2565.4625.5548.6101.8789h-3.6831c-1.0544 0-1.9182-.8159-1.9945-1.8508l-.0055-.1492v-3.6766Zm-2-.2691h-7.0469c-1.6568 0-3 1.3431-3 3v17c0 1.6569 1.3432 3 3 3h12c1.6569 0 3-1.3431 3-3V20.6957h-3.9531c-2.2091 0-4-1.7909-4-4V12.75Zm4.9531 12.5c0-.6904-.5372-1.25-1.2-1.25h-9.6l-.1227.0065c-.6051.064-1.0773.5963-1.0773 1.2435 0 .6904.5373 1.25 1.2 1.25h9.6l.1227-.0065c.6051-.064 1.0773-.5963 1.0773-1.2435Zm0 5c0-.6904-.5372-1.25-1.2-1.25h-9.6l-.1227.0065c-.6051.064-1.0773.5963-1.0773 1.2435 0 .6904.5373 1.25 1.2 1.25h9.6l.1227-.0065c.6051-.064 1.0773-.5963 1.0773-1.2435Z" clip-rule="evenodd"/></svg>