<svg xmlns="http://www.w3.org/2000/svg" fill="none" viewBox="0 0 49 49"><circle cx="24.6367" cy="24.25" r="24" fill="#EFF5FF"/><path fill="#0E68FF" fill-rule="evenodd" d="M30.9805 16.9375h.8437c.9281 0 1.6875.7594 1.6875 1.6875v13.5c0 .9281-.7594 1.6875-1.6875 1.6875h-13.5c-.9281 0-1.6875-.7594-1.6875-1.6875v-13.5c0-.9281.7594-1.6875 1.6875-1.6875h.8438v-.8437c0-.4641.3797-.8438.8437-.8438.4641 0 .8438.3797.8438.8438v.8437h8.4375v-.8437c0-.4641.3797-.8438.8437-.8438.4641 0 .8438.3797.8438.8438v.8437ZM19.168 32.125h11.8125c.464 0 .8437-.3797.8437-.8438v-10.125h-13.5v10.125c0 .4641.3797.8438.8438.8438Z" clip-rule="evenodd"/><path fill="#0E68FF" d="M30.9805 16.9375h-.3375v.3375h.3375v-.3375Zm-11.8125 0v.3375h.3375v-.3375h-.3375Zm1.6875 0h-.3375v.3375h.3375v-.3375Zm8.4375 0v.3375h.3375v-.3375h-.3375Zm2.5312 4.2187h.3375v-.3375h-.3375v.3375Zm-13.5 0v-.3375h-.3375v.3375h.3375Zm13.5-4.5562h-.8437v.675h.8437V16.6Zm2.025 2.025c0-1.1145-.9105-2.025-2.025-2.025v.675c.7417 0 1.35.6083 1.35 1.35h.675Zm0 13.5v-13.5h-.675v13.5h.675Zm-2.025 2.025c1.1145 0 2.025-.9105 2.025-2.025h-.675c0 .7417-.6083 1.35-1.35 1.35v.675Zm-13.5 0h13.5v-.675h-13.5v.675Zm-2.025-2.025c0 1.1145.9105 2.025 2.025 2.025v-.675c-.7417 0-1.35-.6083-1.35-1.35h-.675Zm0-13.5v13.5h.675v-13.5h-.675Zm2.025-2.025c-1.1145 0-2.025.9105-2.025 2.025h.675c0-.7417.6083-1.35 1.35-1.35V16.6Zm.8438 0h-.8438v.675h.8438V16.6Zm-.3375-.5062v.8437h.675v-.8437h-.675Zm1.1812-1.1813c-.6504 0-1.1812.5308-1.1812 1.1813h.675c0-.2777.2286-.5063.5062-.5063v-.675Zm1.1813 1.1813c0-.6505-.5308-1.1813-1.1813-1.1813v.675c.2777 0 .5063.2286.5063.5063h.675Zm0 .8437v-.8437h-.675v.8437h.675Zm8.1-.3375h-8.4375v.675h8.4375V16.6Zm-.3375-.5062v.8437h.675v-.8437h-.675Zm1.1812-1.1813c-.6504 0-1.1812.5308-1.1812 1.1813h.675c0-.2777.2286-.5063.5062-.5063v-.675Zm1.1813 1.1813c0-.6505-.5308-1.1813-1.1813-1.1813v.675c.2777 0 .5063.2286.5063.5063h.675Zm0 .8437v-.8437h-.675v.8437h.675Zm-.3375 14.85H19.168v.675h11.8125v-.675Zm.5062-.5063c0 .2777-.2286.5063-.5062.5063v.675c.6504 0 1.1812-.5308 1.1812-1.1813h-.675Zm0-10.125v10.125h.675v-10.125h-.675Zm-13.1625.3376h13.5v-.6751h-13.5v.6751Zm.3375 9.7874v-10.125h-.675v10.125h.675Zm.5063.5063c-.2777 0-.5063-.2286-.5063-.5063h-.675c0 .6505.5308 1.1813 1.1813 1.1813v-.675Z"/><path fill="#EFF5FF" fill-rule="evenodd" d="M31.734 35.7986c-.3616.4017-.8674.6125-1.3811.6125h-1.351c-1.035 0-1.871-.836-1.871-1.8711v-1.3509c0-.5008.1968-.9732.5496-1.326l6.0141-6.0141.1228-.1228c.8172-.8172 2.1412-.8172 2.9585 0l1.0398 1.0399c.8173.8172.8173 2.1412 0 2.9584l-1.289 1.289-4.7927 4.7851Zm4.9165-7.2405c.1733-.1733.1733-.4532 0-.6265l-1.0398-1.0399c-.1733-.1733-.4533-.1733-.6266 0l-.1228.1228 1.6665 1.6664.1227-.1228Zm-7.8045 4.4708 4.1577-4.1578 1.6661 1.6661-4.1619 4.1581c-.0399.0444-.0977.0666-.1555.0666h-1.3509c-.1244 0-.2222-.0977-.2222-.2221v-1.351c0-.0622.0222-.1155.0667-.1599Z" clip-rule="evenodd"/><path fill="#0E68FF" fill-rule="evenodd" d="M36.6496 27.9316c.1733.1733.1733.4532 0 .6265l-.8132.8133-1.6665-1.6665.8132-.8132c.1734-.1733.4533-.1733.6266 0l1.0399 1.0399Zm-7.8703 6.6072v-1.3509c0-.0622.0222-.1156.0667-.16l4.8482-4.8482 1.6664 1.6664-4.8527 4.8482c-.0399.0445-.0977.0667-.1555.0667h-1.3509c-.1244 0-.2222-.0978-.2222-.2222Z" clip-rule="evenodd"/></svg>