<svg xmlns="http://www.w3.org/2000/svg" fill="none" viewBox="0 0 49 49"><circle cx="24.6367" cy="24.25" r="24" fill="#EFF5FF"/><path fill="#0E68FF" fill-rule="evenodd" d="M30.9367 15.5144h.9c.99 0 1.8.81 1.8 1.8v14.4c0 .99-.81 1.8-1.8 1.8h-14.4c-.99 0-1.8-.81-1.8-1.8v-14.4c0-.99.81-1.8 1.8-1.8h.9v-.9c0-.495.405-.9.9-.9s.9.405.9.9v.9h9v-.9c0-.495.405-.9.9-.9s.9.405.9.9v.9ZM18.3375 31.7142h12.6c.495 0 .9-.405.9-.9v-10.8h-14.4v10.8c0 .495.405.9.9.9Z" clip-rule="evenodd"/><path fill="#0E68FF" d="M30.9367 15.5144h-.3375v.3375h.3375v-.3375Zm-12.6 0v.3375h.3375v-.3375h-.3375Zm1.8 0h-.3375v.3375h.3375v-.3375Zm9 0v.3375h.3375v-.3375h-.3375Zm2.7008 4.4998h.3375v-.3375h-.3375v.3375Zm-14.4 0v-.3375H17.1v.3375h.3375Zm14.3992-4.8373h-.9v.675h.9v-.675Zm2.1375 2.1375c0-1.1764-.9611-2.1375-2.1375-2.1375v.675c.8036 0 1.4625.6589 1.4625 1.4625h.675Zm0 14.4v-14.4h-.675v14.4h.675Zm-2.1375 2.1375c1.1764 0 2.1375-.9611 2.1375-2.1375h-.675c0 .8036-.6589 1.4625-1.4625 1.4625v.675Zm-14.4 0h14.4v-.675h-14.4v.675Zm-2.1375-2.1375c0 1.1764.9611 2.1375 2.1375 2.1375v-.675c-.8036 0-1.4625-.6589-1.4625-1.4625h-.675Zm0-14.4v14.4h.675v-14.4h-.675Zm2.1375-2.1375c-1.1764 0-2.1375.9611-2.1375 2.1375h.675c0-.8036.6589-1.4625 1.4625-1.4625v-.675Zm.9 0h-.9v.675h.9v-.675Zm-.3375-.5625v.9h.675v-.9h-.675Zm1.2375-1.2375c-.6814 0-1.2375.5561-1.2375 1.2375h.675c0-.3086.2539-.5625.5625-.5625v-.675Zm1.2375 1.2375c0-.6814-.5561-1.2375-1.2375-1.2375v.675c.3086 0 .5625.2539.5625.5625h.675Zm0 .9v-.9h-.675v.9h.675Zm8.6625-.3375h-9v.675h9v-.675Zm-.3375-.5625v.9h.675v-.9h-.675Zm1.2375-1.2375c-.6814 0-1.2375.5561-1.2375 1.2375h.675c0-.3086.2539-.5625.5625-.5625v-.675Zm1.2375 1.2375c0-.6814-.5561-1.2375-1.2375-1.2375v.675c.3086 0 .5625.2539.5625.5625h.675Zm0 .9v-.9h-.675v.9h.675Zm-.3367 15.8623h-12.6v.675h12.6v-.675Zm.5625-.5625c0 .3086-.2539.5625-.5625.5625v.675c.6814 0 1.2375-.5561 1.2375-1.2375H31.5Zm0-10.8v10.8h.675v-10.8H31.5Zm-14.0625.3375h14.4v-.675h-14.4v.675Zm.3375 10.4625v-10.8H17.1v10.8h.675Zm.5625.5625c-.3086 0-.5625-.2539-.5625-.5625H17.1c0 .6814.5561 1.2375 1.2375 1.2375v-.675Z"/></svg>