<svg xmlns="http://www.w3.org/2000/svg" fill="none" viewBox="0 0 49 49"><circle cx="24.6367" cy="24.25" r="24" fill="#EFF5FF"/><path fill="#0E68FF" fill-rule="evenodd" d="M28.4604 19.198c0 2.1963-1.779 3.9753-3.9753 3.9753-2.1964 0-3.9753-1.779-3.9753-3.9753 0-2.1964 1.7789-3.9753 3.9753-3.9753 2.1963 0 3.9753 1.7789 3.9753 3.9753Zm-11.9252 9.9384c0-2.6435 5.2971-3.9753 7.9506-3.9753 2.6535 0 7.9506 1.3318 7.9506 3.9753v.9939c0 .5466-.4472.9938-.9938.9938H17.529c-.5466 0-.9938-.4472-.9938-.9938v-.9939Z" clip-rule="evenodd"/><path fill="#0E68FF" fill-rule="evenodd" d="M37.0659 25.4482h-8.018c-.441 0-.8018.3834-.8018.8519 0 .4685.3608.8518.8018.8518h8.018c.441 0 .8018-.3833.8018-.8518s-.3608-.8519-.8018-.8519Zm0 3.0635h-8.018c-.441 0-.8018.3834-.8018.8519 0 .4685.3608.8518.8018.8518h8.018c.441 0 .8018-.3833.8018-.8518s-.3608-.8519-.8018-.8519Zm-3.2072 4.7663h-4.8108c-.441 0-.8018-.3834-.8018-.8519 0-.4685.3608-.8519.8018-.8519h4.8108c.441 0 .8018.3834.8018.8519 0 .4685-.3608.8519-.8018.8519Z" clip-rule="evenodd"/><path fill="#EFF5FF" fill-rule="evenodd" d="M27.4661 27.8317c-.3715.4023-.597.9441-.597 1.5315 0 .5873.2255 1.1292.597 1.5315-.3715.4023-.597.9441-.597 1.5315 0 1.2105.9577 2.2279 2.1779 2.2279h4.8108c1.2202 0 2.1779-1.0174 2.1779-2.2279 0-.2937-.0564-.5759-.1592-.8351h1.1885c1.2202 0 2.1779-1.0174 2.1779-2.2279 0-.5874-.2255-1.1292-.597-1.5315.3715-.4023.597-.9442.597-1.5315 0-1.2105-.9577-2.2279-2.1779-2.2279h-8.018c-1.2202 0-2.1779 1.0174-2.1779 2.2279 0 .5873.2255 1.1292.597 1.5315Zm1.5818 5.4464c-.441 0-.8018-.3833-.8018-.8518 0-.419.2886-.7699.6651-.8394.0451.0029.0907.0043.1367.0043h4.969c.3659.0786.6436.4241.6436.8351 0 .4685-.3608.8518-.8018.8518h-4.8108Zm8.018-3.0634c.441 0 .8018-.3834.8018-.8519 0-.419-.2886-.7699-.6651-.8394-.0451.0029-.0907.0043-.1367.0043h-8.018c-.046 0-.0916-.0014-.1367-.0043-.3765.0695-.6651.4204-.6651.8394 0 .419.2886.7699.6651.8394.0451-.0029.0907-.0043.1367-.0043h4.8108c.0914 0 .1813.0057.2694.0168h2.9378Zm0-3.0795h-8.018c-.046 0-.0916.0014-.1367.0043-.3765-.0695-.6651-.4204-.6651-.8394 0-.4685.3608-.8519.8018-.8519h8.018c.441 0 .8018.3834.8018.8519 0 .419-.2886.7699-.6651.8394-.0451-.0029-.0907-.0043-.1367-.0043Z" clip-rule="evenodd"/></svg>