<svg xmlns="http://www.w3.org/2000/svg" fill="none" viewBox="0 0 49 49"><circle cx="24.6367" cy="24.25" r="24" fill="#EFF5FF"/><path fill="#0E68FF" fill-rule="evenodd" d="M24.4686 17.0498c.6585 0 1.196.5181 1.227 1.169h1.2665c.5936 0 1.0749.4812 1.0749 1.0748 0 .5639-.4343 1.0265-.9867 1.0713l-.0882.0036h-3.0503c-.5907 0-1.1254.6352-1.1254 1.3594 0 .8225.4032 1.375 1.6826 1.375 1.1237 0 1.7502.0722 2.4641.427 1.0952.5444 1.7036 1.6115 1.7036 3.1274 0 1.8903-1.1489 2.9766-2.8716 3.3472-.0781.0168-.1542.0319-.2293.0454h.1615c0 .6784-.55 1.2284-1.2284 1.2284-.6409 0-1.1671-.4907-1.2235-1.1169l-1.2205.0005c-.5936 0-1.0749-.4812-1.0749-1.0748 0-.564.4343-1.0265.9867-1.0713l.0882-.0036h1.8869c.6248 0 .995-.022 1.4011-.1093.8257-.1776 1.1741-.5071 1.1741-1.2456 0-1.0163-.2997-1.3192-1.3689-1.3877l-.2411-.0112c-.1266-.0041-.2624-.0058-.408-.0058-2.6392 0-3.8323-1.6349-3.8323-3.5247 0-1.6339 1.1129-3.1368 2.6728-3.4497h-.0693c0-.6784.55-1.2284 1.2284-1.2284Z" clip-rule="evenodd"/><path fill="#0E68FF" fill-rule="evenodd" d="M37.6367 24.25c0-7.1797-5.8203-13-13-13s-13 5.8203-13 13 5.8203 13 13 13 13-5.8203 13-13Zm-23.75 0c0-5.9371 4.813-10.75 10.75-10.75 5.9371 0 10.75 4.8129 10.75 10.75S30.5738 35 24.6367 35c-5.937 0-10.75-4.8129-10.75-10.75Z" clip-rule="evenodd"/></svg>