<svg xmlns="http://www.w3.org/2000/svg" fill="none" viewBox="0 0 49 49"><circle cx="24.6367" cy="24.25" r="24" fill="#EFF5FF"/><path fill="#0E68FF" fill-rule="evenodd" d="M31.1156 22.5055v5.603l1.4456 1.4456c.7059.706.2017 1.9162-.7957 1.9162H17.0073c-.9974 0-1.4904-1.2102-.7844-1.9162l1.4455-1.4456v-5.603c0-3.4514 1.8266-6.3201 5.0427-7.0821v-.762c0-.9301.7508-1.6809 1.6809-1.6809s1.6809.7508 1.6809 1.6809v.762c3.2049.762 5.0427 3.6419 5.0427 7.0821Zm-4.4828 10.0853c0 1.2327-1.0086 2.2412-2.2412 2.2412-1.2439 0-2.2412-1.0085-2.2412-2.2412h4.4824Z" clip-rule="evenodd"/></svg>