<svg xmlns="http://www.w3.org/2000/svg" fill="none" viewBox="0 0 49 49"><circle cx="24.6367" cy="24.25" r="24" fill="#EFF5FF"/><path fill="#0E68FF" fill-rule="evenodd" d="m32.5505 27.5779-15.83-4.24c-.44-.12-.74-.51-.74-.97v-3.75c0-.33.31-.57.63-.48l.33.09c.31.08.55.3.67.59l.75 1.86 4.98 1.32v-6.88c0-.71.67-1.22 1.35-1.04.36.1.64.37.75.73l2.58 8.45 5.31 1.42c.8.22 1.27 1.04 1.06 1.84-.22.8-1.04 1.27-1.84 1.06ZM16.7109 30.728h17c.55 0 1 .45 1 1s-.45 1-1 1h-17c-.55 0-1-.45-1-1s.45-1 1-1Z" clip-rule="evenodd"/><path fill="#0E68FF" d="m16.7205 23.3379-.0987.3618.0016.0004.0971-.3622Zm15.83 4.24-.0971.3622.0019.0005.0952-.3627Zm-15.94-9.44-.1016.361.0029.0008.0987-.3618Zm.33.09-.0987.3618.005.0013.0937-.3631Zm.67.59.3478-.1403-.0013-.0031-.3465.1434Zm.75 1.86-.3478.1402.0702.1742.1815.0481.0961-.3625Zm4.98 1.32-.0961.3625.4711.1248v-.4873h-.375Zm1.35-7.92.1003-.3614-.0044-.0011-.0959.3625Zm.75.73.3586-.1095v-.0001l-.3586.1096Zm2.58 8.45-.3587.1095.0608.199.201.0538.0969-.3623Zm5.31 1.42.0994-.3616-.0026-.0007-.0968.3623Zm1.06 1.84.3616.0994.0011-.0042-.3627-.0952Zm-17.7671-2.8178 15.83 4.24.1941-.7244-15.83-4.24-.1941.7244Zm-1.0179-1.3322c0 .6295.4135 1.1674 1.0163 1.3318l.1973-.7236c-.2772-.0756-.4636-.3177-.4636-.6082h-.75Zm0-3.75v3.75h.75v-3.75h-.75Zm1.1065-.841c-.5635-.1585-1.1065.2669-1.1065.841h.75c0-.0859.0769-.1405.1534-.119l.2031-.722Zm.3271.0892-.33-.09-.1973.7236.33.09.1973-.7236Zm.9179.8084c-.1625-.3927-.4924-.6986-.9228-.8097l-.1874.7262c.1895.0489.3397.183.4172.3703l.693-.2868Zm.7513 1.8632-.75-1.86-.6956.2804.75 1.86.6956-.2804Zm4.7282 1.0977-4.98-1.32-.1921.725 4.98 1.32.1921-.725Zm-.471-6.5175v6.88h.75v-6.88h-.75Zm1.8209-1.4025c-.9167-.2427-1.8209.4451-1.8209 1.4025h.75c0-.4627.4357-.7948.879-.6775l.1919-.725Zm1.0127.9829c-.1478-.4836-.5259-.8477-1.0083-.9817l-.2007.7226c.2377.066.4195.2419.4917.4783l.7173-.2192Zm2.58 8.4501-2.58-8.45-.7173.219 2.58 8.45.7173-.219Zm5.0482 1.1672-5.31-1.42-.1937.7246 5.31 1.42.1937-.7246Zm1.3259 2.2975c.262-.9981-.3246-2.0222-1.3233-2.2968l-.1989.7232c.6014.1653.9548.7812.7968 1.3832l.7254.1904Zm-2.2979 1.3275c.998.262 2.0221-.3246 2.2967-1.3233l-.7231-.1988c-.1654.6013-.7813.9547-1.3832.7967l-.1904.7254Zm1.2556 2.4124h-17v.75h17v-.75Zm1.375 1.375c0-.7571-.6179-1.375-1.375-1.375v.75c.3429 0 .625.2821.625.625h.75Zm-1.375 1.375c.7571 0 1.375-.6179 1.375-1.375h-.75c0 .3429-.2821.625-.625.625v.75Zm-17 0h17v-.75h-17v.75Zm-1.375-1.375c0 .7571.6179 1.375 1.375 1.375v-.75c-.3429 0-.625-.2821-.625-.625h-.75Zm1.375-1.375c-.7571 0-1.375.6179-1.375 1.375h.75c0-.3429.2821-.625.625-.625v-.75Z"/></svg>