<svg xmlns="http://www.w3.org/2000/svg" fill="none" viewBox="0 0 49 49"><circle cx="24.6367" cy="24.25" r="24" fill="#EFF5FF"/><path fill="#0E68FF" fill-rule="evenodd" d="M20.5301 16.7052c-1.087-1.087-1.087-2.8567 0-3.9437 1.0869-1.0869 2.8567-1.0869 3.9436 0 1.087 1.087 1.087 2.8567 0 3.9437-1.1008 1.1009-2.8567 1.1009-3.9436 0Zm-1.5735 13.1446v-9.4359c0-.6488-.5307-1.1795-1.1795-1.1795-.6487 0-1.1794.5307-1.1794 1.1795v9.4359c0 3.2553 2.642 5.8974 5.8974 5.8974h5.8974c.6487 0 1.1795-.5308 1.1795-1.1795 0-.6487-.5308-1.1795-1.1795-1.1795h-5.8974c-1.958 0-3.5385-1.5805-3.5385-3.5384Zm9.5545-1.6283c1.2095 0 1.9295.6894 1.9295 2.243 0 1.5536-1.9295 1.806-1.9295 1.806l-4.8359-.0618c-1.958 0-3.5385-1.5805-3.5385-3.5384v-6.7821c0-1.4625 1.1913-2.6538 2.6539-2.6538h.0353c.4011 0 1.1319.1061 1.4739.2713.3067.1415.5898.342.8139.5897 0 0 .6723.7331.6723 4.2344v3.8917h2.7251Z" clip-rule="evenodd"/><path fill="#0E68FF" d="M35.1999 25.959h-4.0974c-.4627-.0074-.6976.5507-.3672.8811l1.3144 1.3144-4.4132 4.4132c-.4038.4038-.4038 1.0647 0 1.4686.4039.4039 1.0648.4039 1.4687 0l4.4131-4.4132 1.3144 1.3144c.3305.3305.8885.0955.8812-.3671V26.473c0-.2791-.235-.514-.514-.514Z"/><path fill="#EFF5FF" fill-rule="evenodd" d="m26.1687 31.0995 2.9505-2.9505c-1.4213-1.6614-.2452-4.3022 1.984-4.2665h4.0974c1.4261 0 2.5909 1.1648 2.5909 2.5909l-.0002 4.0644c.0358 2.2611-2.6049 3.4382-4.2663 2.017l-2.9505 2.9505c-1.215 1.215-3.1909 1.215-4.4058 0-1.215-1.2149-1.215-3.1908 0-4.4058Zm9.5452-4.6265c0-.2791-.235-.514-.514-.514h-4.0974c-.4627-.0074-.6976.5507-.3672.8811l1.3144 1.3144-4.4132 4.4132c-.4038.4038-.4038 1.0647 0 1.4686.4039.4039 1.0648.4039 1.4687 0l4.4131-4.4132 1.3144 1.3144c.3305.3305.8885.0955.8812-.3671V26.473Z" clip-rule="evenodd"/></svg>