<svg xmlns="http://www.w3.org/2000/svg" fill="none" viewBox="0 0 49 49"><circle cx="24.6367" cy="24.25" r="24" fill="#EFF5FF"/><path fill="#0E68FF" fill-rule="evenodd" d="M28.5209 18.698c0 2.1963-1.7789 3.9753-3.9753 3.9753-2.1963 0-3.9753-1.779-3.9753-3.9753 0-2.1964 1.779-3.9753 3.9753-3.9753 2.1964 0 3.9753 1.7789 3.9753 3.9753Zm-11.9252 9.9384c0-2.6435 5.2971-3.9753 7.9506-3.9753 2.6535 0 7.9506 1.3318 7.9506 3.9753v.9939c0 .5466-.4472.9938-.9938.9938H17.5895c-.5466 0-.9938-.4472-.9938-.9938v-.9939Z" clip-rule="evenodd"/><path fill="#EFF5FF" fill-rule="evenodd" d="M31.37 34.1176c-.4068.452-.9758.6891-1.5538.6891h-1.5198c-1.1645 0-2.105-.9405-2.105-2.105v-1.5198c0-.5633.2214-1.0947.6183-1.4916l6.7659-6.766.1382-.1381c.9194-.9194 2.4088-.9194 3.3282 0l1.1699 1.1699c.9194.9194.9194 2.4088 0 3.3282l-1.4501 1.4501-5.3918 5.3832Zm5.5296-8.1445c.1949-.195.1949-.5099 0-.7049l-1.1699-1.1698c-.1949-.195-.5099-.195-.7049 0l-.1381.1381 1.8748 1.8747.1381-.1381Zm-8.7777 5.0286 4.6774-4.6775 1.8744 1.8744-4.6821 4.6778c-.045.05-.11.075-.175.075h-1.5198c-.1399 0-.2499-.11-.2499-.2499v-1.5198c0-.07.025-.13.075-.18Z" clip-rule="evenodd"/><path fill="#0E68FF" fill-rule="evenodd" d="M36.9009 25.2682c.195.195.195.5099 0 .7049l-.9148.9149-1.8748-1.8747.9149-.9149c.195-.195.5099-.195.7049 0l1.1698 1.1698Zm-8.854 7.4346V31.183c0-.0699.025-.1299.075-.1799l5.4542-5.4543 1.8747 1.8748-5.4592 5.4542c-.045.05-.11.075-.175.075h-1.5198c-.1399 0-.2499-.11-.2499-.25Z" clip-rule="evenodd"/></svg>