<svg xmlns="http://www.w3.org/2000/svg" fill="none" viewBox="0 0 49 49"><circle cx="24.6367" cy="24.25" r="24" fill="#EFF5FF"/><path fill="#0E68FF" fill-rule="evenodd" d="M24.6367 37.25c7.1797 0 13-5.8203 13-13s-5.8203-13-13-13-13 5.8203-13 13 5.8203 13 13 13Zm1.0589-19.0312c-.031-.6509-.5685-1.169-1.227-1.169-.6784 0-1.2284.55-1.2284 1.2284h.0693c-1.5599.3129-2.6728 1.8158-2.6728 3.4497 0 1.8898 1.1931 3.5247 3.8323 3.5247.1456 0 .2814.0017.408.0058l.2411.0112c1.0692.0685 1.3689.3714 1.3689 1.3877 0 .7385-.3484 1.068-1.1741 1.2456-.4061.0873-.7763.1093-1.4011.1093h-1.8869l-.0882.0036c-.5524.0448-.9867.5073-.9867 1.0713 0 .5936.4813 1.0748 1.0749 1.0748l1.2205-.0005c.0564.6262.5826 1.1169 1.2235 1.1169.6784 0 1.2284-.55 1.2284-1.2284h-.1615c.0751-.0135.1512-.0286.2293-.0454 1.7227-.3706 2.8716-1.4569 2.8716-3.3472 0-1.5159-.6084-2.583-1.7036-3.1274-.7139-.3548-1.3404-.427-2.4641-.427-1.2794 0-1.6826-.5525-1.6826-1.375 0-.7242.5347-1.3594 1.1254-1.3594h3.0503l.0882-.0036c.5524-.0448.9867-.5074.9867-1.0713 0-.5936-.4813-1.0748-1.0749-1.0748h-1.2665Z" clip-rule="evenodd"/><path fill="#0E68FF" stroke="#EFF5FF" stroke-width="2" d="M32.5716 34.3082h.0274v-1 1H33.4034c.1045 0 .1763.009.2238.0194v2.1706l.0632.1692.9368-.3497c-.9368.3497-.9367.3502-.9365.3506l.0004.0009.0007.0019.0015.004.0033.0085.0078.0196c.0059.0142.0129.0306.0212.0489.0166.0366.0387.0817.0672.1325.056.0999.1421.2318.2672.3657.2612.2795.698.5671 1.3146.5671.6181 0 1.0553-.289 1.3164-.5729.1246-.1354.2097-.2688.2648-.3697.028-.0513.0497-.0969.0659-.1338.0081-.0185.015-.0351.0206-.0495l.0077-.0198.0032-.0086.0015-.004.0007-.0019.0003-.001c.0002-.0004.0003-.0009-.9409-.3385l.9412.3376.0588-.1637v-2.3424h-1c1 0 1-.0004 1-.0009v-.003l-.0001-.0049-.0001-.0123c-.0001-.0095-.0004-.0212-.0008-.0352-.0008-.0279-.0023-.0648-.0052-.1094-.0056-.0889-.0164-.2101-.0376-.3533-.0415-.2815-.1264-.6738-.306-1.0796-.18-.4067-.4707-.8611-.9404-1.2148-.4823-.3632-1.0932-.5743-1.8236-.5743H32.5716v-.3843c0-1.2277-1.4919-1.8671-2.3686-.9735l-2.1534 2.1534c-.5375.5374-.5375 1.418 0 1.9555l.7071-.7071-.7071.7071 2.1534 2.1534c.8767.8936 2.3686.2541 2.3686-.9736v-.3842Zm1.1363.0494c-.0006.0005-.006-.002-.0145-.0093.0109.0051.0151.0087.0145.0093Z"/></svg>