<svg width="24" height="25" viewBox="0 0 24 25" fill="none" xmlns="http://www.w3.org/2000/svg">
<g id="Filled=False">
<path id="Vector" fill-rule="evenodd" clip-rule="evenodd" d="M12 2.70508C6.5 2.70508 2 7.20508 2 12.7051C2 18.2051 6.5 22.7051 12 22.7051C17.5 22.7051 22 18.2051 22 12.7051C22 7.20508 17.5 2.70508 12 2.70508ZM12 20.7051C7.6 20.7051 4 17.1051 4 12.7051C4 8.30508 7.6 4.70508 12 4.70508C16.4 4.70508 20 8.30508 20 12.7051C20 17.1051 16.4 20.7051 12 20.7051ZM11 11.7051V7.70508H13V11.7051H17V13.7051H13V17.7051H11V13.7051H7V11.7051H11Z" fill="#AAAAAB"/>
</g>
</svg>
