<svg xmlns="http://www.w3.org/2000/svg" fill="none" viewBox="0 0 24 25"><path fill="#AAAAAB" fill-rule="evenodd" d="M12.7386.705078V2.70508c-1.1701 0-1.7386.43728-1.7386.87242 0 .40955.5036.82098 1.5384.86797l.2002.00445h1v3.16794h-2l-.0006-1.25878-.0322-.00587c-1.5565-.30405-2.61819-1.29884-2.70063-2.61017L9 3.5775C9 1.96188 10.4592.785673 12.523.709055l.2156-.003977ZM7.50045 3.77214C4.23763 5.41887 2 8.80066 2 12.7051c0 5.5228 4.47715 10 10 10 5.5228 0 10-4.4772 10-10 0-4.38939-2.828-8.11825-6.7614-9.46394v2.14659C18.0434 6.63098 20 9.43954 20 12.7051c0 4.4183-3.5817 8-8 8-4.41828 0-8-3.5817-8-8 0-2.96175 1.60944-5.54757 4.00144-6.9306-.29162-.54155-.46567-1.15119-.49649-1.80964l-.0045-.19272ZM16.7605 16.355l-1.5196-1.3003-.15.1649c-1.6479 1.7044-4.7773 1.654-6.32968-.1641l-1.52099 1.2987.16339.1832c2.44533 2.6259 7.01178 2.5581 9.35688-.1824ZM10 10.2051c0 .8284-.67157 1.5-1.5 1.5s-1.5-.6716-1.5-1.5c0-.82845.67157-1.50002 1.5-1.50002s1.5.67157 1.5 1.50002Zm5.5 1.5c.8284 0 1.5-.6716 1.5-1.5 0-.82845-.6716-1.50002-1.5-1.50002S14 9.37665 14 10.2051c0 .8284.6716 1.5 1.5 1.5Z" clip-rule="evenodd"/></svg>