<svg xmlns="http://www.w3.org/2000/svg" fill="none" viewBox="0 0 40 40"><g clip-path="url(#a)"><path fill="#0032A0" fill-rule="evenodd" d="M14.502 13.2168c.3099-1.2046 1.4034-2.0947 2.7048-2.0947h6.2835c1.3014 0 2.3949.8901 2.7048 2.0947h1.4839c1.1568 0 2.0945.9377 2.0945 2.0945V25.784c0 1.1567-.9377 2.0945-2.0945 2.0945H12.3191c-1.1567 0-2.0945-.9378-2.0945-2.0945V15.3113c0-1.1568.9378-2.0945 2.0945-2.0945h2.1829Zm10.4584 0h-9.2245c.051-.7248.6551-1.2969 1.3929-1.2969h6.4387c.7377 0 1.3419.5721 1.3929 1.2969Z" clip-rule="evenodd"/><mask id="b" width="20" height="17" x="10" y="11" maskUnits="userSpaceOnUse" style="mask-type:alpha"><path fill="#fff" fill-rule="evenodd" d="M14.502 13.2168c.3099-1.2046 1.4034-2.0947 2.7048-2.0947h6.2835c1.3014 0 2.3949.8901 2.7048 2.0947h1.4839c1.1568 0 2.0945.9377 2.0945 2.0945V25.784c0 1.1567-.9377 2.0945-2.0945 2.0945H12.3191c-1.1567 0-2.0945-.9378-2.0945-2.0945V15.3113c0-1.1568.9378-2.0945 2.0945-2.0945h2.1829Zm10.4584 0h-9.2245c.051-.7248.6551-1.2969 1.3929-1.2969h6.4387c.7377 0 1.3419.5721 1.3929 1.2969Z" clip-rule="evenodd"/></mask></g><defs><clipPath id="a"><path fill="#fff" d="M0 0h19.5489v16.7562H0z" transform="translate(10.2246 11.1221)"/></clipPath></defs></svg>