<svg xmlns="http://www.w3.org/2000/svg" fill="none" viewBox="0 0 40 40"><g clip-path="url(#a)"><path fill="#0032A0" fill-rule="evenodd" d="M17.2753 12.2454c0-.5325.4103-.9692.932-1.0111.1423.2436.4067.4073.7092.4073h2.1679c.3026 0 .5669-.1637.7092-.4073.5216.0421.9317.4787.9317 1.0111v4.8068h-5.45v-4.8068Zm-.8202 4.8068v-4.6133c0-1.0221.7558-1.8676 1.7391-2.0082.1388-.2565.4102-.4307.7223-.4307h2.1679c.3122 0 .5836.1742.7224.4307.9831.1408 1.7387.9863 1.7387 2.0082v4.6133h1.2736c.5602 0 1.0144.4542 1.0144 1.0144v10.6997c0 .5602-.4542 1.0144-1.0144 1.0144h-1.1505c-.1754.3033-.5033.5074-.8788.5074-.3756 0-.7034-.2041-.8788-.5074h-3.8205c-.1754.3033-.5033.5074-.8788.5074-.3756 0-.7035-.2041-.8788-.5074h-1.1505c-.5603 0-1.0144-.4542-1.0144-1.0144V18.0666c0-.5602.4541-1.0144 1.0144-1.0144h1.2727Z" clip-rule="evenodd"/></g><defs><clipPath id="a"><path fill="#fff" d="M0 0h12v20.2879H0z" transform="translate(14 10)"/></clipPath></defs></svg>