<svg xmlns="http://www.w3.org/2000/svg" fill="none" viewBox="0 0 40 40"><path fill="#0032A0" fill-rule="evenodd" d="M16.748 3.72182c0-.21447.1739-.38832.3884-.38832h5.7298c.2145 0 .3884.17385.3884.38832v.265h1.0484c.8578 0 1.5532.69542 1.5532 1.55328v3.8965h8.8111c1.1046 0 2 .8954 2 2v21.5492c0 1.1046-.8954 2-2 2h-5.8284c-.33.9792-1.2204 1.6808-2.2671 1.6808-1.0466 0-1.937-.7016-2.267-1.6808H15.376c-.33.9792-1.2204 1.6808-2.2671 1.6808-1.0466 0-1.937-.7016-2.267-1.6808H5.33398c-1.10456 0-2-.8954-2-2V11.4366c0-1.1046.89543-2 2-2h8.81052V5.5401c0-.85786.6955-1.55328 1.5533-1.55328h1.0502v-.265Zm7.8064 5.71478h-9.1091V6.06961c0-.42893.3477-.77664.7767-.77664h.526v.26498c0 .21447.1739.38832.3884.38832h5.7298c.2145 0 .3884-.17385.3884-.38832v-.26498h.5232c.4289 0 .7766.34771.7766.77664V9.4366Z" clip-rule="evenodd"/></svg>