<svg xmlns="http://www.w3.org/2000/svg" fill="none" viewBox="0 0 24 25"><path fill="#AAAAAB" fill-rule="evenodd" d="M14 1.70508c1.1046 0 2 .89543 2 2v5h1c1.1046 0 2 .89543 2 2.00002v10c0 1.1045-.8954 2-2 2h-.0854c-.2059.5826-.7615 1-1.4146 1-.6531 0-1.2087-.4174-1.4146-1H9.91465c-.20592.5826-.76154 1-1.41465 1s-1.20873-.4174-1.41465-1H7c-1.10457 0-2-.8955-2-2v-10c0-1.10459.89543-2.00002 2-2.00002h1v-5c0-1.10457.89543-2 2-2h4Zm1.5 19.00002H17v-10H7v10h8.5ZM10 8.70508h4v-5h-4v5Zm4.25 3.75002v6.5h-1.5v-6.5h1.5Zm-3 6.5v-6.5h-1.5v6.5h1.5Z" clip-rule="evenodd"/></svg>