<svg xmlns="http://www.w3.org/2000/svg" fill="none" viewBox="0 0 24 25"><path fill="#AAAAAB" fill-rule="evenodd" d="M10 1.70508h4c1.1046 0 2 .89543 2 2v1c2.2091 0 4 1.79086 4 4V19.7051c0 2.2091-1.7909 4-4 4H8c-2.20914 0-4-1.7909-4-4V8.70508c0-2.20914 1.79086-4 4-4v-1c0-1.10457.89543-2 2-2Zm4 2v1h-4v-1h4ZM6.5 19.7051v-5.2908c.46322.1875.96955.2908 1.5.2908h1.25v1.751c0 .9665.7835 1.75 1.75 1.75h2c.9665 0 1.75-.7835 1.75-1.75v-1.751H16c.5304 0 1.0368-.1033 1.5-.2908v5.2908l-.0069.1444c-.0727.7607-.7134 1.3556-1.4931 1.3556H8l-.14446-.0069C7.09489 21.1255 6.5 20.4848 6.5 19.7051Zm8.25-7.5H16c.7797 0 1.4204-.5949 1.4931-1.3556l.0069-.1444V8.70508c0-.7797-.5949-1.42045-1.3555-1.49314L16 7.20508h-1.25v5.00002Zm-5.5-5.00002H8c-.7797 0-1.42045.59489-1.49313 1.35554L6.5 8.70508v2.00002c0 .7797.59489 1.4204 1.35554 1.4931L8 12.2051h1.25V7.20508Zm1.5.00097h2.5v9.25025c0 .1381-.1119.25-.25.25h-2l-.0573-.0066c-.1105-.0259-.1927-.125-.1927-.2434V7.20605ZM12 14.7051c.5523 0 1-.4477 1-1s-.4477-1-1-1-1 .4477-1 1 .4477 1 1 1Z" clip-rule="evenodd"/></svg>