<svg xmlns="http://www.w3.org/2000/svg" fill="none" viewBox="0 0 24 25"><path fill="#AAAAAB" fill-rule="evenodd" d="M17 6.70508c0-1.10457-.8954-2-2-2H9c-1.10457 0-2 .89543-2 2v1.50586H5c-1.10457 0-2 .89543-2 1.99996v8c0 1.1046.89543 2 2 2h14c1.1046 0 2-.8954 2-2v-8c0-1.10453-.8954-1.99996-2-1.99996h-2V6.70508ZM9 8.21094h6V6.70508H9v1.50586ZM6.1542 10.2109h2.70212c.04746.0034.09537.0051.14368.0051h6c.0483 0 .0962-.0017.1437-.0051h2.6904l-2.3251 2.9988h-7.02l-2.3348-2.9988ZM5 11.9843v6.2266h14v-6.239l-2.2096 2.8507c-.1624.2095-.3999.3445-.6592.3788L16 15.21H8c-.26437 0-.51607-.1046-.7019-.2877l-.08718-.098L5 11.9843Z" clip-rule="evenodd"/></svg>