<svg xmlns="http://www.w3.org/2000/svg" fill="none" viewBox="0 0 24 25"><path fill="#AAAAAB" fill-rule="evenodd" d="M17.0008 3.70508c0-1.10457-.8954-2-2-2H9.00083c-1.10457 0-2 .89543-2 2v2h-2c-1.10457 0-2 .89543-2 2V19.9033L.794922 22.1092l1.131368 1.1314.00244-.0024-.01076-.0108L21.0199 4.12549l-1.1206-1.12061-2.7002 2.7002h-.1983v-2Zm3.6667 2.89409-1.6667 1.66668V20.7051H6.5616l-1.96012 1.9601c.12904.0262.26259.0399.39935.0399h.08535c.20592.5826.76154 1 1.41465 1s1.20873-.4174 1.41465-1h7.17072c.2059.5826.7615 1 1.4146 1 .6531 0 1.2088-.4174 1.4147-1h1.0853c1.1046 0 2-.8955 2-2V7.70508c0-.4089-.1227-.78915-.3333-1.10591Zm-9.4167 9.41673v1.8555h1.5v-3.3555l-1.5 1.5Zm3.5-3.5v5.3555h1.5v-6.8555l-1.5 1.5Zm-9.74997 5.3874 2.75-2.75v-4.6152h1.5v3.1152l1.99997-2v-1.1152h1.1153l2.833-2.83302H5.00083V17.9033ZM15.0008 5.70508H9.00083v-2h5.99997v2Z" clip-rule="evenodd"/></svg>