<svg xmlns="http://www.w3.org/2000/svg" fill="none" viewBox="0 0 24 25"><path fill="#AAAAAB" fill-rule="evenodd" d="M17 3.70508c0-1.10457-.8954-2-2-2H9c-1.10457 0-2 .89543-2 2v2H5c-1.10457 0-2 .89543-2 2V20.7051c0 1.1045.89543 2 2 2h.08535c.20592.5826.76154 1 1.41465 1s1.20873-.4174 1.41465-1h7.17075c.2059.5826.7615 1 1.4146 1 .6531 0 1.2087-.4174 1.4146-1H19c1.1046 0 2-.8955 2-2V7.70508c0-1.10457-.8954-2-2-2h-2v-2Zm2 17.00002H5V7.70508h14V20.7051ZM15 5.70508H9v-2h6v2ZM9.25 17.8714v-7.3333h-1.5v7.3333h1.5Zm3.5-7.3333v7.3333h-1.5v-7.3333h1.5Zm3.5 7.3333v-7.3333h-1.5v7.3333h1.5Z" clip-rule="evenodd"/></svg>