<svg xmlns="http://www.w3.org/2000/svg" fill="none" viewBox="0 0 24 25"><path fill="#AAAAAB" fill-rule="evenodd" d="M19.0996 5.60469c-3.9-3.9-10.29999-3.9-14.19999 0-3.900001 3.9-3.900001 10.30001 0 14.20001 3.9 3.9 10.19999 3.9 14.09999 0 4-3.9 4-10.30001.1-14.20001ZM17.6992 18.4043c-3.1 3.1-8.19998 3.1-11.29998 0-3.1-3.1-3.1-8.2 0-11.3 3.1-3.1 8.19998-3.1 11.29998 0 3.1 3.1 3.1 8.1 0 11.3Zm-5.7004-7.0994 2.8-2.80002 1.4 1.4-2.8 2.80002 2.8 2.8-1.4 1.4-2.8-2.8-2.79997 2.8-1.4-1.4 2.79997-2.8-2.79997-2.80002 1.4-1.4 2.79997 2.80002Z" clip-rule="evenodd"/></svg>