<svg xmlns="http://www.w3.org/2000/svg" fill="none" viewBox="0 0 24 25"><path fill="#AAAAAB" fill-rule="evenodd" d="M2.5 5.59043c0 .48897.37817.88536.84467.88536h2.13801l1.95849 9.23771c.17176.8101.85732 1.3865 1.64912 1.3865h9.64621c.4665 0 .8447-.3963.8447-.8853s-.3782-.8854-.8447-.8854H9.09029l-.18775-.8855h9.81356c.7918 0 1.4774-.5764 1.6491-1.3866l1.1099-5.23484c.0167-.07883.0251-.15933.0251-.24008 0-.61121-.4727-1.10669-1.0558-1.10669H7.21319l-.08139-.38392c-.17177-.81017-.85733-1.38659-1.64912-1.38659H3.34467c-.4665 0-.84467.39639-.84467.88535ZM7.5886 8.2463l.93853 4.4268H18.7161l.9385-4.4268H7.5886Zm1.8563 13.0838c.7775 0 1.4078-.6607 1.4078-1.4756 0-.8149-.6303-1.4756-1.4078-1.4756s-1.40779.6607-1.40779 1.4756c0 .8149.63029 1.4756 1.40779 1.4756Zm8.9156-1.4756c0 .8149-.6303 1.4756-1.4078 1.4756s-1.4078-.6607-1.4078-1.4756c0-.8149.6303-1.4756 1.4078-1.4756s1.4078.6607 1.4078 1.4756Z" clip-rule="evenodd"/></svg>