<svg xmlns="http://www.w3.org/2000/svg" fill="none" viewBox="0 0 24 25"><path fill="#AAAAAB" fill-rule="evenodd" d="M2 12.7051C2 7.20508 6.5 2.70508 12 2.70508s10 4.5 10 10.00002c0 5.5-4.5 10-10 10s-10-4.5-10-10Zm10.6112 4.4551v1.1614h-1.0521v-1.1278c-.7856-.1197-1.3848-.3722-1.79762-.7574-.41282-.3853-.71743-.98-.91382-1.7842l1.32264-.2581c.1804.5685.4008.9744.6613 1.2175.2726.2319.6353.3479 1.0882.3479.4409 0 .8096-.1328 1.1062-.3984.2926-.2618.4389-.6003.4389-1.0155 0-.3703-.1223-.6677-.3667-.8921-.1243-.1085-.3077-.231-.5501-.3675-.2425-.1366-.5521-.2852-.9289-.4461-.7776-.3254-1.2886-.6246-1.5331-.8977-.38874-.4077-.58313-.8958-.58313-1.4644 0-.2693.04609-.51992.13827-.75183.09219-.23191.22545-.44231.39976-.6312.1744-.1889.3898-.35254.6463-.49094.2565-.1384.5471-.24687.8718-.32542v-1.0997h1.0521v1.0997c.4729.07107.8597.21695 1.1603.43763.3006.22069.5872.5592.8597 1.01554l-1.1723.61152c-.3527-.59843-.8136-.89766-1.3828-.89766-.3527 0-.6453.09725-.8777.29175-.2325.19451-.3487.43761-.3487.72941 0 .2656.0941.4862.2825.662.1844.1721.5571.376 1.1183.6116.4849.2057.8857.3993 1.2024.5807.3166.1814.5551.3563.7154.5246.4529.4564.6794 1.0081.6794 1.6552 0 .6359-.2045 1.1969-.6133 1.6832-.4048.4825-.9459.8079-1.6232.9763Z" clip-rule="evenodd"/></svg>