<svg xmlns="http://www.w3.org/2000/svg" fill="none" viewBox="0 0 24 25"><path fill="#AAAAAB" fill-rule="evenodd" d="M12.2483 15.1641c1.4806 1.7958 4.0065 2.4398 6.2031 1.4802l2.222 3.8486c.0812.1406.261.1888.4016.1076l.8169-.4936c.1403-.081.1886-.2614.1076-.4016l-9.706-16.81133c-.081-.1403-.2613-.18861-.4016-.10761L11.075 3.28c-.1406.08118-.1888.26099-.1076.40161l2.222 3.84862c-2.1329 1.57253-2.7698 4.47347-1.5107 6.78937L6.81718 19.181H2v1h11v-1H8.2314l4.0169-4.0169Zm0 0 1.1053-1.1052-.7072-.7071-.9677.9678c.0218.0402.0442.0802.0672.12.1495.2588.3178.5006.5024.7245Z" clip-rule="evenodd"/></svg>