<svg xmlns="http://www.w3.org/2000/svg" fill="none" viewBox="0 0 24 25"><path fill="#AAAAAB" fill-rule="evenodd" d="M8.55247 4.70508h6.95863c1.0998 0 1.4889.95327 1.4889 2.11745V19.5285c0 1.1646-.3891 2.1178-1.4889 2.1178H8.55247C7.45296 21.6463 7 20.6931 7 19.5285V6.82253c0-1.16418.45296-2.11745 1.55247-2.11745ZM10.9999 18.4698c0 .5854.4473 1.0587.9999 1.0587.553 0 1.0003-.4733 1.0003-1.0587 0-.5854-.4473-1.0587-1.0003-1.0587-.5526 0-.9999.4733-.9999 1.0587ZM3.5 10.2051c0-.27616.22386-.50002.5-.50002h2.33333v7.00002H4c-.27614 0-.5-.2239-.5-.5v-6Zm16.4993-.50002H17.666v7.00002h2.3333c.2762 0 .5-.2239.5-.5v-6c0-.27616-.2238-.50002-.5-.50002Z" clip-rule="evenodd"/></svg>