<svg xmlns="http://www.w3.org/2000/svg" fill="none" viewBox="0 0 24 25"><path fill="#AAAAAB" d="M13.9446 5.70508c-1.9154 0-3.7586.80809-5.06749 2.21993-.56986-.2861-1.18123-.43073-1.81864-.43073-1.92981 0-3.57183 1.35042-3.97165 3.20062h-.01207c-.02859.1431-.0468.2901-.05887.4381l-.00614.0517h.00339c-.00593.086-.01313.172-.01313.2598 0 2.1058 1.70725 3.8129 3.81282 3.8129V14.167c-1.50353 0-2.72266-1.2183-2.72266-2.7225 0-.0931.01038-.1838.02012-.2742l.00868-.0589c.18932-1.3631 1.28838-2.39206 2.66506-2.39206.74944 0 1.4525.29477 1.97937.83054l.07115.072.0576-.08238c1.04675-1.48362 2.75126-2.36943 4.55906-2.36943 3.0759 0 5.5779 2.50263 5.5779 5.57833 0 2.988-2.3402 5.4326-5.328 5.5654h-3.0587v-4.0801H9.06282l-.0019 5.3017H13.883c.0203.0013.04.003.0616.003.0132 0 .0257-.003.0386-.003h.1145v-.0057c3.7423-.0824 6.7623-3.1462 6.7623-6.9082 0-3.81322-3.1015-6.91642-6.9154-6.91642"/></svg>