<svg xmlns="http://www.w3.org/2000/svg" fill="none" viewBox="0 0 24 25"><path fill="#AAAAAB" fill-rule="evenodd" d="M14 1.70508H4c-.6 0-1 .4-1 1V22.7051c0 .6.4 1 1 1h16c.6 0 1-.4 1-1V8.70508l-7-7Zm0 2.7998 4.2 4.2H14v-4.2Zm-9-.7998V21.7051h14v-11h-7V3.70508H5ZM17 17.7051v2H7v-2h10Zm0-2v-2H7v2h10Z" clip-rule="evenodd"/><mask id="a" width="18" height="23" x="3" y="1" maskUnits="userSpaceOnUse" style="mask-type:alpha"><path fill="#fff" fill-rule="evenodd" d="M14 1.70508H4c-.6 0-1 .4-1 1V22.7051c0 .6.4 1 1 1h16c.6 0 1-.4 1-1V8.70508l-7-7Zm0 2.7998 4.2 4.2H14v-4.2Zm-9-.7998V21.7051h14v-11h-7V3.70508H5ZM17 17.7051v2H7v-2h10Zm0-2v-2H7v2h10Z" clip-rule="evenodd"/></mask></svg>