<svg xmlns="http://www.w3.org/2000/svg" fill="none" viewBox="0 0 24 25"><path fill="#AAAAAB" fill-rule="evenodd" d="M4 1.70508h8v9.00002h9v12c0 .6-.4 1-1 1H4c-.6 0-1-.4-1-1V2.70508c0-.6.4-1 1-1ZM7 17.7051v2h10v-2H7Zm10-4v2H7v-2h10Zm-3-5.00002v-7l7 7h-7Z" clip-rule="evenodd"/><mask id="a" width="18" height="23" x="3" y="1" maskUnits="userSpaceOnUse" style="mask-type:alpha"><path fill="#fff" fill-rule="evenodd" d="M4 1.70508h8v9.00002h9v12c0 .6-.4 1-1 1H4c-.6 0-1-.4-1-1V2.70508c0-.6.4-1 1-1ZM7 17.7051v2h10v-2H7Zm10-4v2H7v-2h10Zm-3-5.00002v-7l7 7h-7Z" clip-rule="evenodd"/></mask></svg>