<svg xmlns="http://www.w3.org/2000/svg" fill="none" viewBox="0 0 32 33"><path fill="#AAAAAB" d="M14.5205 32.499S4 28.9296 4 20.5382s5.19765-8.955 8.5793-13.83957C15.9609 1.75147 15.8982.499023 15.8982.499023s2.6302 1.941297 4.321 6.199607c1.6908 4.25827 0 10.01957 0 10.01957s2.0039-1.002 3.319-2.8806c1.315-1.8787 1.9413-4.32096 1.9413-4.32096s3.3189 3.19376 3.3189 9.58116c0 9.1429-7.1389 13.4012-7.1389 13.4012s-4.3836-3.8826-5.7613-6.7006c-1.3777-2.7553-2.3796-6.1996-2.3796-6.1996s-1.9413 2.6928-1.9413 5.2603c.1252 5.0724 2.9432 7.6399 2.9432 7.6399Z"/></svg>