<svg xmlns="http://www.w3.org/2000/svg" fill="none" viewBox="0 0 24 25"><path fill="#AAAAAB" fill-rule="evenodd" d="M9.29184 5.93592c-.28528-.21495-.66375-.28575-1.01863-.18717l-.12102.04069-.11282.05166c-.5807.30361-.82027 1.04504-.47856 1.6406l2.33563 4.0465-3.074.823-1.02894-.8129-.11044-.0748c-.26481-.1587-.57657-.2062-.87569-.129l-.25247.0688-.09204.0295c-.41339.1636-.59633.6766-.35483 1.0744l1.40594 2.4306.06968.1047c.27383.3664.74269.5373 1.18786.4234l11.86919-3.1811.1378-.045c.7165-.2714 1.1276-1.0409.9303-1.7924l-.045-.138-.0566-.1307c-.3111-.63434-1.0311-.97897-1.7363-.79384l-3.7845 1.01134-4.69217-4.37297-.10239-.08731ZM19.293 18.3125c0-.6196-.5054-1.125-1.125-1.125H5.41797l-.12228.0066c-.56247.0613-1.00272.5401-1.00272 1.1184 0 .6196.50539 1.125 1.125 1.125H18.168l.1223-.0066c.5624-.0613 1.0027-.5401 1.0027-1.1184Z" clip-rule="evenodd"/></svg>