<svg xmlns="http://www.w3.org/2000/svg" fill="none" viewBox="0 0 24 25"><path fill="#AAAAAB" fill-rule="evenodd" d="M9.28276 18.8572H7.70352l2.43118-6.343H5.79173l-1.2987 1.5609H3.30859l.9896-2.7629-.9896-2.77717 1.18444.00251 1.2987 1.58846 4.34297.0092-2.43118-6.34809 1.57924.00334L13.688 10.1427l4.3429.0092c.6554.0014 1.2227.5338 1.2701 1.192.0474.6582-.6147 1.1883-1.2701 1.187H13.688l-4.40524 6.3263Zm5.03754-3.8381c-1.7594 1.7594-1.7594 4.6466 0 6.406 1.7594 1.7594 4.6015 1.7594 6.3609 0 1.7594-1.7594 1.7594-4.6015 0-6.3609-1.7143-1.8045-4.6015-1.8045-6.3609-.0451Zm4.4653 1.3081.6316.6316-1.2632 1.2632 1.2632 1.2631-.6316.6316-1.2631-1.2632-1.2632 1.2632-.6316-.6316 1.2632-1.2631-1.2632-1.2632.6316-.6316 1.2632 1.2632 1.2631-1.2632Z" clip-rule="evenodd"/></svg>