<svg xmlns="http://www.w3.org/2000/svg" fill="none" viewBox="0 0 24 25"><path fill="#AAAAAB" fill-rule="evenodd" d="M11.9724 5.26798c-.1396-.32879-.4319-.57934-.7886-.67141l-.1251-.02527-.1236-.01167c-.6547-.02742-1.23286.49489-1.2347 1.18152l-.00054 4.67215-3.07366-.82424-.48464-1.21846-.05825-.11999c-.14997-.26985-.39621-.46688-.69385-.54959l-.25305-.06663-.09447-.02045c-.43979-.06506-.85475.28779-.84449.75302l.00226 2.80794.008.1255c.05397.4542.37457.8366.81704.9606l11.86955 3.1797.1418.03c.7563.1231 1.497-.3378 1.7019-1.0872l.03-.142.0163-.1415c.0478-.7049-.4034-1.3633-1.1067-1.5556l-3.7831-1.0164-1.8771-6.13322-.045-.1268ZM19.294 18.3128c0-.6196-.5054-1.125-1.125-1.125H5.41902l-.12229.0066c-.56246.0613-1.00271.5401-1.00271 1.1184 0 .6196.50539 1.125 1.125 1.125H18.169l.1223-.0067c.5625-.0612 1.0027-.54 1.0027-1.1183Z" clip-rule="evenodd"/></svg>