<svg xmlns="http://www.w3.org/2000/svg" fill="none" viewBox="0 0 32 33"><path fill="#AAAAAB" fill-rule="evenodd" d="M24.127 1.40043c0 .49784.4035.90141.9014.90141.4978 0 .9014-.40357.9014-.90141 0-.497832-.4036-.901407-.9014-.901407-.4979 0-.9014.403575-.9014.901407Zm-11.7178.90133h3.6057c.4978 0 .9014.40357.9014.90141v2.70422h-5.4085V3.20317c0-.49784.4036-.90141.9014-.90141ZM7 31.5976V13.1187c0-.4978.40357-.9014.90141-.9014H20.5211c.4979 0 .9014.4036.9014.9014v18.4789c0 .4978-.4035.9014-.9014.9014H7.90141C7.40357 32.499 7 32.0954 7 31.5976Zm3.1553-24.33783h8.1127c.4978 0 .9014.40357.9014.9014v2.70423H9.25391V8.16117c0-.49783.40357-.9014.90139-.9014ZM24.127 4.55522c0 .49783.4035.90141.9014.90141.4978 0 .9014-.40358.9014-.90141 0-.49784-.4036-.90141-.9014-.90141-.4979 0-.9014.40357-.9014.90141Zm.9014 4.05668c-.4979 0-.9014-.40358-.9014-.90141 0-.49783.4035-.90141.9014-.90141.4978 0 .9014.40358.9014.90141 0 .49783-.4036.90141-.9014.90141Zm-3.6065-2.70463c0 .49783.4035.90141.9014.90141.4978 0 .9014-.40358.9014-.90141 0-.49784-.4036-.90141-.9014-.90141-.4979 0-.9014.40357-.9014.90141Zm-1.8017-.90133c-.4979 0-.9014-.40357-.9014-.90141 0-.49783.4035-.90141.9014-.90141.4978 0 .9014.40358.9014.90141 0 .49784-.4036.90141-.9014.90141Zm1.8017-2.25346c0 .49784.4035.90141.9014.90141.4978 0 .9014-.40357.9014-.90141 0-.49783-.4036-.90141-.9014-.90141-.4979 0-.9014.40358-.9014.90141Z" clip-rule="evenodd"/></svg>