<svg xmlns="http://www.w3.org/2000/svg" fill="none" viewBox="0 0 24 25"><path fill="#AAAAAB" fill-rule="evenodd" d="M20 5.91936c0-.72857-.4-1.21428-1-1.21428H9c-.6 0-1 .48571-1 1.21428V9.4639c.44115-.11928.93435-.06874 1.3775.20822L10 10.0612V6.70508h8V21.7051h2V5.91936ZM10 11.8301v4.75l-1.4175.8859c-.16651.1041-.3825-.0156-.3825-.212v-1.5489H8v-3h.2v-1.549c0-.1963.21599-.3161.3825-.212l1.4175.886Zm-2 7.1161c.44115.1193.93435.0688 1.3775-.2082L10 18.3489v3.3562H8v-2.7589Z" clip-rule="evenodd"/><path fill="#AAAAAB" fill-rule="evenodd" d="M13.4616 14.4166c.1566-.0979.1566-.3261 0-.424l-4.87832-3.0489c-.16651-.1041-.3825.0156-.3825.212v1.5489H4.5c-.27614 0-.5.2239-.5.5v2c0 .2762.22386.5.5.5h3.70078v1.5489c0 .1964.21599.3161.3825.212l4.87832-3.0489Z" clip-rule="evenodd"/></svg>