<svg xmlns="http://www.w3.org/2000/svg" fill="none" viewBox="0 0 24 25"><path fill="#AAAAAB" fill-rule="evenodd" d="m17.892 7.30877.0616.06161.0088.016c2.7205 3.02372 2.7205 7.61342 0 10.63722l-.0088.016-.0616.0616c-.152.1672-.3113.3281-.4769.4801l-.1192.1072c-.1688.1488-.3457.2905-.5273.4265l-.112.0832c-.1937.1384-.3929.2688-.5985.3913l-.0849.0528c-.2216.1264-.4488.2432-.6833.3496l-.044.0208c-.2472.1113-.5017.2097-.7593.2937l-.0096.004c-.2625.0864-.5297.1584-.8002.216h-.0056c-.2592.0561-.5225.0977-.7897.1281l-.04.0056c-.5585.06-1.1219.06-1.6796 0l-.04-.0056c-.2672-.0304-.5313-.0728-.7897-.1281h-.0064c-.2705-.0576-.53771-.1296-.80016-.216l-.00961-.004c-.25764-.084-.51129-.1824-.75934-.2937l-.04401-.0208c-.23364-.1056-.46168-.2232-.68332-.3496l-.08402-.0528c-.20644-.1225-.40648-.2521-.59931-.3913l-.11122-.0832c-.18164-.1344-.35847-.2761-.5281-.4265l-.11842-.1072c-.16564-.1536-.32487-.3137-.47689-.4801l-.06242-.0616-.008-.016c-2.72131-3.0238-2.72131-7.6135 0-10.63722l.008-.016.06242-.06161c.15202-.16723.31125-.32727.47689-.48009l.11842-.10722c.16963-.14803.34646-.29046.5281-.42648l.11122-.08242c.19363-.13923.39287-.26885.59931-.39127l.08402-.05281c.22164-.12643.44968-.24405.68412-.34967l.04321-.0216c.24725-.11042.5017-.20964.75934-.29446l.00961-.0032c.26245-.08561.52966-.15843.80016-.21604h.0064c.2584-.05601.5225-.09762.7897-.12722l.04-.0056c.5577-.06081 1.1211-.06081 1.6796 0l.04.0056c.2672.0304.5305.07201.7897.12722h.0056c.2705.05761.5377.13043.8002.21604l.0096.0032c.2576.08482.5121.18404.7601.29446l.0424.0208c.2345.10562.4625.22324.6841.35047l.0849.05281c.2056.12162.4056.25124.5985.39127l.112.08242c.1816.13442.3585.27685.5273.42648l.1192.10722c.1656.15363.3241.31366.4769.48009Zm-3.4685.91608c-.5017-1.23543-1.1842-2.05958-1.8883-2.34204v2.54288c.6337-.0224 1.2642-.08962 1.8883-.20084Zm1.8314 3.94745c-.0296-1.0698-.1833-2.1324-.4561-3.16698.5577-.15603 1.1018-.36087 1.6235-.61372.8642 1.0826 1.3819 2.3989 1.4867 3.7807h-2.6541Zm1.1674 4.8463c-.5217-.2521-1.0658-.4577-1.6235-.6137.2729-1.0346.4265-2.0972.4561-3.1662h2.6541c-.1048 1.381-.6225 2.6981-1.4867 3.7799Zm-1.2226 1.194c.1424-.1096.2809-.224.4169-.3457l.036-.0344c-.3857-.1632-.7826-.3-1.1874-.4096-.2273.6097-.5321 1.1882-.9066 1.7203.1536-.0616.3065-.1289.4561-.2025l.0992-.048c.1592-.08.3153-.168.4681-.26l.0896-.0536c.1512-.096.2993-.1977.4433-.3041l.0848-.0624Zm-3.6645-2.2925V13.2388h2.6533c-.0273.9882-.1689 1.9699-.4217 2.9261-.7362-.14-1.4827-.2216-2.2316-.2448Zm0 1.0643v2.5429c.7041-.2825 1.3866-1.1067 1.8883-2.3421-.6241-.1112-1.2546-.1784-1.8883-.2008Zm0-7.49346c.7489-.024 1.4954-.10562 2.2316-.24485.2528.95541.3944 1.93801.4217 2.92611h-2.6533V9.49094Zm2.4795-3.02233.0984.04961c.16.08001.3152.16803.4673.26005l.0904.05281c.1512.09521.3.19603.4433.30405l.0848.06242c.1416.10962.2808.22404.4169.34486l.0368.03441c-.3857.16323-.7826.30005-1.1875.41047-.2272-.61051-.5313-1.18902-.9065-1.72112.1544.06161.3064.12963.4561.20244ZM9.58005 8.22494c.62415.11122 1.25545.17843 1.88915.20084V5.8829c-.7049.28245-1.3875 1.10661-1.88915 2.34204Zm1.88855 1.2676v2.67966H8.81445c.02721-.9881.16883-1.9707.42168-2.92611.73614.13923 1.48267.22085 2.23247.24485v.0016ZM9.23613 16.1649c.73614-.14 1.48267-.2216 2.23247-.2448v-2.6813H8.81445c.02721.9882.16883 1.9699.42168 2.9261Zm2.23307 3.3624c-.7049-.2825-1.3875-1.1067-1.88915-2.3421.62415-.1112 1.25545-.1784 1.88915-.2008v2.5429Zm-2.57809-.6354.09842.0488c.14963.0728.30166.1409.45609.2025-.37447-.5321-.67853-1.1106-.90657-1.7203-.40408.1096-.80175.2464-1.18743.4096l.03681.0344c.13603.1209.27445.2353.41608.3449l.08481.0632c.14483.1064.29286.2081.44489.3033l.08881.0536c.15203.0928.30806.1808.46809.26Zm-2.30873-1.8732c-.86336-1.0818-1.38186-2.3989-1.48668-3.7799H7.749c.02961 1.069.18404 2.1316.45689 3.1662-.55771.156-1.10181.3616-1.62351.6137Zm1.62351-8.01338c-.55771-.15603-1.10181-.36087-1.62351-.61372-.86336 1.0826-1.38186 2.3989-1.48668 3.7807H7.749c.02961-1.0698.18404-2.1324.45689-3.16698Zm-.81745-1.46211c.13522-.12082.27445-.23524.41607-.34486l.08482-.06322c.14483-.10642.29205-.20804.44408-.30325l.09042-.05281c.15203-.09282.30806-.18084.46729-.26085l.09922-.04721c.14882-.07361.30165-.14083.45608-.20244-.37527.5321-.67933 1.11061-.90737 1.72032-.40407-.10962-.80095-.24644-1.18742-.40967l.03681-.03601Z" clip-rule="evenodd"/></svg>