<svg xmlns="http://www.w3.org/2000/svg" fill="none" viewBox="0 0 24 25"><path fill="#AAAAAB" fill-rule="evenodd" d="M14.7732 4.06345c-2.351-.37901-5.03615.6403-5.73203 1.95139-.01297.02444-.02708.04958-.04117.07401v2.9463H7V5.96713c0-.32565.08569-.56396.23586-.82363l.03872-.0663c1.1393-2.14652 4.68632-3.49296 7.81692-2.98825 3.8273.61701 6.2896 3.67673 6.2896 8.83015 0 4.3551-2.2444 7.6167-6.7842 11.5629-.1819.1582-.4149.2453-.656.2453h-3.5283v-2h3.1523c3.9471-3.4827 5.8162-6.2794 5.8162-9.8082 0-4.19447-1.7739-6.39876-4.6079-6.85565Zm-1.0267 3.53916c-.7934-.00408-1.3451.43616-1.352 1.14273v4.30206c2.8491.7037 2.5991 5.4169-.75 5.4169h-.75v-1.5h.75c1.6193 0 1.6193-2.5043 0-2.5043-.4142 0-.75-.3358-.75-.75l.0001-4.97188c.0155-1.61728 1.3017-2.64351 2.8597-2.63549 1.5564.00802 2.8304 1.04657 2.8117 2.65145l-.0087.74995-1.4999-.01748.0087-.74995c.0081-.69036-.5312-1.12993-1.3196-1.13399ZM6.4668 12.2326c1.95828 1.9798 1.96277 5.9924.00425 7.9409l1.05794 1.0633c2.54701-2.534 2.54151-7.4939.00425-10.0591L6.4668 12.2326Zm-2.19336 5.9385c1.22391-1.2079 1.22331-2.7727.0028-3.9647l1.04804-1.0731c1.82201 1.7794 1.82297 4.3091.0028 6.1055l-1.05364-1.0677Z" clip-rule="evenodd"/></svg>