<svg xmlns="http://www.w3.org/2000/svg" fill="none" viewBox="0 0 24 25"><path fill="#AAAAAB" fill-rule="evenodd" d="M3.5039 13.8521c-2.00405-2.1014-2.00635-5.472 0-7.57167 1.00317-1.04985 2.32214-1.57548 3.6429-1.57548s2.64637.32229 3.6496 1.37214l1.2032 1.15518 1.2032-1.14853c2.0064-2.09974 5.2861-1.89635 7.2924.20334 2.0064 2.0997 2.0064 5.47192 0 7.57162-1.3589 1.4222-2.7176 2.8453-4.0763 4.2683-1.3711 1.436-2.7422 2.872-4.1135 4.3072-.0804.0849-.1922.1331-.3091.1331-.117 0-.2288-.0482-.3092-.1331l-8.1832-8.5821Zm6.9233-5.9658c-.73017-.76943-1.67457-1.30487-2.61741-1.30487-.94283 0-2.08543.17834-2.81554.94777-1.46023 1.53882-1.25522 4.2279.20393 5.7686l6.80172 6.9097c1.1338-1.1949 2.2673-2.3234 3.4007-3.4519 1.1335-1.1285 2.2671-2.2571 3.401-3.4521 1.4602-1.5388 1.6497-4.23544.1895-5.7743-1.4602-1.53886-3.9583-1.17023-5.4185.36866l-1.3029 1.36985c-.0694.07388-.166.11574-.267.11574-.1009 0-.1975-.04186-.2669-.11574L10.4272 7.8863Z" clip-rule="evenodd"/></svg>