<svg xmlns="http://www.w3.org/2000/svg" fill="none" viewBox="0 0 24 25"><path fill="#AAAAAB" fill-rule="evenodd" d="M2 12.7051C2 7.20508 6.5 2.70508 12 2.70508s10 4.5 10 10.00002c0 5.5-4.5 10-10 10s-10-4.5-10-10Zm2 0c0 4.4 3.6 8 8 8s8-3.6 8-8c0-4.40002-3.6-8.00002-8-8.00002s-8 3.6-8 8.00002Zm9 5c0 .5523-.4477 1-1 1s-1-.4477-1-1 .4477-1 1-1 1 .4477 1 1Zm-5-7c0-2.20002 1.8-4.00002 4-4.00002s4 1.8 4 4.00002c0 1.2899-.7987 1.9941-1.5719 2.6759C13.7028 14.0205 13 14.6402 13 15.7051h-2c0-1.7872.9357-2.5138 1.762-3.1555.6532-.5073 1.238-.9615 1.238-1.8445 0-1.10002-.9-2.00002-2-2.00002s-2 .9-2 2.00002H8Z" clip-rule="evenodd"/></svg>