<svg xmlns="http://www.w3.org/2000/svg" fill="none" viewBox="0 0 24 25"><path fill="#AAAAAB" fill-rule="evenodd" d="M12 2.70508c-5.5 0-10 4.5-10 10.00002 0 5.5 4.5 10 10 10s10-4.5 10-10c0-5.50002-4.5-10.00002-10-10.00002Zm0 16.00002c-.6 0-1-.4-1-1s.4-1 1-1 1 .4 1 1-.4 1-1 1Zm-1-3h2c0-1.0649.7028-1.6846 1.4281-2.3241C15.2013 12.6992 16 11.995 16 10.7051c0-2.20002-1.8-4.00002-4-4.00002s-4 1.8-4 4.00002h2c0-1.10002.9-2.00002 2-2.00002s2 .9 2 2.00002c0 .883-.5848 1.3372-1.238 1.8445-.8263.6417-1.762 1.3683-1.762 3.1555Z" clip-rule="evenodd"/></svg>