<svg xmlns="http://www.w3.org/2000/svg" fill="none" viewBox="0 0 24 25"><path fill="#AAAAAB" fill-rule="evenodd" d="M10.4019 7.34317 8.955 6.51562c3.5897-1.52454 7.8169-.1986 9.844 3.3124 2.1677 3.75458.8813 8.55558-2.8733 10.72328-3.7134 2.144-8.45043.9091-10.65105-2.7507-.01205-.02-.53975-.9051-.71175-2.3753-.09086-.7301-.03082-1.4424-.00738-1.7205.00626-.0743.00991-.1176.00738-.122 0 0-1.98449-.91-1.96547-.8771.00148.0026-.00431.0522-.01455.1398-.05375.4595-.22989 1.9658-.11944 3.2201.1315 1.4934.7947 2.844.80464 2.8608 2.82951 4.7787 8.98592 6.4006 13.80762 3.6168 4.8547-2.8029 6.518-9.0105 3.7152-13.86518-2.4897-4.31215-7.6681-6.10842-12.19876-4.48747l.64621-1.11926-1.73205-1-2.56742 4.4469.00328.0019-.00191.00331 4.44691 2.56742 1.01474-1.74765Zm2.5972 2.14377v4.06726l3.3302 1.9227-1 1.732-4.3302-2.5.0009-.0016h-.0009V9.48694h2Z" clip-rule="evenodd"/></svg>