<svg xmlns="http://www.w3.org/2000/svg" fill="none" viewBox="0 0 24 25"><path fill="#AAAAAB" fill-rule="evenodd" d="M6 3.40527h3v2h6v-2h3v2h3v6.68323l-2.4441-2.44408-.1139-.10297c-.5892-.48053-1.4583-.44621-2.0074.10297l-.2609.26085H5.5V19.9053h3.3818l2.5 2.5H4c-.55228 0-1-.4477-1-1V5.40527h3v-2ZM18.5559 18.7753 21 16.3312v5.0741c0 .5523-.4477 1-1 1h-6.3723l.7583-.7583.103-.1139.0974-.1339c.2673-.4138.3103-.9304.1291-1.3773l-.0095-.0198 1.6787.0006.1426-.0067c.1362-.0129.2671-.0439.3903-.0907H18.5v-1.0769c.019-.0171.0376-.0348.0559-.0531Zm-7.5529 1.13L9 17.9022l3.5048-3.5047.8205.8205-2.1237 2.125 5.183-.0007v1.1605l-5.143.0002 1.4025 1.4023.6812.6811-.8205.8206-1.5018-1.5017Zm9.9968-5.6955L18.5 16.7097l-1.0049 1.0049-.8206-.8205L18.5 15.0675l.2982-.2984H18.5l-4.8848.0006v-1.1604l4.8848-.0002h.2582l-.2582-.2582-1.8255-1.8253.8206-.8205L18.5 11.71l2.4998 2.4998Z" clip-rule="evenodd"/></svg>