<svg xmlns="http://www.w3.org/2000/svg" fill="none" viewBox="0 0 24 25"><path fill="#AAAAAB" fill-rule="evenodd" d="M20.3779 3.47461H3.77544c-.78063 0-1.39458.66327-1.39458 1.44327V22.291c0 .539.25483.796.59579.796.34096 0 .66707-.1269 1.02242-.4615.23691-.223 1.35913-1.2523 3.36668-3.0879H20.3779c.7542 0 1.3956-.6349 1.3956-1.4433V4.91788c0-.80836-.614-1.44327-1.3956-1.44327Zm-.6044 2V17.5376H7.36575c-.4995 0-.98093.1869-1.34958.524-.63351.5792-1.17826 1.0776-1.63531 1.4962V5.47461H19.7735ZM11.562 8.00488h1.3664l2.5715 6.87952h-1.4708l-.4839-1.3948h-2.6759l-.484 1.3948H8.99994L11.562 8.00488Zm1.5936 4.37402-.9489-2.71386-.9489 2.71386h1.8978Z" clip-rule="evenodd"/></svg>