<svg xmlns="http://www.w3.org/2000/svg" fill="none" viewBox="0 0 24 25"><path fill="#AAAAAB" fill-rule="evenodd" d="M3.77544 3.47461H20.3779c.7816 0 1.3956.63491 1.3956 1.44327V18.0943c0 .8084-.6414 1.4433-1.3956 1.4433H7.36575s-3.01132 2.7534-3.36668 3.0879c-.35535.3346-.68146.4615-1.02242.4615-.34096 0-.59579-.257-.59579-.796V4.91788c0-.78.61395-1.44327 1.39458-1.44327ZM11.562 8.00488h1.3664l2.5715 6.87952h-1.4708l-.4839-1.3948h-2.6759l-.484 1.3948H8.99994L11.562 8.00488Zm1.5936 4.37402-.9489-2.71386-.9489 2.71386h1.8978Z" clip-rule="evenodd"/></svg>