<svg xmlns="http://www.w3.org/2000/svg" fill="none" viewBox="0 0 25 25"><path fill="#AAAAAB" fill-rule="evenodd" d="m18.697 16.7188-3.6603-5.2053c-.4036-.9998-1.2044-2.05308-2.6985-1.94859L8.86362 9.2075 8.024 6.70489l-4.74339.33169.87087 3.19242c.40103 1.8155 1.28271 2.8615 3.29865 2.7205h4.93317l3.7438 4.4305c.9348 2.1208.9593 2.1309 1.8843 2.0662l3.0657-1.2856c.3788-.3255.2047-.5346.0276-.7473l-.0276-.0333c-.3813-.4626-.6313-.4743-1.1182-.4971-.301-.0141-.6926-.0324-1.2619-.1641Zm-7.6866-2.9501H3.46193v2.3307h6.82567l3.1425 2.9684c1.0228.8891 2.5518-.8699 1.5291-1.759l-3.0694-2.9878c-.1575-.319-.4506-.5523-.8794-.5523Z" clip-rule="evenodd"/></svg>