<svg xmlns="http://www.w3.org/2000/svg" fill="none" viewBox="0 0 24 25"><path fill="#AAAAAB" fill-rule="evenodd" d="M12 13.5858c2.6959 0 4.9615-2.0256 5.262-4.70472h4.444c.1624 0 .294-.13163.294-.294v-.588c0-.162-.132-.294-.294-.294H2.294c-.162 0-.294.132-.294.294v.588c0 .16237.13163.294.294.294h4.444C7.03852 11.5602 9.30405 13.5858 12 13.5858Zm-.2939 2.3541c-.163 0-.294.132-.294.294V18.5869c0 .1624.1316.294.294.294h.588c.1624 0 .294-.1316.294-.294v-2.353c0-.162-.131-.294-.294-.294h-.588Zm-3.1667-.4757-1.177 2.038c-.08104.1404-.26042.1887-.401.108l-.51-.294c-.06753-.0391-.11675-.1034-.13682-.1788-.02007-.0754-.00934-.1557.02982-.2232l1.176-2.038c.03909-.0675.10342-.1167.17882-.1368.0754-.0201.15569-.0094.22318.0298l.51.294c.14.081.188.26.107.402v-.001Zm9.116 1.4501-1.176-2.038h-.001c-.0814-.14-.2607-.1879-.401-.107l-.51.294c-.0677.0389-.1171.1032-.1374.1786-.0203.0754-.0097.1558.0294.2234l1.178 2.037c.081.1404.2604.1887.401.108l.51-.294c.141-.082.189-.262.107-.402Zm1.5156-5.1604 2.038 1.177c.14.081.189.261.108.402l-.294.51c-.0391.0675-.1034.1168-.1788.1368-.0754.0201-.1557.0094-.2232-.0298l-2.038-1.177c-.0677-.0389-.1171-.1032-.1374-.1786-.0203-.0754-.0097-.1558.0294-.2234l.295-.509c.081-.1404.2604-.1887.401-.108Zm-15.79139 2.197 2.038-1.176v-.001c.141-.081.188-.261.108-.401l-.295-.51c-.08104-.1404-.26042-.1887-.401-.108l-2.038 1.177c-.14039.081-.18871.2604-.108.401l.294.51c.03892.0677.10318.1171.17859.1374.07542.0202.1558.0097.22341-.0294Z" clip-rule="evenodd"/></svg>