<svg xmlns="http://www.w3.org/2000/svg" fill="none" viewBox="0 0 24 25"><path fill="#AAAAAB" fill-rule="evenodd" d="M3.28169 11.9551C3.64113 7.72089 7.01581 4.34621 11.25 3.98677V1.70508h1.5v2.28169c4.2342.35944 7.6089 3.73412 7.9683 7.96833H23v1.5h-2.2817c-.3594 4.2342-3.7341 7.6088-7.9683 7.9683v2.2817h-1.5v-2.2817c-4.23419-.3595-7.60887-3.7341-7.96831-7.9683H1v-1.5h2.28169ZM12 19.7051c-3.86599 0-7-3.134-7-7 0-3.86602 3.13401-7.00002 7-7.00002 3.866 0 7 3.134 7 7.00002 0 3.866-3.134 7-7 7Zm0-3c2.2091 0 4-1.7909 4-4 0-2.2092-1.7909-4.00002-4-4.00002-2.20914 0-4 1.79082-4 4.00002 0 2.2091 1.79086 4 4 4Z" clip-rule="evenodd"/></svg>