<svg xmlns="http://www.w3.org/2000/svg" fill="none" viewBox="0 0 24 25"><path fill="#AAAAAB" fill-rule="evenodd" d="M15.3047 3.34206c0-.39478.2344-.63698.484-.63698 1.116 0 2.6189.2422 2.602 3.2534v5.93162c.0062.5417-.4626 1.4661-1.035 1.6487h-.0158l.2487 9.2326c.0076.2813-.2184.5135-.4998.5135h-1.5907c-.283 0-.5095-.2346-.4997-.5174l.3198-9.2287h-.0135V3.34206Zm-3.8118 5.67149c.1216 2.50235-1.3458 3.33405-2.22641 3.43135l.27824 10.3302c.00758.2813-.2184.5135-.49981.5135H7.45318c-.28294 0-.5095-.2346-.49971-.5173l.35786-10.3261c-.95792-.0961-2.4279-.927-2.30397-3.43165.00438-.0639.01497-.12598.03114-.18567l.89802-5.70061c.0383-.2431.24781-.42219.49391-.42219h.07563c.27614 0 .5.22386.5.5v4.9165h.56235l.10365-4.92702c.00572-.27198.22785-.48948.49989-.48948h.17699c.27035 0 .49173.21488.49978.48511l.14691 4.93139h.54543v-4.9165c0-.27614.22386-.5.50004-.5h.0695c.2473 0 .4575.18089.4944.42549l.8611 5.71431.0014.01005c.0126.05131.0212.1043.0254.15862Z" clip-rule="evenodd"/></svg>