<svg xmlns="http://www.w3.org/2000/svg" fill="none" viewBox="0 0 24 25"><path fill="#AAAAAB" fill-rule="evenodd" d="M22.6054 1.70508H1.39563C.613951 1.70508 0 2.33999 0 3.14835V17.8669c0 .8084.641378 1.4433 1.39563 1.4433h7.47923l2.28804 3.7516c.1667.288.4747.4615.8102.4615.3344 0 .6414-.1735.8081-.4615l2.2891-3.7516h7.5351c.7806 0 1.3946-.6349 1.3946-1.4433V3.14835c0-.78-.614-1.44327-1.3946-1.44327ZM17.8621 12.9031c-1.2279 0-2.2332-1.0396-2.2332-2.3095 0-1.26978 1.0053-2.30942 2.2332-2.30942s2.2311 1.03964 2.2311 2.30942c0 1.2982-1.0032 2.3095-2.2311 2.3095Zm-8.09452-2.3095c0 1.2699 1.00422 2.3095 2.23322 2.3095 1.2279 0 2.2332-1.0113 2.2332-2.3095 0-1.26978-1.0053-2.30942-2.2332-2.30942-1.229 0-2.23322 1.03964-2.23322 2.30942Zm-3.62807 2.3095c-1.2279 0-2.23322-1.0396-2.23322-2.3095 0-1.26978 1.00532-2.30942 2.23322-2.30942 1.2279 0 2.23322 1.03964 2.23322 2.30942 0 1.2982-1.00532 2.3095-2.23322 2.3095Z" clip-rule="evenodd"/></svg>