<svg xmlns="http://www.w3.org/2000/svg" fill="none" viewBox="0 0 24 25"><path fill="#AAAAAB" fill-rule="evenodd" d="M2 5.70508V19.9911h20V5.70508H2Zm18.659 3.115h-1.245v-1.739h1.245v1.739ZM3.33984 12.2653h1.246v-2.068h-1.246v2.068Zm1.246 1.3758v2.067h-1.246v-2.067h1.246ZM18.0728 7.08205H5.92578V18.6151H18.0728V7.08205Zm1.3412 6.56005h1.245v2.066h-1.245v-2.066Zm0-3.4448v2.067h1.245v-2.067h-1.245ZM4.58584 7.08105v1.74h-1.246v-1.74h1.246Zm-.001 10.00195h-1.245l.001.001v1.53h1.244v-1.531Zm14.82726 1.531v-1.53h1.245v1.53h-1.245Zm-4.6633-5.7661-4.157-2.677v5.354l4.157-2.677Z" clip-rule="evenodd"/></svg>