<svg xmlns="http://www.w3.org/2000/svg" fill="none" viewBox="0 0 24 25"><path fill="#AAAAAB" fill-rule="evenodd" d="M14.5203 2.31031c0-.69091-.6295-1.21077-1.3079-1.08017L3.23871 3.15002C2.8099 3.23257 2.5 3.60781 2.5 4.04449c0 .50307.40782.91089.91089.91089H14.5203V2.31031Zm-1.1189-.0982c.0617-.01187.1189.03539.1189.0982v1.64507H4.34525l9.05615-1.74327ZM18 5.70489c1.6569 0 3 1.34315 3 3V20.7049c0 1.6568-1.3431 3-3 3H4c-.6 0-1-.3273-1-.8182V6.52307c0-.4909.4-.81818 1-.81818h14ZM12 15.8758c1.6569 0 3-1.3432 3-3 0-1.6569-1.3431-3.00001-3-3.00001S9 11.2189 9 12.8758c0 1.6568 1.3431 3 3 3Zm3 1.8291v2H9v-2h6Z" clip-rule="evenodd"/></svg>