<svg xmlns="http://www.w3.org/2000/svg" fill="none" viewBox="0 0 24 25"><path fill="#AAAAAB" fill-rule="evenodd" d="M17.9083 5.10746c.7025.25655.9268.78367.7231 1.55313l3.2911 3.22085c.2234.21866.2234.47306.031.69976l-.7996.9424c-.7024.8455-1.5665.4498-2.0489 0l-.7148.8927-3.6666-3.43885 1.9827-2.22186s.5579-.99541.8082-1.50813c.1081-.22144.309-.17096.3938-.14Zm-3.8709 4.59747H5.41489L3.6226 7.91264c-.18529-.18529-.4822-.1961-.68047-.02477l-.16994.14685c-.1951.16859-.23.45789-.0806.66805l1.30894 1.84113v4.661c0 .0361.00383.0713.01109.1053L2.1711 18.4829c-.13876.2392-.057.5457.1825.6839l.86602.5c.2388.1379.54414.0564.6825-.1821l1.75176-3.0197.78218 2.8716c.05928.2176.25689.3686.48243.3686h1.07129c.33083 0 .57046-.3155.48164-.6342l-.93809-3.3661h8.61277l.9892 3.6317c.0593.2176.2569.3686.4824.3686h1.0713c.3308 0 .5705-.3155.4816-.6342l-1.4061-5.0455c-.0036-.0131-.0078-.0259-.0124-.0384-.0477-.2623-.0538-.5196.0353-.7652l-3.75-3.51697Z" clip-rule="evenodd"/></svg>