<svg xmlns="http://www.w3.org/2000/svg" fill="none" viewBox="0 0 24 25"><path fill="#AAAAAB" fill-rule="evenodd" d="M2.77099 5.64869c-.38332.08168-.74913.26988-1.05374.57449-.802355.80235-.17215 2.00988-.02344 2.29484.00488.00934.00924.0177.01301.02501C4.93023 14.7899 9.77619 19.657 16.4778 23.1923c.7829.413 1.878.3172 2.1758.0379.3242-.304.517-.6766.5932-1.0686.2787.0129.5616-.0901.77-.3083l2.1796-2.282c.4396-.4603.343-1.2088-.1991-1.5424l-3.8164-2.3482c-.3937-.2423-.9021-.1831-1.2297.143l-1.9674 1.9589c-2.8648-2.046-5.47055-4.645-7.76703-7.89988l1.89311-1.90139c.32613-.32756.38527-.83594.14304-1.22961L6.90467 2.93533c-.33358-.54214-1.08206-.63875-1.54238-.1991L3.08026 4.91581c-.20847.19911-.31183.4663-.30927.73288Z" clip-rule="evenodd"/></svg>