<svg xmlns="http://www.w3.org/2000/svg" fill="none" viewBox="0 0 32 33"><path fill="#AAAAAB" fill-rule="evenodd" d="m13.2222 2.40816 8.4522 8.41734c1.1826 1.1479 1.2173 3.0609.0347 4.2087l-8.1739 8.174c-1.1826 1.1478-3.0608 1.113-4.20868-.0696L.909134 14.7212c-1.182609-1.1478-1.217392-3.0261-.069566-4.2087L9.01348 2.33859c1.18262-1.14782 3.06092-1.11304 4.20872.06957Zm8.835 14.40014-6.7131 6.713c-.2782.3131-.2782.7653-.0348 1.0435l.7653.7652c.313.2783.7652.2783 1.0434 0l6.7479-6.713c.2782-.313.2782-.7652 0-1.0435l-.7653-.7652c-.313-.2783-.7652-.2783-1.0434 0Zm5.6686 10.0173c.9392 0 .9392-1.4609 0-1.4609-.9391 0-.9391 1.4609 0 1.4609Zm-2.748-1.3218c.9391 0 .9391-1.4608 0-1.4608s-.9391 1.4608 0 1.4608Zm-.2422-3.061c.9391 0 .9391-1.4609 0-1.4609s-.9391 1.4609 0 1.4609Zm3.373 7.6177c.9392 0 .9392-1.4609 0-1.4609-.9391 0-.9391 1.4609 0 1.4609Zm-5.4257-1.7739c.9391 0 .9391-1.4609 0-1.4609-.9392 0-.9392 1.4609 0 1.4609Zm-3.1641 0c.9391 0 .9391-1.4609 0-1.4609s-.9391 1.4609 0 1.4609Zm1.9473-2.7828c.9391 0 .9391-1.4608 0-1.4608-.9392 0-.9392 1.4608 0 1.4608Zm6.2597-2.1567c.9392 0 .9392-1.4609 0-1.4609-.9391 0-.9391 1.4609 0 1.4609Zm-6.955 7.8262c.9391 0 .9391-1.4609 0-1.4609-.9392 0-.9392 1.4609 0 1.4609Zm4.6601-2.3306c.9391 0 .9391-1.4609 0-1.4609-.9392 0-.9392 1.4609 0 1.4609Zm5.1817-2.4346c.9391 0 .9391-1.4608 0-1.4608-.9392 0-.9392 1.4608 0 1.4608ZM23.97 32.0429c.9391 0 .9391-1.4608 0-1.4608s-.9391 1.4608 0 1.4608Z" clip-rule="evenodd"/></svg>