<svg xmlns="http://www.w3.org/2000/svg" fill="none" viewBox="0 0 24 25"><path fill="#AAAAAB" fill-rule="evenodd" d="M5 2.70508c-.55228 0-1 .44771-1 1v4H2c-.55228 0-1 .44771-1 1v8.00002c0 .5523.44772 1 1 1h2v3c0 .5523.44772 1 1 1h14c.5523 0 1-.4477 1-1v-3h2c.5523 0 1-.4477 1-1V8.70508c0-.55229-.4477-1-1-1h-2v-4c0-.55229-.4477-1-1-1H5Zm1 2h12v3H6v-3Zm13.5 8.00002c.8284 0 1.5-.6716 1.5-1.5s-.6716-1.50002-1.5-1.50002-1.5.67162-1.5 1.50002c0 .8284.6716 1.5 1.5 1.5Zm-13.5 1h12v6H6v-6Zm1 2h10v2H7v-2Z" clip-rule="evenodd"/></svg>