<svg xmlns="http://www.w3.org/2000/svg" fill="none" viewBox="0 0 24 25"><path fill="#AAAAAB" fill-rule="evenodd" d="M12 21.1055c-2.75 0-5-2.3375-5-5.1945V9.29991c0-2.85694 2.25-5.19444 5-5.19444s5 2.3375 5 5.19444V15.911c0 2.857-2.25 5.1945-5 5.1945Zm-.0009-16.0557c-2.24999 0-4.0909 1.9125-4.0909 4.25v6.6111c0 2.3375 1.84091 4.25 4.0909 4.25 2.25 0 4.0909-1.9125 4.0909-4.25V9.2998c0-2.3375-1.8409-4.25-4.0909-4.25Zm-.4542 4.48612c0 .25972.2046.47218.4546.47218s.4545-.21246.4545-.47218V7.64703c0-.25973-.2045-.47223-.4545-.47223s-.4546.2125-.4546.47223v1.88889Z" clip-rule="evenodd"/></svg>