<svg xmlns="http://www.w3.org/2000/svg" fill="none" viewBox="0 0 24 25"><path fill="#AAAAAB" fill-rule="evenodd" d="M19.8922 9.09534c.1725-.2819.138-.66493-.1035-.90636l-4.1362-4.1362-.1329-.10988c-.4656-.30241-1.1272.02227-1.1272.62875v2.65369H5.48253l-.23964.0195c-.70249.11541-1.24286.72917-1.24286 1.46301 0 .81538.66712 1.48255 1.4825 1.48255h8.90987v2.6537l.019.1731c.1237.5467.8233.777 1.2411.3457l4.1362-4.13617.1035-.13139ZM4.10778 15.5609c-.17245.2819-.13796.6649.10348.9064l4.1362 4.1362.13293.1099c.46558.3024 1.1272-.0223 1.1272-.6288v-2.6537h8.90991l.2396-.0195C19.4596 17.296 20 16.6822 20 15.9484c0-.8154-.6672-1.4825-1.4825-1.4825H9.60759v-2.6537l-.01899-.1731c-.12375-.5467-.82335-.7771-1.24114-.3458l-4.1362 4.1362-.10348.1314Z" clip-rule="evenodd"/></svg>