<svg xmlns="http://www.w3.org/2000/svg" fill="none" viewBox="0 0 24 25"><path fill="#AAAAAB" fill-rule="evenodd" d="M17 10.8051c0 1.5-.5 2.9-1.4 4.1l5.1 5.1-1.4 1.4-5.1-5.1c-1.2.9-2.7 1.4-4.2 1.4h-.1c-1.9 0-3.6-.8-4.9-2.1-1.3-1.4-2-3.1-2-5 0-1.90002.8-3.60002 2.1-4.90002 1.4-1.3 3.1-2 5-2s3.6.8 4.9 2.1c1.3 1.4 2 3.1 2 5.00002Zm-7.1 4.9c1.4 0 2.6-.5 3.6-1.4.9-.9 1.5-2.2 1.5-3.5 0-1.40002-.5-2.60002-1.4-3.60002-.9-.9-2.2-1.5-3.5-1.5H10c-1.3 0-2.5.5-3.5 1.4-.9.9-1.5 2.2-1.5 3.50002 0 1.3.5 2.6 1.4 3.6.9.9 2.2 1.5 3.5 1.5Z" clip-rule="evenodd"/></svg>