<svg xmlns="http://www.w3.org/2000/svg" fill="none" viewBox="0 0 24 25"><path fill="#AAAAAB" fill-rule="evenodd" d="M19.7887 6.18898c.2415.24143.276.62446.1035.90636l-.1035.13139-4.1362 4.13617c-.4178.4313-1.1174.201-1.2411-.3457l-.019-.1731V8.19036h-4.186l7.4368 8.76774c.2297.2708.3466.5994.3555.9287.0009.0204.0013.041.0013.0616 0 .7338-.5404 1.3476-1.2429 1.463l-.0796.0065c-.0369.0044-.0739.0074-.1109.009l-.0491.004H9.60759v2.6537c0 .6065-.66162.9312-1.1272.6288l-.13293-.1099-4.1362-4.1362c-.24144-.2415-.27593-.6245-.10348-.9064l.10348-.1314 4.1362-4.1362c.41779-.4313 1.11739-.2009 1.24114.3458l.01899.1731v2.6537h3.68431L5.85549 7.69863c-.53587-.63177-.45813-1.57833.17364-2.1142.11595-.09835.2425-.17602.37516-.2334.1122-.04964.23158-.08574.35606-.10619l.03714-.00302c.05264-.0071.10554-.01139.15846-.01289L7 5.22534h7.3924V2.57165c0-.60648.6616-.93116 1.1272-.62875l.1329.10988 4.1362 4.1362Z" clip-rule="evenodd"/></svg>