<svg xmlns="http://www.w3.org/2000/svg" fill="none" viewBox="0 0 24 25"><path fill="#AAAAAB" fill-rule="evenodd" d="M11.2296 8.49312c.54-.40372.8896-1.0482.8896-1.77433 0-1.22271-.9912-2.21391-2.21389-2.21391-1.2227 0-2.2139.9912-2.2139 2.21391 0 .88312.51707 1.64546 1.26498 2.0008l1.28171 7.07021c.0982.5416.5698.9355 1.1203.9355h4.4284l1.443 3.0772c.267.5694.945.8145 1.5143.5475s.8144-.9449.5475-1.5143l-1.7503-3.7324c-.1875-.3999-.5892-.6552-1.0308-.6552h-4.2014l-1.0795-5.95498Zm-5.81437.04057 1.43802 8.07961c.4556 2.0532 1.69533 3.4612 3.65325 3.6502l4.9359.0044-.9165-1.8977h-3.9282c-.93894-.095-1.59839-.8439-1.88411-2.1291L7.28351 8.20118c-.09183-.51591-.58449-.8597-1.1004-.76788-.51591.09182-.8597.58448-.76788 1.10039Z" clip-rule="evenodd"/></svg>