<svg xmlns="http://www.w3.org/2000/svg" fill="none" viewBox="0 0 24 25"><path fill="#AAAAAB" d="M6.18759 12.2051c0-3.51602 2.94558-6.37555 6.56601-6.37555 1.6287 0 3.1195.5821 4.2669 1.5413.5863-.60866 1.003-.98469 1.5269-1.52537-1.5444-1.32779-3.569-2.1404-5.7938-2.1404C7.91906 3.70508 4 7.51 4 12.2051c0 4.694 3.91906 8.5 8.7536 8.5 2.9948 0 5.6385-1.4627 7.218-3.6923.0087-.0139.0284-.0415.0284-.0415l-1.7293-1.3246s-.0175.0266-.0262.0393c-1.1737 1.74-3.1939 2.8946-5.4909 2.8946-3.62043 0-6.56601-2.8606-6.56601-6.3755Z"/></svg>