<svg xmlns="http://www.w3.org/2000/svg" fill="none" viewBox="0 0 24 25"><path fill="#AAAAAB" fill-rule="evenodd" d="M14.4609 3.70508c1.6568 0 3 1.34314 3 3v2c0 1.65682-1.3432 3.00002-3 3.00002-1.6569 0-3-1.3432-3-3.00002v-2c0-1.65686 1.3431-3 3-3Zm0 1.5c-.7797 0-1.4205.59489-1.4932 1.35554l-.0068.14446v2c0 .82843.6715 1.50002 1.5 1.50002.7797 0 1.4204-.59491 1.4931-1.35556l.0069-.14446v-2c0-.82843-.6716-1.5-1.5-1.5Zm-7.73461-.77114c-.092-.35779-.43655-.60144-.81366-.55717-.41138.04829-.70573.42093-.65744.83232l1.16029 9.88461.04755.2102c.45683 1.8469 1.69376 2.494 3.75267 2.5673l1.0344.0001v4.0838H9.50007l-.10177.0068c-.36607.0497-.64823.3635-.64823.7432 0 .4142.33579.75.75.75h5.00003l.1017-.0069c.3661-.0496.6483-.3634.6483-.7431 0-.4142-.3358-.75-.75-.75h-1.75v-4.0837l3.4325.0003.1018-.0069c.366-.0497.6482-.3635.6482-.7431 0-.4143-.3358-.75-.75-.75h-5.9402l-.1988-.0092c-1.35425-.0773-1.92656-.4374-2.14888-1.5086L6.74496 4.53422l-.01867-.10028Z" clip-rule="evenodd"/></svg>