<svg xmlns="http://www.w3.org/2000/svg" fill="none" viewBox="0 0 24 25"><path fill="#AAAAAB" fill-rule="evenodd" d="M12.75 2.45508c0-.41422-.3358-.75-.75-.75s-.75.33579-.75.75V5.7452c.2465-.02652.4967-.04012.75-.04012s.5035.0136.75.04012V2.45508Zm2.9243 5.51496c-.8301-.64641-1.8328-1.08031-2.9243-1.21798-.2458-.031-.4961-.04698-.75-.04698s-.5042.01598-.75.04698c-1.0916.13768-2.09434.57163-2.92445 1.21812-.39581.30826-.75239.66485-1.06063 1.06068-.64639.83007-1.08027 1.83274-1.21794 2.92424-.031.2458-.04698.4961-.04698.75 0 .2538.01598.5042.04698.75.13767 1.0915.57157 2.0942 1.21798 2.9242.30825.3959.66482.7525 1.06065 1.0607.83009.6465 1.83279 1.0804 2.92439 1.2181.2458.031.4961.047.75.047s.5042-.016.75-.047c1.0915-.1377 2.0942-.5716 2.9242-1.2179.3958-.3083.7524-.6649 1.0607-1.0607.6465-.8301 1.0804-1.8328 1.2181-2.9244.031-.2458.047-.4962.047-.75 0-.2539-.016-.5042-.047-.75-.1377-1.0916-.5716-2.09432-1.2181-2.92442-.3082-.39582-.6648-.75239-1.0606-1.06064Zm1.7724.34884c-.3149-.38997-.6707-.74573-1.0606-1.06064l2.3312-2.33125c.2929-.29289.7678-.29289 1.0607 0 .2929.2929.2929.76777 0 1.06066l-2.3313 2.33123Zm1.5132 3.63622c.0265.2465.0401.4967.0401.75s-.0136.5035-.0401.75H22.25c.4142 0 .75-.3358.75-.75s-.3358-.75-.75-.75h-3.2901Zm-1.5132 5.1362c-.3149.39-.6707.7458-1.0607 1.0607l2.3315 2.3315c.2929.2928.7678.2928 1.0607 0 .2929-.2929.2929-.7678 0-1.0607l-2.3315-2.3315ZM12.75 19.665c-.2465.0265-.4967.0401-.75.0401s-.5035-.0136-.75-.0401v3.2901c0 .4142.3358.75.75.75s.75-.3358.75-.75V19.665Zm-5.13619-1.5132c-.38997-.3149-.74574-.6707-1.06065-1.0607l-2.33154 2.3316c-.29289.2929-.29289.7677 0 1.0606.2929.2929.76777.2929 1.06066 0l2.33153-2.3315Zm-2.57368-4.6967C5.01361 13.2086 5 12.9584 5 12.7051s.01361-.5035.04013-.75H1.75c-.41421 0-.75.3358-.75.75s.33579.75.75.75h3.29013Zm1.51299-5.13604c.31491-.38998.67067-.74576 1.06064-1.06068L5.28248 4.92711c-.29289-.2929-.76776-.2929-1.06066 0-.29289.29289-.29289.76776 0 1.06066l2.3313 2.33129Z" clip-rule="evenodd"/></svg>