<svg xmlns="http://www.w3.org/2000/svg" fill="none" viewBox="0 0 24 25"><path fill="#AAAAAB" fill-rule="evenodd" d="M12.0831 2.70508c-2.81163 0-5.09091 2.27928-5.09091 5.09091 0 2.81161 2.27928 5.09091 5.09091 5.09091 2.8116 0 5.0909-2.2793 5.0909-5.09091 0-2.81163-2.2793-5.09091-5.0909-5.09091Zm.0005 1.45459c2.0083 0 3.6364 1.62805 3.6364 3.63636s-1.6281 3.63637-3.6364 3.63637-3.63633-1.62806-3.63633-3.63637 1.62803-3.63636 3.63633-3.63636ZM12 13.9067c-4.3808 0-8 2.7298-8 6.2128 0 3.9992 16 3.9992 16 0 0-3.483-3.6192-6.2128-8-6.2128Zm.0005 1.4546c3.6525 0 6.5455 2.1821 6.5455 4.7582 0 2.0598-13.09092 2.0598-13.09092 0 0-2.5761 2.89302-4.7582 6.54542-4.7582Z" clip-rule="evenodd"/></svg>