<svg xmlns="http://www.w3.org/2000/svg" fill="none" viewBox="0 0 24 25"><path fill="#AAAAAB" fill-rule="evenodd" d="M17 10.7051h2c.6 0 1 .4 1 1v10c0 .6-.4 1-1 1H5c-.6 0-1-.4-1-1v-10c0-.6.4-1 1-1h10V5.70508c0-.6-.4-1-1-1h-4c-.6 0-1 .4-1 1v2H7v-2c0-1.7 1.3-3 3-3h4c1.7 0 3 1.3 3 3v5.00002Zm-11 10h12v-8H6v8Z" clip-rule="evenodd"/><mask id="a" width="16" height="21" x="4" y="2" maskUnits="userSpaceOnUse" style="mask-type:alpha"><path fill="#fff" fill-rule="evenodd" d="M17 10.7051h2c.6 0 1 .4 1 1v10c0 .6-.4 1-1 1H5c-.6 0-1-.4-1-1v-10c0-.6.4-1 1-1h10V5.70508c0-.6-.4-1-1-1h-4c-.6 0-1 .4-1 1v2H7v-2c0-1.7 1.3-3 3-3h4c1.7 0 3 1.3 3 3v5.00002Zm-11 10h12v-8H6v8Z" clip-rule="evenodd"/></mask></svg>