<svg xmlns="http://www.w3.org/2000/svg" fill="none" viewBox="0 0 24 25"><path fill="#AAAAAB" d="M19 10.7051h-2V5.70508c0-1.7-1.3-3-3-3h-4c-1.7 0-3 1.3-3 3v2h2v-2c0-.6.4-1 1-1h4c.6 0 1 .4 1 1v5.00002H5c-.6 0-1 .4-1 1v10c0 .6.4 1 1 1h14c.6 0 1-.4 1-1v-10c0-.6-.4-1-1-1Z"/><mask id="a" width="16" height="21" x="4" y="2" maskUnits="userSpaceOnUse" style="mask-type:alpha"><path fill="#fff" d="M19 10.7051h-2V5.70508c0-1.7-1.3-3-3-3h-4c-1.7 0-3 1.3-3 3v2h2v-2c0-.6.4-1 1-1h4c.6 0 1 .4 1 1v5.00002H5c-.6 0-1 .4-1 1v10c0 .6.4 1 1 1h14c.6 0 1-.4 1-1v-10c0-.6-.4-1-1-1Z"/></mask></svg>