<svg xmlns="http://www.w3.org/2000/svg" fill="none" viewBox="0 0 24 25"><path fill="#AAAAAB" fill-rule="evenodd" d="M12 2.70508c-5.52285 0-10 4.47715-10 10.00002 0 5.5228 4.47715 10 10 10 5.5228 0 10-4.4772 10-10 0-5.52287-4.4772-10.00002-10-10.00002Zm0 1.25c4.8325 0 8.75 3.91751 8.75 8.75002 0 2.6244-1.1554 4.9789-2.9852 6.5827-.432-2.1966-2.8707-3.8313-5.7655-3.8313-2.89428 0-5.33268 1.6342-5.76518 3.8303C4.40491 17.6831 3.25 15.3289 3.25 12.7051c0-4.83251 3.91751-8.75002 8.75-8.75002Zm4.7693 16.08722c-1.3719.8936-3.01 1.4128-4.7693 1.4128-1.7606 0-3.39984-.52-4.77237-1.4148-.00092-.0178-.00125-.0357-.00097-.0538.02986-1.8783 2.1095-3.4695 4.77274-3.4695 2.6632 0 4.8024 1.5912 4.7727 3.4695-.0003.0188-.0012.0374-.0028.0558Zm-8.4217-9.0416c0-2.05015 1.662-3.71213 3.7121-3.71213 2.0502 0 3.7121 1.66198 3.7121 3.71213 0 2.0501-1.6619 3.7121-3.7121 3.7121-2.0501 0-3.7121-1.662-3.7121-3.7121Zm6.3635-.0001c0-1.46436-1.1871-2.65148-2.6515-2.65148S9.40808 9.53624 9.40808 11.0006c0 1.4644 1.18712 2.6516 2.65152 2.6516 1.4644 0 2.6515-1.1872 2.6515-2.6516Z" clip-rule="evenodd"/></svg>