<svg xmlns="http://www.w3.org/2000/svg" fill="none" viewBox="0 0 24 25"><path fill="#AAAAAB" fill-rule="evenodd" d="M22.875 12.3051c-1.8-3.90002-6-6.60002-10.9-6.60002s-9.1 2.7-10.9 6.60002c-.1.2-.1.5 0 .8 1.8 3.8 6 6.6 10.9 6.6s9.1-2.8 10.9-6.6c.1-.3.1-.5 0-.8ZM11.9746 9.70508c-1.7 0-2.99999 1.30002-2.99999 3.00002 0 1.7 1.29999 3 2.99999 3s3-1.3 3-3-1.3-3.00002-3-3.00002ZM6.97461 12.7051c0 2.8 2.2 5 4.99999 5 2.8 0 5-2.2 5-5 0-2.80002-2.2-5.00002-5-5.00002-2.79999 0-4.99999 2.2-4.99999 5.00002Z" clip-rule="evenodd"/></svg>