<svg xmlns="http://www.w3.org/2000/svg" fill="none" viewBox="0 0 24 25"><path fill="#AAAAAB" fill-rule="evenodd" d="M22.9164 12.3265c-.853-1.818-2.238-3.37102-3.958-4.51902l2.225-2.225-1.06-1.061L3.81836 20.8265l1.06 1.061 2.921-2.921c1.312.468 2.72804.736 4.20104.738 4.859-.009 9.138-2.807 10.918-6.625.111-.239.11-.516-.002-.753Zm-15.91577.3786c0 .847.231 1.634.605 2.334l-2.557 2.557c-1.738-1.161-3.13-2.723-3.966-4.516-.111001-.239-.110001-.516.002-.753 1.83-3.89702 6.064-6.62202 10.91597-6.62202 1.481 0 2.903.257 4.218.721l-1.884 1.884c-.701-.373-1.487-.605-2.335-.605-2.75697 0-4.99897 2.243-4.99897 5.00002Zm2.66734 4.392c.69903.375 1.48503.607 2.33203.607 2.758 0 5-2.243 5-5 0-.848-.232-1.633-.606-2.333l-1.52 1.52c.074.26.126.529.126.813 0 1.654-1.345 3-3 3-.284 0-.552-.052-.812-.127l-1.52003 1.52Zm-.54197-3.579c-.074-.26-.126-.529-.126-.813 0-1.654 1.345-3.00002 3-3.00002.283 0 .553.052.813.126L9.126 13.5181Z" clip-rule="evenodd"/></svg>