<svg xmlns="http://www.w3.org/2000/svg" fill="none" viewBox="0 0 32 33"><path fill="#AAAAAB" fill-rule="evenodd" d="m8.69539 20.6156 5.50791 5.5079c.1645.1611.3854.2516.6157.2521.2291.0003.4488-.0904.6109-.2521l9.5516-9.5516c3.903-3.9013 5.6143-9.48592 4.5672-14.9042-.0595-.31417-.2897-.56869-.5963-.65939-.3051-.092812-.6364-.010904-.8631.21333L8.69539 20.6156ZM4.86024 32.0149c-.23002 0-.45031-.0928-.61091-.2575l-2.73454-2.7345c-.16355-.1614-.25604-.3812-.25697-.611-.00071-.23.09203-.4505.25697-.6109l5.95878-5.9684 3.95633 3.966-5.95875 5.9588c-.1606.1647-.38088.2575-.61091.2575Z" clip-rule="evenodd"/></svg>