<svg xmlns="http://www.w3.org/2000/svg" fill="none" viewBox="0 0 24 25"><path fill="#AAAAAB" fill-rule="evenodd" d="M13.5138 4.81927c0 .78274-.4254 1.46613-1.0575 1.83162v3.71821h3.4369v1.5857h-3.4369v.8709h3.5057c.2577 0 .5065.0942.6997.2648l3.8378 3.389L19.1 18.0643l-3.538-3.1244h-4.1628c-.5839 0-1.0571-.4732-1.0571-1.0571V6.65036c-.63172-.36562-1.05668-1.04873-1.05668-1.83109 0-1.16764.94658-2.11419 2.11418-2.11419 1.1676 0 2.1142.94655 2.1142 2.11419ZM10.3426 21.7329C6.83967 21.7329 4 18.8932 4 15.3903c0-3.143 2.28611-5.75201 5.28664-6.25497v2.15957c-1.82432.469-3.17245 2.1248-3.17245 4.0954 0 2.3353 1.89312 4.2284 4.22841 4.2284 2.1144 0 3.8663-1.5519 4.1788-3.5788.0015-.0096.0225-.1159.0225-.1159l1.7825 1.5318s.0915-.2374.0785-.1952c-.7981 2.59-3.2104 4.4723-6.0623 4.4723Z" clip-rule="evenodd"/></svg>