<svg xmlns="http://www.w3.org/2000/svg" fill="none" viewBox="0 0 73 73"><circle cx="36.8418" cy="36.7051" r="36" fill="#EFF5FF"/><path fill="#fff" d="M58.8389 24.7051H14.8447c-1.1045 0-2.0029.8954-2.0029 2v20c0 1.1045.8954 2 2 2h44c1.1046 0 2-.8955 2-2v-20c0-1.1046-.8984-2-2.0029-2Z"/><path fill="#0032A0" fill-rule="evenodd" d="M11.8418 26.7051c0-1.6588 1.348-3 3.0029-3h43.9942c1.6549 0 3.0029 1.3412 3.0029 3v20c0 1.6568-1.3431 3-3 3h-43c-.5523 0-1-.4477-1-1s.4477-1 1-1h43c.5523 0 1-.4477 1-1v-20c0-.5504-.4487-1-1.0029-1H14.8447c-.5542 0-1.0029.4496-1.0029 1v19c0 .5523-.4477 1-1 1s-1-.4477-1-1v-19Z" clip-rule="evenodd"/><path fill="#00A3E0" d="M50.372 29.5059H23.1064c-.3992 0-.7647.2386-.9293.6023-.8607 1.9013-1.7814 3.3577-3.5547 3.7598-.5337.121-.9798.5505-.9798 1.0978v4.3411c0 .5523.4545 1.0105.976 1.1923 1.101.3837 2.4102 1.3034 2.92 2.4384.2262.5038.6643.9683 1.2166.9683h28.098c.5523 0 .9716-.4542 1.0909-.9935.3789-1.7112 1.757-2.3513 3.1016-2.54.5469-.0767.9969-.5143.9969-1.0665v-4.8036c0-.5364-.4254-.9708-.9589-1.027-2.2247-.2344-3.212-1.0082-3.6864-3.1181-.109-.4844-.5288-.8513-1.0253-.8513Z"/><path fill="#0032A0" fill-rule="evenodd" d="M21.2661 29.6958c.3245-.7169 1.0434-1.1899 1.8403-1.1899h28.1362c.5523 0 1 .4477 1 1 0 .5522-.4477 1-1 1H23.1061l-.0013.0003c-.0014.0004-.0037.0013-.0063.0031-.0058.0037-.009.0082-.0104.0112-.8621 1.9045-1.9555 3.8037-4.2446 4.3227-.0829.0188-.1466.0602-.1802.0962-.0139.0149-.0192.025-.0207.0283v4.3392l.0002.002c.0004.0015.0013.0053.0038.0115.0053.0129.0178.0363.0441.0666.0564.0652.1495.1304.257.1679 1.2555.4376 2.842 1.5011 3.5031 2.973.0655.1458.1518.2605.2284.3268.0436.0378.0695.0485.0788.0512h28.0905c.0038-.0023.0109-.0072.0205-.0164.0343-.0329.0781-.1.0988-.1932.51-2.3034 2.4067-3.0992 3.9389-3.3142.0553-.0077.0986-.0337.1218-.0579.0095-.0098.0131-.0167.0141-.0187v-5.7633c0-.5523.4477-1 1-1s1 .4477 1 1v5.7637c0 1.1371-.9078 1.9235-1.8579 2.0568-1.1569.1624-2.0164.6468-2.2642 1.7659-.1866.8427-.9042 1.7773-2.0673 1.7773h-28.098c-1.1428 0-1.8413-.9184-2.1288-1.5585-.3585-.7982-1.3904-1.574-2.3369-1.9039-.7645-.2665-1.6469-1.0122-1.6469-2.1366v-4.3411c0-1.1396.9039-1.8793 1.7587-2.0731 1.2575-.2851 2.0055-1.2988 2.8648-3.1969Zm1.4957 13.2108c0 .0001-.0011 0-.0034-.0006.0022.0001.0034.0005.0034.0006Z" clip-rule="evenodd"/><path fill="#EFF5FF" d="M39.8418 36.7051c0 1.6568-1.3431 3-3 3s-3-1.3432-3-3c0-1.6569 1.3431-3 3-3s3 1.3431 3 3Z"/><path fill="#0032A0" fill-rule="evenodd" d="M41.8418 36.7051c0 2.7614-2.2386 5-5 5s-5-2.2386-5-5 2.2386-5 5-5 5 2.2386 5 5Zm-5 3c1.6569 0 3-1.3432 3-3 0-1.6569-1.3431-3-3-3s-3 1.3431-3 3c0 1.6568 1.3431 3 3 3Z" clip-rule="evenodd"/></svg>