<svg xmlns="http://www.w3.org/2000/svg" fill="none" viewBox="0 0 73 73"><path fill="#EFF5FF" d="M72.8418 36.7051c0 7.1188-2.1106 14.0778-6.065 19.9973-3.9543 5.9195-9.5749 10.5337-16.1513 13.2594-6.5763 2.7256-13.8131 3.4403-20.7956 2.0538-6.9824-1.3866-13.3971-4.8122-18.433-9.8438-5.0359-5.0315-8.46701-11.4432-9.85958-18.4245C.14476 36.766.853261 29.5286 3.57327 22.9499c2.72-6.5786 7.32943-12.2032 13.24543-16.16266C22.7348 2.82779 29.692.711218 36.8108.705091c4.7302-.00407 9.4148.924089 13.7861 2.731439s8.3436 4.45844 11.6898 7.80177c3.3462 3.3433 6.0007 7.3133 7.8118 11.683 1.8111 4.3698 2.7433 9.0536 2.7433 13.7838Z"/><path fill="#fff" d="M19.913 21.4189c.7176.1579 0 13.6994 0 13.6994l-2.3466 10.6925.4378 7.8938h37.6031s.7176-7.9943.4378-7.8938c-.2799.1004-3.0212-10.6925-3.0212-10.6925l-.0861-13.6994H19.913Z"/><path fill="#00A3E0" d="M24.4492 35.1183v-4.4276l.3947-2.3897 2.6695-.4162h7.7503l1.8228 1.2701 1.8945-1.2701s6.1212.5023 5.8629.4162c1.0752-.1979 2.1604-.3369 3.2508-.4162l1.629 2.1528-.287 5.0807h-24.722M56.1025 45.8105H17.5664v7.901h38.5361v-7.901Z"/><path fill="#0032A0" d="M56.0309 56.8338c-.2265 0-.4437-.0899-.6039-.2501-.1601-.1601-.2501-.3773-.2501-.6038v-1.2846c0-.1103-.0438-.2162-.1219-.2943-.078-.078-.1839-.1219-.2943-.1219H18.9731c-.1104 0-.2162.0439-.2943.1219-.078.0781-.1219.184-.1219.2943v1.2846c-.0196.2139-.1184.4127-.2771.5575-.1586.1448-.3657.2251-.5805.2251-.2147 0-.4218-.0803-.5804-.2251-.1587-.1448-.2575-.3436-.2771-.5575V45.761c.0024-.0454.0024-.0909 0-.1363.0039-.043.0039-.0862 0-.1292l2.5117-10.0467c.0034-.0334.0034-.067 0-.1004V17.6447c-.011-.1192.0031-.2393.0412-.3528.0382-.1135.0995-.2178.1802-.3062.0807-.0884.179-.159.2885-.2073.1095-.0484.2279-.0733.3476-.0733.1197 0 .2381.0249.3476.0733.1096.0483.2078.1189.2885.2073.0807.0884.1421.1927.1802.3062.0381.1135.0522.2336.0413.3528v2.5548c0 .1104.0438.2162.1219.2943.078.078.1839.1219.2943.1219h30.714c.1104 0 .2163-.0439.2943-.1219.0781-.0781.1219-.1839.1219-.2943v-2.5548c-.0109-.1192.0032-.2393.0413-.3528.0381-.1135.0995-.2178.1802-.3062.0807-.0884.1789-.159.2885-.2073.1095-.0484.2279-.0733.3476-.0733.1197 0 .2381.0249.3476.0733.1095.0483.2078.1189.2885.2073.0807.0884.142.1927.1802.3062.0381.1135.0521.2336.0412.3528v17.7324c-.0034.0334-.0034.067 0 .1004l2.5117 10.0467c-.0038.0454-.0038.091 0 .1363-.0028.0407-.0028.0814 0 .122v10.1974c0 .2265-.09.4437-.2501.6038-.1602.1602-.3774.2501-.6039.2501h.0431ZM18.9731 46.615c-.1104 0-.2162.0438-.2943.1219-.078.078-.1219.1839-.1219.2943v5.1094c-.001.0553.0091.1102.0296.1615s.051.0981.0897.1375c.0388.0394.085.0707.136.0921.0509.0213.1057.0323.1609.0323h35.7804c.0553 0 .11-.011.161-.0323.051-.0214.0972-.0527.1359-.0921.0388-.0394.0693-.0862.0897-.1375.0205-.0513.0306-.1062.0296-.1615v-5.1094c0-.1104-.0438-.2163-.1219-.2943-.078-.0781-.1839-.1219-.2943-.1219H18.9731Zm2.2749-10.2261c-.0941.0017-.1851.0342-.259.0926-.0738.0583-.1266.1392-.1501.2303l-1.9088 7.6642c-.0173.0612-.0198.1257-.0074.188.0125.0624.0396.121.0791.1708.0394.0497.0896.0898.1468.1172.0572.0273.1199.0413.1833.0407h35.0628c.0634.0006.1261-.0134.1834-.0407.0572-.0274.1074-.0675.1467-.1172.0395-.0498.0666-.1084.0791-.1708.0125-.0623.01-.1268-.0073-.188l-1.916-7.6642c-.0221-.0905-.0735-.1712-.1462-.2296-.0726-.0584-.1625-.0912-.2557-.0933H21.248Zm25.8342-9.3792c.9047 0 1.7724.3589 2.4128.9979.6404.639 1.0012 1.506 1.0031 2.4107v3.8608c0 .0553.0109.11.0323.161.0214.0509.0527.0972.0921.1359.0394.0387.0861.0693.1375.0897.0513.0205.1062.0306.1615.0296h1.2773c.1104 0 .2163-.0438.2943-.1219.0781-.078.1219-.1839.1219-.2943V22.7972c0-.1103-.0438-.2162-.1219-.2943-.078-.078-.1839-.1219-.2943-.1219h-30.671c-.1103 0-.2162.0439-.2943.1219-.078.0781-.1219.184-.1219.2943v11.4819c0 .1104.0439.2163.1219.2943.0781.0781.184.1219.2943.1219h1.2774c.0553.001.1102-.0091.1615-.0296.0513-.0204.098-.051.1375-.0897.0394-.0387.0707-.085.092-.1359.0214-.051.0324-.1057.0324-.161v-3.8608c0-.904.3591-1.771.9984-2.4103.6392-.6392 1.5062-.9983 2.4103-.9983h7.6713c.8408.0054 1.6504.3195 2.2749.8826.0749.0728.1753.1135.2798.1135.1045 0 .2049-.0407.2799-.1135.6171-.5566 1.4152-.8702 2.2461-.8826h7.6929Zm-7.6929 1.7151c-.4491 0-.8799.1784-1.1975.496s-.496.7484-.496 1.1975v3.8608c0 .1104.0438.2163.1219.2943.078.0781.1839.1219.2943.1219h10.2547c.1104 0 .2163-.0438.2943-.1219.0781-.078.122-.1839.122-.2943v-3.8608c-.0019-.4498-.182-.8805-.5007-1.1979-.3188-.3174-.7503-.4956-1.2001-.4956h-7.6929Zm-12.7807 0c-.4492 0-.88.1784-1.1976.496s-.496.7484-.496 1.1975v3.8608c0 .0553.011.11.0323.161.0214.0509.0527.0972.0921.1359.0394.0387.0862.0693.1375.0897.0513.0205.1062.0306.1615.0296H35.586c.1104 0 .2162-.0438.2943-.1219.078-.078.1219-.1839.1219-.2943v-3.8608c0-.4491-.1784-.8799-.4961-1.1975-.3176-.3176-.7483-.496-1.1975-.496h-7.7Z"/><path fill="#0032A0" d="M34.3088 50.4472c-.1192.0109-.2394-.0031-.3528-.0413-.1135-.0381-.2178-.0995-.3062-.1802-.0884-.0807-.1591-.1789-.2074-.2884-.0483-.1095-.0733-.2279-.0733-.3476 0-.1198.025-.2381.0733-.3477.0483-.1095.119-.2077.2074-.2884s.1927-.1421.3062-.1802c.1134-.0382.2336-.0522.3528-.0413h5.0807c.1193-.0109.2394.0031.3529.0413.1135.0381.2177.0995.3062.1802.0884.0807.159.1789.2073.2884.0484.1096.0733.2279.0733.3477 0 .1197-.0249.2381-.0733.3476-.0483.1095-.1189.2077-.2073.2884-.0885.0807-.1927.1421-.3062.1802-.1135.0382-.2336.0522-.3529.0413h-5.0807Z"/></svg>