<svg xmlns="http://www.w3.org/2000/svg" fill="none" viewBox="0 0 73 73"><circle cx="36.8418" cy="36.7051" r="36" fill="#EFF5FF"/><path fill="#fff" d="m18.2797 41.8966 6.6609-6.7145c.7401-.7702 2.0293-.2407 2.0293.8423v4.3079h14.3484c1.313 0 2.3874 1.083 2.3874 2.4066 0 1.3237-1.0744 2.4067-2.3874 2.4067H26.9699v4.3078c0 1.083-1.2892 1.6125-2.0293.8424l-6.6609-6.7146c-.4536-.4572-.4536-1.2273 0-1.6846Z"/><path fill="#0032A0" fill-rule="evenodd" d="M16.4945 41.08c-.8703.8773-.8703 2.3271 0 3.2044l7.0956 7.1527c1.4365 1.4845 3.8781.4218 3.8781-1.5972v-3.5922h14.2953c1.9596 0 3.545-1.6098 3.545-3.5655 0-1.9557-1.5854-3.5655-3.545-3.5655-.5523 0-1 .4477-1 1s.4477 1 1 1c.8399 0 1.545.6992 1.545 1.5655 0 .8663-.7051 1.5655-1.545 1.5655H25.4682v5.5922c0 .0835-.0229.1356-.0473.1707-.0275.0394-.0691.0736-.1205.0948-.0515.0213-.1015.0251-.1422.0175-.035-.0065-.0803-.024-.1322-.078l-.0055-.0058-7.1061-7.1633c-.0413-.0416-.0726-.1087-.0726-.1936 0-.0849.0313-.1521.0726-.1937l7.1061-7.1633.0055-.0057c.0519-.054.0972-.0716.1322-.0781.0407-.0075.0907-.0037.1422.0175.0514.0213.093.0554.1205.0948.0244.0351.0473.0873.0473.1708v5.5922h11.971c.5523 0 1-.4477 1-1s-.4477-1-1-1h-9.971v-3.5922c0-2.0191-2.4415-3.0817-3.8781-1.5972L16.4945 41.08Z" clip-rule="evenodd"/><path fill="#00A3E0" d="M55.4039 30.9345 48.743 37.649c-.7401.7701-2.0293.2406-2.0293-.8423v-4.3079H32.3653c-1.313 0-2.3874-1.083-2.3874-2.4067 0-1.3236 1.0744-2.4066 2.3874-2.4066h14.3484v-4.3079c0-1.083 1.2892-1.6124 2.0293-.8423l6.6609 6.7145c.4536.4573.4536 1.2274 0 1.6847Z"/><path fill="#0032A0" fill-rule="evenodd" d="M57.1891 31.751c.8703-.8773.8703-2.327 0-3.2043l-7.0956-7.1527c-1.4366-1.4845-3.8781-.4219-3.8781 1.5972v4.5922c0 .5523.4477 1 1 1s1-.4477 1-1v-4.5922c0-.0835.0228-.1357.0473-.1708.0275-.0394.0691-.0735.1205-.0948.0515-.0213.1015-.025.1422-.0175.035.0065.0803.024.1322.0781l.0055.0057 7.1061 7.1633c.0413.0416.0726.1088.0726.1937 0 .0849-.0313.152-.0726.1936l-7.1061 7.1633-.0055.0057c-.0519.0541-.0972.0716-.1323.0781-.0406.0076-.0906.0038-.1421-.0175-.0514-.0212-.093-.0554-.1205-.0948-.0245-.0351-.0473-.0873-.0473-.1708v-5.5922H31.9201c-.8399 0-1.545-.6991-1.545-1.5654 0-.8663.7051-1.5655 1.545-1.5655h11.555c.5523 0 1-.4477 1-1s-.4477-1-1-1h-11.555c-1.9596 0-3.545 1.6097-3.545 3.5655 0 1.9557 1.5854 3.5654 3.545 3.5654h14.2953v3.5922c0 2.0191 2.4415 3.0817 3.8781 1.5973l7.0956-7.1528Z" clip-rule="evenodd"/></svg>