<svg xmlns="http://www.w3.org/2000/svg" fill="none" viewBox="0 0 73 73"><path fill="#EFF5FF" d="M72.8418 36.7051c0 7.1188-2.1106 14.0778-6.065 19.9973-3.9543 5.9195-9.5749 10.5337-16.1513 13.2594-6.5763 2.7256-13.8131 3.4403-20.7956 2.0538-6.9824-1.3866-13.3971-4.8122-18.433-9.8438-5.0359-5.0315-8.46701-11.4432-9.85958-18.4245C.14476 36.766.853261 29.5286 3.57327 22.9499c2.72-6.5786 7.32943-12.2032 13.24543-16.16266C22.7348 2.82779 29.692.711218 36.8108.705091c4.7302-.00407 9.4148.924089 13.7861 2.731439s8.3436 4.45844 11.6898 7.80177c3.3462 3.3433 6.0007 7.3133 7.8118 11.683 1.8111 4.3698 2.7433 9.0536 2.7433 13.7838Z"/><path fill="#fff" d="m26.4779 19.0921-2.7186 3.8727s-1.9673 5.623-2.1067 5.623c-.1395 0-4.926 8.1481-4.926 8.1481v4.0352l1.3167 4.3142.9836 1.216H55.631l1.4561-2.0603.5112-6.3743-.4182-4.5-3.7023-4.2909-1.3166-3.71-2.556-5.1041-2.1996-1.4561-8.6438-.7978-4.1282.2401-8.1557.8442Z"/><path fill="#00A3E0" d="M26.7115 49.0352H21.375v5.3442h5.3365v-5.3442Zm26.5898 0h-5.3365v5.3442h5.3365v-5.3442ZM18.2832 33.1113s3.1988.7746 3.0981.7746c-.1007 0 2.3623 1.549 2.3623 1.549l1.3322 2.068-1.0301 1.154-6.8855-.3562 1.123-5.1894Zm38.1933 0s-3.191.7746-3.0981.7746c.093 0-2.3236 1.549-2.3236 1.549l-1.3321 2.068.9913 1.154 6.8856-.3562-1.1231-5.1894Zm-3.1847-3.9426-31.6395-.2866 2.4321-7.265 1.8743-2.0138 7.784-1.0301 8.0164-.2324 6.8855 1.216 1.9828 1.642 2.6644 7.9699Z"/><path fill="#0032A0" d="M43.5882 39.4854H31.126c-.267 0-.5231.106-.712.2949-.1888.1888-.2949.4449-.2949.7119v3.4854h2.0138v-2.4785h10.4484v2.4785h2.0137v-3.4854c0-.267-.106-.5231-.2949-.7119-.1888-.1889-.4449-.2949-.7119-.2949Z"/><path fill="#0032A0" d="M57.9326 33.6067c-.0284-.0735-.0647-.1437-.1085-.2092-.7125-1.0533-2.1377-2.9122-2.9432-3.9501l1.0999-1.0688c.1926-.2167.2953-.4987.2871-.7885-.0082-.2898-.1266-.5656-.3311-.7711-.2045-.2054-.4797-.3252-.7694-.3347-.2898-.0096-.5723.0917-.7899.2833l-.5422.5344-2.3236-5.4604c-1.0301-2.6489-2.5094-3.2453-2.796-3.3382h-.0774c-1.5302-.3753-3.0823-.6547-4.6472-.8365h-.1781l-2.161-.2169h-.3795c-1.6497-.1162-2.92-.1316-3.5318-.1316h-.7049c-.6118 0-1.8821 0-3.5318.1316h-.3795l-2.1609.2169h-.1782c-1.5655.1815-3.1178.4635-4.6471.8442h-.062c-.2866.093-1.7737.6894-2.7883 3.2918l-2.3236 5.4991-.5421-.5267c-.2177-.1915-.5002-.2929-.7899-.2833-.2898.0096-.565.1293-.7695.3348-.2045.2055-.3229.4813-.3311.7711-.0081.2898.0946.5718.2872.7884l1.0998 1.0689c-.6738.8752-2.1842 2.8425-2.9432 3.9501-.0423.0663-.0786.1363-.1084.2091-1.1256 3.1017-1.3853 6.4512-.7513 9.6893.2169 1.5491 1.2857 4.0818 3.9578 3.9346h34.784c2.5017 0 3.5318-2.463 3.741-3.9191.6624-3.238.4321-6.5952-.6661-9.7125Zm-2.0061.6041.1782.2556c.3134.8792.5391 1.7872.6738 2.7108v.3098h-6.0103l.1007-.3408c.7745-2.5404 4.4845-2.8967 4.9105-2.9277l.1471-.0077ZM25.0926 22.5929c.2589-.8384.7768-1.5733 1.4794-2.099l.0774-.0387c3.4073-.7622 6.8873-1.1517 10.3787-1.1618h.6893c3.4772-.0026 6.9444.374 10.34 1.1231h.0619c.7444.5259 1.29 1.2871 1.5491 2.1609l2.4165 5.654H22.6684l2.4242-5.6385ZM17.936 37.1772c.1338-.9238.3596-1.8319.6739-2.7108l.1626-.2401h.1627c.426 0 4.1747.3872 4.9105 2.9277l.1006.3408h-6.0568l.0465-.3176Zm39.0129 2.5947c0 1.0412-.109 2.0796-.3253 3.0981v.0929c0 .031-.3175 2.2307-1.7814 2.2307H19.8878c-1.4096 0-1.7427-1.9983-1.7814-2.2229.0043-.036.0043-.0724 0-.1085-.2119-1.0192-.3209-2.0571-.3253-3.0981v-.271h6.3744c.3725-.0326.7278-.172 1.0232-.4014.2953-.2294.5183-.5392.642-.8921.1177-.3325.1549-.6882.1084-1.0379-.5344-3.2065-3.586-4.3373-5.3519-4.7323l-.4028-.0852.2479-.3331 1.2547-1.6342.0774-.1007h31.2212l.0775.1007c.2323.2943.7125.9217 1.2547 1.6342l.2478.3331-.4027.0852c-1.7659.4027-4.8253 1.549-5.3597 4.7865-.0349.3319.002.6674.1084.9837.1254.3519.3488.6606.6438.8898.295.2292.6494.3692 1.0214.4037h6.3899l-.0078.2788ZM26.1156 52.9698c-.006.3103-.1319.6063-.3514.8258-.2195.2195-.5155.3455-.8259.3514h-1.6652c-.311-.004-.6081-.1293-.828-.3492-.22-.2199-.3453-.5171-.3493-.828v-3.9346H20.082v3.9346c-.001.4197.0808.8354.2407 1.2235.1599.388.3948.7407.6912 1.0379.2965.2971.6486.5329 1.0362.6937.3877.1609.8033.2436 1.223.2436h1.6962c.847-.002 1.6587-.3399 2.2569-.9396.5982-.5997.9342-1.4121.9342-2.2591v-3.9346h-2.0138l-.031 3.9346Zm26.5349 0c-.004.3096-.1282.6056-.3465.8253-.2183.2197-.5134.3459-.8231.3519H49.777c-.3104-.0059-.6064-.1319-.8259-.3514-.2195-.2195-.3454-.5155-.3514-.8258v-3.9346h-2.0138v3.9346c0 .847.336 1.6594.9342 2.2591.5982.5997 1.4099.9376 2.2569.9396h1.7039c.8471-.002 1.6587-.3399 2.2569-.9396.5982-.5997.9342-1.4121.9342-2.2591v-3.9346h-2.0215v3.9346Z"/></svg>