<svg xmlns="http://www.w3.org/2000/svg" fill="none" viewBox="0 0 73 73"><circle cx="36.8418" cy="36.7051" r="36" fill="#EFF5FF"/><path fill="#fff" d="M25.3558 26.3604c-.6201-.708-.7632-1.7056-.3663-2.554.3969-.8484 1.261-1.3922 2.2123-1.3922H44.1625v-4.563c.0002-1.014 1.1515-1.3648 1.4966-1.014l6.4849 6.591c.9217.9913.939 1.5464 0 2.5349l-6.4849 6.5909c-.3333.3389-1.4964 0-1.4966-1.0139V27.192H32.5045L47.415 47.4369c.8764 1.0005.7604 2.5088-.2592 3.3689-.5099.372-.8287.5021-1.4965.507H29.593v4.4012c-.3956 1.1758-1.3933 1.1758-1.8921.6689l-6.485-6.5909c-.4988-.5072-.4988-1.5212 0-2.028l6.485-6.5909c.4988-.5072 1.8921-.5072 1.8921 1.014v4.3547h10.6282L25.3558 26.3604Z"/><path fill="#00A3E0" d="M25.3558 26.3603c-.6201-.7079-.7632-1.7055-.3663-2.5539.3969-.8485 1.261-1.3923 2.2123-1.3923H44.1625v-4.5629c.0002-1.014 1.1515-1.3648 1.4966-1.014l6.4849 6.5909c.9217.9914.939 1.5464 0 2.535l-6.4849 6.5909c-.3333.3389-1.4964 0-1.4966-1.014v-4.348H32.5045l8.8373 12.0131-8.5533-2.754-7.4327-10.0908Z"/><path fill="#0032A0" fill-rule="evenodd" d="M28.593 55.5255v-4.213c0-.5523.4477-1 1-1h16.0624c.2677-.0022.3941-.0292.4802-.0594.0873-.0307.1959-.0864.3997-.2329.5713-.504.6264-1.3551.1275-1.9247-.0186-.0212-.0362-.0432-.053-.0659L31.6993 27.7848c-.2237-.3037-.2574-.7075-.0873-1.0441.1702-.3367.5153-.5489.8925-.5489h11.658c.5523 0 1 .4477 1 1v4.3478c0 .0001 0 0 0 0 .0001.0511.0117.0683.0153.0736.0004.0006.0011.0017.0016.0023l6.2454-6.3475c.3622-.3824.4106-.5405.4164-.5667-.0052-.0242-.0506-.1831-.4202-.5825l-6.2433-6.3452c-.0054.0089-.0151.0297-.0152.0773 0 .0001 0 0 0 0v4.563c0 .5523-.4477 1-1 1-.5522 0-1-.4477-1-1v-4.563c.0002-.9425.5553-1.5955 1.1608-1.9076.2948-.152.6285-.2398.9602-.2385.3136.0012.7501.087 1.0884.4308 0 0-.0001-.0001 0 0l6.485 6.5909c.0066.0067.0131.0136.0195.0205.4766.5126.9609 1.1469.9654 1.9438.0045.8052-.4806 1.4427-.9727 1.9607l-.0122.0127-6.4849 6.5908c-.3412.3468-.7828.4258-1.0871.4259-.3272 0-.6583-.0859-.9524-.2355-.604-.3073-1.1698-.9557-1.17-1.9055v-3.3481H34.483l13.7142 18.6206c1.2141 1.4236 1.0369 3.5483-.3966 4.7575-.018.0151-.0365.0296-.0555.0435-.2857.2084-.585.3997-.9472.5268-.3673.1289-.7336.1693-1.1313.1723H30.593v3.4012c0 .1084-.0176.2161-.0522.3189-.283.8412-.8591 1.4424-1.6296 1.6208-.7279.1685-1.4503-.089-1.9231-.5694l-6.485-6.591c-.4763-.4843-.6613-1.1413-.6613-1.7155 0-.5741.1848-1.231.6613-1.7152m0 0 6.4848-6.5907c.0001-.0001 0 0 0 0 .5273-.536 1.3954-.7381 2.141-.508.4057.1252.7923.3827 1.0686.7939.2728.4059.3955.8971.3955 1.4293v3.3547h9.6282c.5523 0 1 .4478 1 1 0 .5523-.4477 1-1 1H29.593c-.5523 0-1-.4477-1-1v-4.3547c0-.2171-.0464-.2994-.0546-.3124-.0163-.0048-.054-.0091-.1009.002-.0197.0047-.0323.0099-.0387.0129l-6.4701 6.5757c-.0222.0226-.0869.1262-.0869.3125 0 .1862.0645.2899.087.3129.0001 0 0 0 0 0l6.4849 6.5908c.0204.0208.0408.0228.046.0233.0005 0 .0008.0001.001.0001.0047-.0022.0154-.0087.0318-.0251.0215-.0217.0595-.0677.1005-.154m-.1349.1801c0-.0001.0003-.0008.0016-.0011l-.0016.0011Zm-.0442-13.8316c.0001-.0001-.0002.0001 0 0Zm8.684.4273c-.4446.3276-1.0706.2326-1.3982-.2121l-11.1262-15.105c-.8545-1.0024-1.0494-2.4057-.4898-3.6018.5647-1.2071 1.7865-1.9685 3.1181-1.9685h12.5645c.5522 0 1 .4477 1 1s-.4478 1-1 1H27.2018c-.5709 0-1.0774.3262-1.3065.8159-.2278.4869-.1476 1.06.2127 1.4714.0186.0212.0362.0431.0529.0658L37.31 40.9031c.3276.4447.2326 1.0707-.2121 1.3982Z" clip-rule="evenodd"/></svg>