<svg xmlns="http://www.w3.org/2000/svg" fill="none" viewBox="0 0 73 73"><circle cx="36.8418" cy="36.7051" r="36" fill="#EFF5FF"/><path fill="#fff" d="M19.8418 22.7051v29c0 2.7614 2.2386 5 5 5h17.1716c.5304 0 1.0391-.2107 1.4142-.5858l5.9142-5.9142 5.9142-5.9142c.3751-.3751.5858-.8838.5858-1.4142V22.7051c0-1.1046-.8954-2-2-2h-32c-1.1046 0-2 .8954-2 2Z"/><path fill="#00A3E0" d="M41.8418 46.7027v10.0024l14-14h-10c-2.2091 0-4 1.7885-4 3.9976Z"/><path fill="#0032A0" fill-rule="evenodd" d="M49.8418 16.7051c0-.5523-.4477-1-1-1s-1 .4477-1 1v3h-16v2h16v2c0 .5523.4477 1 1 1s1-.4477 1-1v-7Zm-28 5c-.5523 0-1 .4477-1 1v8h34v-8c0-.5523-.4477-1-1-1h-2v-2h2c1.6568 0 3 1.3431 3 3v19.1928c0 .7767-.3013 1.5232-.8405 2.0824L43.6515 56.7875c-.5654.5863-1.3449.9176-2.1595.9176H24.8418c-3.3137 0-6-2.6863-6-6v-29c0-1.6569 1.3431-3 3-3h6v-3c0-.5523.4477-1 1-1s1 .4477 1 1v7c0 .5523-.4477 1-1 1s-1-.4477-1-1v-2h-6Zm33 11h-34v19c0 2.2091 1.7909 4 4 4h16v-9.0024c0-2.7622 2.2393-4.9976 5-4.9976h9v-9Zm-1.3535 11L42.8418 54.7459v-8.0432c0-1.6561 1.3424-2.9976 3-2.9976h7.6465Z" clip-rule="evenodd"/></svg>