<svg xmlns="http://www.w3.org/2000/svg" fill="none" viewBox="0 0 73 73"><circle cx="36.8418" cy="36.7051" r="36" fill="#EFF5FF"/><path fill="#fff" d="M50.6819 30.8758c3.1142-.4857 5.7848 1.8535 6.2046 3.4.4007 1.5464-1.5639 2.0382-3.0904 2.4635l-30.1865 8.1962c-.8205.2126-1.6983-1.1599-2.1371-1.9138l-3.5873-6.2824c-.3244-.5413-.0382-1.2565.5724-1.4112l.6297-.174c.5915-.1546 1.2021-.0193 1.6792.348l2.9957 2.397 9.4834-2.571-6.9047-12.7095 2.3864-1.9428 13.4674 12.1973 8.4872-1.9973Z"/><path fill="#00A3E0" d="m19.1838 35.248-1.4318.4858 5.25 9.2285 7.6363-1.9428-11.4545-7.7715Z"/><path fill="#0032A0" fill-rule="evenodd" d="m30.517 20.5448 11.9292 11.4644 5.5808-1.4077c.5861-.1577 1.6409-.3395 2.8401-.3682 1.1997-.0287 2.6268.0933 3.9005.6088.5507.2228 1.296.5373 1.9012 1.0357.6408.5275 1.1733 1.3039 1.1733 2.3986 0 1.0719-.4783 1.8749-1.2267 2.454-.6913.535-1.6178.8855-2.5848 1.1776l-.0107.0033-.0108.0029-.2502-.9374c.2502.9374.2504.9374.2502.9374l-28.279 7.8163-.0093.0023c-1.5842.4035-2.8345.1917-3.8545-.5836-.9304-.7071-1.5606-1.8157-2.1264-2.8737l-2.6786-4.7754c-.6253-1.0769-.0958-2.5026 1.1076-2.8507l.9573-.3554.0434-.0115c.9501-.2529 1.6813.0503 2.3804.4433l.0195.011 3.475 2.175 5.555-1.6161c.5069-.1474 1.0353.1512 1.1802.667.1449.5159-.1486 1.0536-.6554 1.2011l-6.3636 1.8512-4.1528-2.5992c-.5147-.2874-.7051-.3126-.9176-.2631l-.9509.353-.033.0085.0037.0064 2.6975 4.809.0046.0087c.5914 1.1062 1.0469 1.8366 1.5965 2.2543.4614.3507 1.0875.5494 2.2398.2577l28.2493-7.808c.9323-.2822 1.5668-.5525 1.962-.8584.3397-.2629.4732-.5224.4732-.9075 0-.3625-.1475-.6268-.465-.8882-.3529-.2907-.8439-.5134-1.4058-.7408-.9414-.3809-2.082-.4974-3.1502-.4718-1.063.0254-1.9718.1891-2.4024.3057l-.0079.0021-6.6082 1.6668-12.6981-12.2033-.0056-.0055c-.2602-.2584-.6468-.358-1.0183-.2518-.691.1996-1.034 1.0324-.6681 1.6914.0002.0003.0003.0006.0005.0009l4.9165 8.7845c.2609.4662.1011 1.0594-.357 1.3249-.4581.2656-1.0409.1029-1.3019-.3633l-4.9177-8.7867-.0012-.0022c-.9674-1.7387-.0909-3.9715 1.8096-4.5191l.0014-.0004c.998-.2859 2.0947-.0337 2.8634.7252ZM28.25 52.7331c0-.5365.4274-.9714.9545-.9714h25.7728c.5272 0 .9546.4349.9546.9714s-.4274.9715-.9546.9715H29.2045c-.5271 0-.9545-.4349-.9545-.9715ZM20.6152 52.7331c0-.5365.4274-.9714.9546-.9714h3.8182c.5272 0 .9545.4349.9545.9714 0 .5366-.4273.9715-.9545.9715h-3.8182c-.5272 0-.9546-.4349-.9546-.9715ZM15.8418 52.7331c0-.5365.4274-.9714.9545-.9714h.9546c.5272 0 .9545.4349.9545.9714 0 .5366-.4273.9715-.9545.9715h-.9546c-.5271 0-.9545-.4349-.9545-.9715Z" clip-rule="evenodd"/></svg>