<svg xmlns="http://www.w3.org/2000/svg" fill="none" viewBox="0 0 73 73"><circle cx="36.8418" cy="36.7051" r="36" fill="#EFF5FF"/><path fill="#00A3E0" d="m52.4325 37.7674-8.0139 8.4763c-.8904.9722-2.4415.3038-2.4415-1.0633v-5.4382H24.7142c-1.5798 0-2.8724-1.3671-2.8724-3.0381s1.2926-3.0381 2.8724-3.0381h17.2629v-5.4382c0-1.3671 1.5511-2.0355 2.4415-1.0633l8.0139 8.4763c.5457.5772.5457 1.5494 0 2.1266Z"/><path fill="#0032A0" fill-rule="evenodd" d="M53.1292 38.2927c.9501-.9578.9501-2.5431 0-3.5008l-8.2674-8.334c-1.5668-1.6201-4.2352-.4643-4.2352 1.7454v4.3501H23.8068c-2.1906 0-3.965 1.8003-3.965 3.9889s1.7744 3.9889 3.965 3.9889c.5523 0 1-.4478 1-1 0-.5523-.4477-1-1-1-1.0709 0-1.965-.8898-1.965-1.9889 0-1.0992.8941-1.9889 1.965-1.9889h18.8198v-6.3501c0-.4775.5268-.6367.7992-.3532l.0055.0057 8.278 8.3446c.1766.178.1766.5057 0 .6837l-8.278 8.3447-.0055.0057c-.2724.2834-.7992.1242-.7992-.3532v-6.3501H28.8448c-.5523 0-1 .4477-1 1 0 .5522.4477 1 1 1h11.7818v4.3501c0 2.2096 2.6684 3.3654 4.2352 1.7454l8.2674-8.334Z" clip-rule="evenodd"/></svg>