<svg xmlns="http://www.w3.org/2000/svg" fill="none" viewBox="0 0 73 73"><circle cx="36.8418" cy="36.7051" r="36" fill="#EFF5FF"/><path fill="#fff" fill-rule="evenodd" d="M47.0401 53.1843c.4927-.4927.6742-1.2145.5215-1.9147l-4.2578-17.0957 7.5276-7.5276c1.136-1.1359 1.1005-3.0054-.0795-4.1854-1.18-1.18-3.0495-1.2155-4.1855-.0795l-7.5275 7.5275-17.0957-4.2577c-.6865-.1665-1.422.0288-1.9147.5215-.9581.958-.6893 2.6228.5648 3.3021l12.2866 6.593-7.5275 7.5276-4.4067-.7113c-.308-.0616-.6128.0441-.8318.2631l-.8075.8075c-.4517.4517-.3252 1.2351.2529 1.5668l5.1883 2.9437 2.9436 5.1883c.3318.5781 1.1152.7045 1.5668.2529l.8075-.8075c.219-.219.3248-.5238.2632-.8318l-.7114-4.4067 7.5276-7.5276 6.5931 12.2867c.6793 1.2541 2.344 1.5228 3.3021.5648Z" clip-rule="evenodd"/><path fill="#00A3E0" d="m43.1782 34.8509-5.7548 6.1003 6.9546 12.2409c1.7062.7824 2.3539.4461 3.074-1.3517l-4.2738-16.9895ZM38.282 30.2036l-6.1644 5.7365-12.4328-7.0093c-.799-1.711-.4603-2.358 1.3597-3.0717l17.2375 4.3445Z"/><path fill="#0032A0" fill-rule="evenodd" d="M45.9773 21.7927c1.4475-1.4474 3.8337-1.4035 5.3398.1025 1.506 1.506 1.5499 3.8923.1024 5.3398l-7.2142 7.2142 4.1505 16.6649.0026.0119c.2068.9481-.0344 1.9511-.7302 2.6469-1.3356 1.3356-3.6573.9628-4.6051-.787l-.0016-.0029-4.8058-8.956c-.2166-.4037-.0717-.8937.3237-1.0944.3955-.2008.8916-.0363 1.1083.3675l4.8042 8.9529c.0002.0005.0004.0009.0007.0013.4113.7574 1.4182.9215 1.9984.3414.2873-.2874.4095-.7233.315-1.1719l-3.8952-15.6401L30.488 48.1665l.6439 3.989c.1131.5969-.1007 1.1545-.4782 1.532l-.8075.8075c-.8313.8313-2.2574.5927-2.8596-.4567l-.0163-.0284-1.3314-2.7947c-.1968-.4132-.0276-.8944.3781-1.075.4056-.1805.894.008 1.0908.4211l1.2977 2.7239c.0657.0915.1953.1007.2634.0325l.8075-.8075c.0276-.0276.0417-.0542.0479-.0735.0059-.018.0055-.0305.0036-.0402l-.0031-.0153-.7791-4.8269 21.4966-21.4966c.8245-.8245.7973-2.1772-.0566-3.0311-.8539-.854-2.2067-.8811-3.0312-.0566L25.6579 44.4666l-4.8268-.7791-.0153-.0031c-.0097-.002-.0223-.0023-.0402.0035-.0193.0063-.046.0204-.0736.048l-.8075.8075c-.0679.0679-.059.1971.032.263l2.7058 1.2805c.4137.1957.6035.6837.424 1.0898-.1794.4062-.6602.5768-1.0738.381l-2.7792-1.3152-.0294-.0168c-1.0493-.6022-1.2879-2.0283-.4566-2.8596l.8075-.8075c.3775-.3775.935-.5914 1.532-.4782l3.989.6439 12.3828-12.3828-15.6482-3.8973c-.0007-.0002-.0014-.0003-.0021-.0005-.4139-.0996-.8645.0204-1.1617.3176-.5802.5802-.416 1.5874.3417 1.9986.0003.0002-.0003-.0002 0 0l9.213 4.9437c.4037.2167.5682.7128.3675 1.1082-.2008.3955-.6908.5404-1.0945.3238l-9.215-4.9448-.0029-.0016c-1.7498-.9478-2.1227-3.2695-.787-4.6051.6877-.6878 1.7071-.9583 2.6656-.7259l.0051.0012 16.653 4.1475 7.2142-7.2142Z" clip-rule="evenodd"/></svg>