<svg xmlns="http://www.w3.org/2000/svg" fill="none" viewBox="0 0 73 73"><circle cx="36.8418" cy="36.7051" r="36" fill="#EFF5FF"/><path fill="#fff" d="m20.8418 20.2051 16-3.5 16 3.5v21.5c0 5-8.3814 12.599-16 15-7.5313-2.5154-16-10-16-15v-21.5Z"/><path fill="#0032A0" fill-rule="evenodd" d="M36.6281 15.7282c.1408-.0308.2866-.0308.4274 0l16 3.5c.4591.1004.7863.5069.7863.9769v21.5c0 1.9754-1.0674 4.1195-2.6032 6.1107-.3372.4373-.9652.5184-1.4025.1811-.4373-.3373-.5184-.9652-.1811-1.4025 1.4406-1.868 2.1868-3.5754 2.1868-4.8893V21.01l-15-3.2813-15 3.2813v20.6951c0 .9841.4248 2.2005 1.2865 3.5656.8527 1.3507 2.083 2.7671 3.5659 4.1298 2.8875 2.6534 6.633 5.0123 10.1563 6.2505 2.665-.8887 5.4424-2.438 7.8868-4.293.4399-.3339 1.0672-.2479 1.4011.192.3338.4399.2479 1.0672-.1921 1.4011-2.6816 2.0352-5.7825 3.7555-8.8039 4.7077-.2012.0634-.4173.0616-.6174-.0052-3.9194-1.309-8.0387-3.8901-11.184-6.7804-1.5757-1.448-2.9333-2.9974-3.9039-4.5349-.9615-1.5232-1.5953-3.1173-1.5953-4.6332v-21.5c0-.47.3272-.8765.7863-.9769l16-3.5Z" clip-rule="evenodd"/><path fill="#00A3E0" fill-rule="evenodd" d="M38.4422 27.2051c0-.2762-.2239-.5-.5-.5h-2.2c-.2762 0-.5.2238-.5.5v5.4004c0 .2761-.2239.5-.5.5h-5.4004c-.2761 0-.5.2238-.5.5v2.2c0 .2761.2239.5.5.5h5.4004c.2761 0 .5.2238.5.5v5.3996c0 .2761.2238.5.5.5h2.2c.2761 0 .5-.2239.5-.5v-5.3996c0-.2762.2238-.5.5-.5h5.3996c.2761 0 .5-.2239.5-.5v-2.2c0-.2762-.2239-.5-.5-.5h-5.3996c-.2762 0-.5-.2239-.5-.5v-5.4004Z" clip-rule="evenodd"/><path fill="#0032A0" fill-rule="evenodd" d="M35.7418 24.7051h2.2c1.3807 0 2.5 1.1193 2.5 2.5v3.9h3.9c1.3807 0 2.5 1.1193 2.5 2.5v2.2c0 1.3807-1.1193 2.5-2.5 2.5h-3.9v3.9c0 1.3807-1.1193 2.5-2.5 2.5h-2.2c-1.3807 0-2.5-1.1193-2.5-2.5v-3.9h-3.9c-1.3807 0-2.5-1.1193-2.5-2.5v-2.2c0-1.3807 1.1193-2.5 2.5-2.5h3.9v-3.9c0-1.3807 1.1193-2.5 2.5-2.5Zm2.2 2c.2761 0 .5.2238.5.5v5.4c0 .2761.2239.5.5.5h5.4c.2761 0 .5.2238.5.5v2.2c0 .2761-.2239.5-.5.5h-5.4c-.2761 0-.5.2238-.5.5v5.4c0 .2761-.2239.5-.5.5h-2.2c-.2761 0-.5-.2239-.5-.5v-5.4c0-.2762-.2239-.5-.5-.5h-5.4c-.2761 0-.5-.2239-.5-.5v-2.2c0-.2762.2239-.5.5-.5h5.4c.2761 0 .5-.2239.5-.5v-5.4c0-.2762.2239-.5.5-.5h2.2Z" clip-rule="evenodd"/></svg>