<svg xmlns="http://www.w3.org/2000/svg" fill="none" viewBox="0 0 25 25"><mask id="a" width="21" height="21" x="2" y="2" maskUnits="userSpaceOnUse" style="mask-type:alpha"><path fill="#fff" d="M12.9551 22.5c5.5228 0 10-4.4772 10-10 0-5.52285-4.4772-10-10-10-5.52287 0-10.00002 4.47715-10.00002 10 0 5.5228 4.47715 10 10.00002 10Z"/></mask><g mask="url(#a)"><path stroke="#CCCCCB" stroke-width="2" d="M12.956 23.409c6.0249 0 10.9091-4.8842 10.9091-10.9091 0-6.02491-4.8842-10.90908-10.9091-10.90908-6.02496 0-10.90912 4.88417-10.90912 10.90908 0 6.0249 4.88416 10.9091 10.90912 10.9091Z"/><path fill="#17A72E" stroke="#979797" d="M12.9545 22.9545c5.7739 0 10.4546-4.6807 10.4546-10.4545 0-5.77393-4.6807-10.45459-10.4546-10.45459C7.18066 2.04541 2.5 6.72607 2.5 12.5c0 5.7738 4.68066 10.4545 10.4545 10.4545Z"/><path fill="#FFC200" fill-rule="evenodd" d="m12.8846 5.22705 8.8919 7.31365-8.8919 7.2318-8.75179-7.2727 8.75179-7.27275Z" clip-rule="evenodd"/><path fill="#0B3D91" d="M12.9547 16.136c2.0083 0 3.6364-1.628 3.6364-3.6364 0-2.0083-1.6281-3.63632-3.6364-3.63632S9.31836 10.4913 9.31836 12.4996c0 2.0084 1.62804 3.6364 3.63634 3.6364Z"/></g><path fill="#fff" d="M12.9551 22.5c-5.52287 0-10.00002-4.4772-10.00002-10h-4c0 7.732 6.26801 14 14.00002 14v-4Zm10-10c0 5.5228-4.4772 10-10 10v4c7.732 0 14-6.268 14-14h-4Zm-10-10c5.5228 0 10 4.47715 10 10h4c0-7.73199-6.268-14-14-14v4Zm0-4c-7.73201 0-14.00002 6.26801-14.00002 14h4c0-5.52285 4.47715-10 10.00002-10v-4Z"/></svg>