<svg xmlns="http://www.w3.org/2000/svg" fill="none" viewBox="0 0 25 25"><mask id="a" width="21" height="21" x="2" y="2" maskUnits="userSpaceOnUse" style="mask-type:alpha"><path fill="#fff" d="M12.9551 22.5c5.5228 0 10-4.4772 10-10 0-5.52285-4.4772-10-10-10-5.52287 0-10.00002 4.47715-10.00002 10 0 5.5228 4.47715 10 10.00002 10Z"/></mask><g mask="url(#a)"><path stroke="#CCCCCB" stroke-width="2" d="M12.956 23.409c6.0249 0 10.9091-4.8842 10.9091-10.9091 0-6.02491-4.8842-10.90908-10.9091-10.90908-6.02496 0-10.90912 4.88417-10.90912 10.90908 0 6.0249 4.88416 10.9091 10.90912 10.9091Z"/><path fill="#fff" d="M24.7731.681641H1.13672V24.318H24.7731V.681641Z"/><path fill="#C6151D" d="M24.7731 17.0454H1.13672v1.8182H24.7731v-1.8182ZM24.7731 13.4092H1.13672v1.8182H24.7731v-1.8182ZM24.7741 9.77295H12.0469v1.81815h12.7272V9.77295Z"/><path fill="#0B3D91" d="M12.0456 2.5H-.681641v9.0909H12.0456V2.5Z"/><path fill="#fff" fill-rule="evenodd" d="m10.2278 10.121-.53452.3873.20364-.62817-.53364-.38818.66002-.00091.2045-.62727.2046.62727.66.00091-.5337.38818.2037.62817-.5346-.3873ZM10.2278 4.66645l-.53452.38728.20364-.62819-.53364-.38818.66002-.00091.2045-.62727.2046.62727.66.00091-.5337.38818.2037.62819-.5346-.38728ZM9.31962 7.3935l-.53454.38728.20363-.62819-.53363-.38818.66-.00091.20454-.62727.20455.62727.66003.00091-.53367.38818.20364.62819-.53455-.38728ZM7.50126 10.121l-.53454.3873.20364-.62817-.53364-.38818.66-.00091.20454-.62727.20455.62727.66.00091-.53364.38818.20364.62817-.53455-.3873ZM7.50126 4.66645l-.53454.38728.20364-.62819-.53364-.38818.66-.00091.20454-.62727.20455.62727.66.00091-.53364.38818.20364.62819-.53455-.38728ZM6.59111 7.3935l-.53455.38728.20364-.62819-.53364-.38818.66-.00091.20455-.62727.20454.62727.66.00091-.53363.38818.20363.62819-.53454-.38728ZM4.77275 10.121l-.53455.3873.20364-.62817-.53364-.38818.66-.00091.20455-.62727.20454.62727.66.00091-.53363.38818.20363.62817-.53454-.3873ZM4.77275 4.66645l-.53455.38728.20364-.62819-.53364-.38818.66-.00091.20455-.62727.20454.62727.66.00091-.53363.38818.20363.62819-.53454-.38728ZM3.86455 7.3935 3.33 7.78078l.20364-.62819L3 6.76441l.66-.00091.20455-.62727.20454.62727.66.00091-.53364.38818.20364.62819-.53454-.38728Z" clip-rule="evenodd"/><path fill="#C6151D" d="M24.7741 6.13623H12.0469v1.81818h12.7272V6.13623ZM24.7741 2.5H12.0469v1.81818h12.7272V2.5ZM24.7731 20.6816H1.13672v1.8182H24.7731v-1.8182Z"/></g><path fill="#fff" d="M12.9551 22.5c-5.52287 0-10.00002-4.4772-10.00002-10h-4c0 7.732 6.26801 14 14.00002 14v-4Zm10-10c0 5.5228-4.4772 10-10 10v4c7.732 0 14-6.268 14-14h-4Zm-10-10c5.5228 0 10 4.47715 10 10h4c0-7.73199-6.268-14-14-14v4Zm0-4c-7.73201 0-14.00002 6.26801-14.00002 14h4c0-5.52285 4.47715-10 10.00002-10v-4Z"/></svg>