<svg xmlns="http://www.w3.org/2000/svg" fill="none" viewBox="0 0 25 25"><mask id="a" width="21" height="21" x="2" y="2" maskUnits="userSpaceOnUse" style="mask-type:alpha"><path fill="#fff" d="M12.9551 22.5c5.5228 0 10-4.4772 10-10 0-5.52285-4.4772-10-10-10-5.52287 0-10.00002 4.47715-10.00002 10 0 5.5228 4.47715 10 10.00002 10Z"/></mask><g mask="url(#a)"><path stroke="#CCCCCB" stroke-width="2" d="M12.956 23.409c6.0249 0 10.9091-4.8842 10.9091-10.9091 0-6.02491-4.8842-10.90908-10.9091-10.90908-6.02496 0-10.90912 4.88417-10.90912 10.90908 0 6.0249 4.88416 10.9091 10.90912 10.9091Z"/><path fill="#fff" d="M24.7731.681641H1.13672V24.318H24.7731V.681641Z"/><path fill="#0053A3" fill-rule="evenodd" d="m8.40878 8.64987-1.06909.77545.40727-1.25545-1.06727-.77728 1.32-.00091.40909-1.25545.40909 1.25545 1.32003.00091-1.0673.77728.40727 1.25545-1.06909-.77545Z" clip-rule="evenodd"/><path fill="#C32126" fill-rule="evenodd" d="m17.5006 17.7407-1.0691.7754.4073-1.2554-1.0673-.7773 1.32-.0009.4091-1.2554.4091 1.2554 1.32.0009-1.0673.7773.4073 1.2554-1.0691-.7754Z" clip-rule="evenodd"/><path fill="#C32126" d="M26.5914.681641H12.9551V12.4998h13.6363V.681641Z"/><path fill="#0053A3" d="M12.9547 12.5H-.681641v11.8182H12.9547V12.5Z"/></g><path fill="#fff" d="M12.9551 22.5c-5.52287 0-10.00002-4.4772-10.00002-10h-4c0 7.732 6.26801 14 14.00002 14v-4Zm10-10c0 5.5228-4.4772 10-10 10v4c7.732 0 14-6.268 14-14h-4Zm-10-10c5.5228 0 10 4.47715 10 10h4c0-7.73199-6.268-14-14-14v4Zm0-4c-7.73201 0-14.00002 6.26801-14.00002 14h4c0-5.52285 4.47715-10 10.00002-10v-4Z"/></svg>