<svg xmlns="http://www.w3.org/2000/svg" fill="none" viewBox="0 0 25 25"><mask id="a" width="21" height="21" x="2" y="2" maskUnits="userSpaceOnUse" style="mask-type:alpha"><path fill="#fff" d="M12.9551 22.5c5.5228 0 10-4.4772 10-10 0-5.52285-4.4772-10-10-10-5.52287 0-10.00002 4.47715-10.00002 10 0 5.5228 4.47715 10 10.00002 10Z"/></mask><g mask="url(#a)"><path stroke="#CCCCCB" stroke-width="2" d="M12.956 23.409c6.0249 0 10.9091-4.8842 10.9091-10.9091 0-6.02491-4.8842-10.90908-10.9091-10.90908-6.02496 0-10.90912 4.88417-10.90912 10.90908 0 6.0249 4.88416 10.9091 10.90912 10.9091Z"/><path fill="#fff" d="M24.7731.681641H1.13672V24.318H24.7731V.681641Z"/><path fill="#D72B1F" d="M24.7731 12.5H1.13672v11.8182H24.7731V12.5Z"/><path fill="#0039A6" d="M12.9558.681641H.228516V12.4998H12.9558V.681641Z"/><path fill="#fff" fill-rule="evenodd" d="m8.40986 8.82437-1.33545.96909.50818-1.57-1.33454-.97182 1.65091-.00091.5109-1.56909.51091 1.56909 1.65093.00091-1.33456.97182.50818 1.57-1.33546-.96909ZM4.77275 4.66645l-.53455.38728.20364-.62819-.53364-.38818.66-.00091.20455-.62727.20454.62727.66.00091-.53363.38818.20363.62819-.53454-.38728Z" clip-rule="evenodd"/></g><path fill="#fff" d="M12.9551 22.5c-5.52287 0-10.00002-4.4772-10.00002-10h-4c0 7.732 6.26801 14 14.00002 14v-4Zm10-10c0 5.5228-4.4772 10-10 10v4c7.732 0 14-6.268 14-14h-4Zm-10-10c5.5228 0 10 4.47715 10 10h4c0-7.73199-6.268-14-14-14v4Zm0-4c-7.73201 0-14.00002 6.26801-14.00002 14h4c0-5.52285 4.47715-10 10.00002-10v-4Z"/></svg>