<svg xmlns="http://www.w3.org/2000/svg" fill="none" viewBox="0 0 25 25"><mask id="a" width="21" height="21" x="2" y="2" maskUnits="userSpaceOnUse" style="mask-type:alpha"><path fill="#fff" d="M12.9551 22.5c5.5228 0 10-4.4772 10-10 0-5.52285-4.4772-10-10-10-5.52287 0-10.00002 4.47715-10.00002 10 0 5.5228 4.47715 10 10.00002 10Z"/></mask><g mask="url(#a)"><path stroke="#CCCCCB" stroke-width="2" d="M12.956 23.409c6.0249 0 10.9091-4.8842 10.9091-10.9091 0-6.02491-4.8842-10.90908-10.9091-10.90908-6.02496 0-10.90912 4.88417-10.90912 10.90908 0 6.0249 4.88416 10.9091 10.90912 10.9091Z"/><path fill="#fff" d="M24.7731 21.5908H1.13672v23.6364H24.7731V21.5908Z"/><path fill="#fff" d="M24.7731.681641H1.13672V24.318H24.7731V.681641Z"/><path fill="#FE0002" fill-rule="evenodd" d="m13.0883 16.9317-.1015-1.9467c-.003-.0649.0235-.1276.0722-.1706.0487-.0429.1142-.0615.1782-.0505l1.9377.3406-.2617-.7218c-.0217-.0589-.0036-.1251.0451-.1647l2.1228-1.7189-.4783-.2234c-.0668-.0315-.0997-.1079-.0767-.1782l.4196-1.2903-1.2226.2594c-.0683.0143-.1372-.0216-.1647-.0857l-.2369-.5572-.9542 1.0242c-.0448.0472-.1154.0593-.1734.0295-.0579-.0297-.0893-.0942-.077-.1581l.4602-2.37313-.7376.42634c-.035.02052-.077.02561-.1159.01407-.0389-.01154-.0713-.03868-.0894-.07497l-.7489-1.47079-.749 1.47079c-.0181.03629-.0505.06343-.0894.07497-.0389.01154-.0808.00645-.1158-.01407l-.7377-.42634.4602 2.37313c.0123.0639-.0191.1284-.077.1581-.058.0298-.1286.0177-.1734-.0295l-.9542-1.0242-.2369.5572c-.0275.0641-.0964.1-.1647.0857l-1.2226-.2594.41958 1.2903c.02301.0703-.00987.1467-.0767.1782l-.47823.2234 2.12275 1.7189c.0487.0396.0669.1058.0451.1647l-.2617.7218 1.9378-.3406c.0639-.011.1294.0076.1781.0505.0487.043.0752.1057.0722.1706l-.1015 1.9467h.4061Z" clip-rule="evenodd"/><path fill="#FE0002" d="M7.95543 1.59082H1.5918V22.4999h6.36363V1.59082ZM24.3187 1.59082h-6.3636V22.4999h6.3636V1.59082Z"/></g><path fill="#fff" d="M12.9551 22.5c-5.52287 0-10.00002-4.4772-10.00002-10h-4c0 7.732 6.26801 14 14.00002 14v-4Zm10-10c0 5.5228-4.4772 10-10 10v4c7.732 0 14-6.268 14-14h-4Zm-10-10c5.5228 0 10 4.47715 10 10h4c0-7.73199-6.268-14-14-14v4Zm0-4c-7.73201 0-14.00002 6.26801-14.00002 14h4c0-5.52285 4.47715-10 10.00002-10v-4Z"/></svg>