<svg xmlns="http://www.w3.org/2000/svg" fill="none" viewBox="0 0 25 25"><circle cx="12.9551" cy="12.5" r="9" fill="#fff"/><path fill="#0032A0" d="M18.191 11.8431c-.0365-1.3169-.2256-2.62496-.5615-3.89852.6866-.19207 1.3563-.44422 1.9985-.75547 1.0638 1.33266 1.7011 2.95289 1.8301 4.65399H18.191Zm1.437 5.9659c-.6422-.3102-1.3119-.5634-1.9985-.7554.3359-1.2736.525-2.5816.5615-3.8976h3.2671c-.129 1.7001-.7663 3.3213-1.8301 4.653Zm-.9928 1.0441c-.1674.1497-.3378.2906-.5132.4255l-.1044.0768c-.1773.131-.3595.2561-.5457.3743l-.1103.066c-.1881.1133-.3802.2216-.5762.3201l-.1221.0591c-.1842.0906-.3723.1734-.5614.2492.4609-.655.8362-1.3671 1.1159-2.1177.4984.135.987.3034 1.4617.5043l-.0443.0424Zm-5.0224-2.3964V13.156h3.2662c-.0335 1.2165-.2078 2.425-.5191 3.6021-.9061-.1724-1.8251-.2729-2.7471-.3014Zm0 4.4402v-3.1302c.7801.0275 1.5563.1103 2.3246.2472-.6176 1.5208-1.4578 2.5353-2.3246 2.883Zm0-12.35445c.922-.02954 1.841-.13001 2.7471-.3014.3113 1.17605.4856 2.38555.5191 3.60205h-3.2662V8.54245Zm0-4.44121c.8668.34769 1.707 1.36221 2.3246 2.883-.7683.13691-1.5445.21964-2.3246.24722V4.10124Zm3.0515.72099.1211.06107c.197.0985.3881.20685.5752.32012l.1113.065c.1862.11722.3694.24132.5457.37429l.1044.07683c.1744.13494.3458.27579.5132.42452l.0453.04235c-.4748.20094-.9633.36937-1.4617.50529-.2797-.75153-.654-1.46366-1.116-2.11866.1901.07584.3773.15956.5615.24919Zm-4.3644 2.40923c-.7801-.02758-1.5572-.11031-2.32552-.24722.61762-1.52079 1.45772-2.53531 2.32552-2.883v3.13022Zm0 1.31296v3.29868H9.03275c.03349-1.2165.20783-2.426.51908-3.60205.90617.17139 1.82517.27186 2.74807.3014v.00197Zm0 7.91228c-.9229.0285-1.8419.129-2.74807.3014-.31125-1.1771-.48559-2.3856-.51908-3.6021h3.26715v3.3007Zm0 4.4402c-.8678-.3477-1.7079-1.3622-2.32552-2.883.76832-.1369 1.54542-.2197 2.32552-.2472v3.1302Zm-3.05242-.722-.12115-.0601c-.197-.0975-.38907-.2058-.57621-.3201l-.10933-.066c-.18715-.1172-.36936-.2423-.54764-.3733l-.10441-.0778c-.17434-.1349-.34474-.2758-.51218-.4245l-.04531-.0424c.47475-.2009.96428-.3693 1.46169-.5043.28072.7506.655 1.4627 1.11597 2.1177-.1901-.0758-.37725-.1596-.56143-.2492ZM6.28371 17.809c-1.06278-1.3317-1.70104-2.9529-1.83007-4.653h3.26615c.03645 1.316.22654 2.624.56242 3.8976-.68652.192-1.3563.4452-1.9985.7554Zm0-10.61989c.6422.31125 1.31198.5634 1.9985.75547-.33588 1.27356-.52597 2.58162-.56242 3.89852H4.45364c.12903-1.7011.76729-3.32133 1.83007-4.65399Zm.99285-1.04407c.16646-.14873.33784-.28958.51218-.42452l.10441-.07781c.17828-.131.35951-.25609.54665-.3733l.1113-.06501c.18715-.11425.37922-.2226.57523-.3211l.12213-.05811c.1832-.09062.37133-.17336.56143-.2492-.46195.65501-.83623 1.36714-1.11695 2.11768-.49741-.13494-.98595-.30337-1.46169-.5043l.04531-.04433Zm13.00554-.21275-.0759-.07584c-.1881-.20487-.3831-.40187-.587-.59098l-.1468-.13199c-.2078-.18418-.4255-.35951-.6491-.52498l-.1379-.10146c-.2373-.17236-.4836-.33193-.7367-.48164l-.1044-.06501c-.2729-.15661-.5536-.3014-.8422-.43142l-.0522-.02561c-.3053-.13592-.6185-.25806-.9357-.36246l-.0118-.00394c-.3231-.1054-.6521-.19503-.985-.26595h-.0069c-.3191-.06796-.6432-.11918-.9721-.1566l-.0493-.0069c-.6875-.07486-1.3809-.07486-2.0674 0l-.0493.0069c-.329.03644-.654.08766-.9721.1566h-.0079c-.3329.07092-.6619.16055-.985.26595l-.01182.00394c-.31716.1044-.63037.22654-.93473.36246l-.05319.0266c-.28859.13001-.56931.2748-.84214.43043l-.10343.06501c-.25412.1507-.49937.31026-.73774.48164l-.13691.10146c-.22358.16744-.44126.34276-.65007.52498l-.14578.13199c-.20389.18813-.3999.38512-.58704.59098l-.07683.07584-.00985.0197C2.268 9.67418 2.268 15.324 5.61787 19.0461l.00985.0197.07683.0759c.18714.2049.38315.4018.58704.591l.14578.1319c.20881.1852.42649.3596.65007.525l.13691.1025c.23738.1714.48362.3309.73774.4816l.10343.065c.27283.1557.55355.3004.84116.4305l.05417.0256c.30534.1369.61757.258.93473.3615l.01182.0049c.3231.1064.6521.195.985.2659h.0079c.3181.068.6431.1202.9721.1576l.0493.0069c.6865.0739 1.3799.0739 2.0674 0l.0493-.0069c.3289-.0374.653-.0886.9721-.1576h.0069c.3329-.0709.6619-.1595.985-.2659l.0118-.0049c.3172-.1035.6304-.2246.9347-.3615l.0542-.0256c.2886-.131.5683-.2748.8412-.4305l.1044-.065c.2531-.1507.4984-.3112.7367-.4816l.1379-.1025c.2236-.1674.4413-.3417.6491-.525l.1468-.1319c.2039-.1872.3999-.3852.587-.591l.0759-.0759.0108-.0197c3.3489-3.7221 3.3489-9.37192 0-13.09411l-.0108-.0197Z"/><path fill="#fff" d="M12.9551 22.5c-5.52287 0-10.00002-4.4772-10.00002-10h-4c0 7.732 6.26801 14 14.00002 14v-4Zm10-10c0 5.5228-4.4772 10-10 10v4c7.732 0 14-6.268 14-14h-4Zm-10-10c5.5228 0 10 4.47715 10 10h4c0-7.73199-6.268-14-14-14v4Zm0-4c-7.73201 0-14.00002 6.26801-14.00002 14h4c0-5.52285 4.47715-10 10.00002-10v-4Z"/></svg>