<svg xmlns="http://www.w3.org/2000/svg" fill="none" viewBox="0 0 25 25"><mask id="a" width="21" height="21" x="2" y="2" maskUnits="userSpaceOnUse" style="mask-type:alpha"><path fill="#fff" d="M12.9551 22.5c5.5228 0 10-4.4772 10-10 0-5.52285-4.4772-10-10-10-5.52287 0-10.00002 4.47715-10.00002 10 0 5.5228 4.47715 10 10.00002 10Z"/></mask><g mask="url(#a)"><path stroke="#CCCCCB" stroke-width="2" d="M12.956 23.409c6.0249 0 10.9091-4.8842 10.9091-10.9091 0-6.02491-4.8842-10.90908-10.9091-10.90908-6.02496 0-10.90912 4.88417-10.90912 10.90908 0 6.0249 4.88416 10.9091 10.90912 10.9091Z"/><path fill="#fff" d="M24.7731.681641H1.13672V24.318H24.7731V.681641Z"/><path fill="#FFDA04" d="M12.9558 15.6816c1.5062 0 2.7273-1.221 2.7273-2.7273 0-1.5062-1.2211-2.7272-2.7273-2.7272s-2.7273 1.221-2.7273 2.7272c0 1.5063 1.2211 2.7273 2.7273 2.7273Z"/><path fill="#9CCDDD" d="M24.7731-2.04541H1.13672V9.77277H24.7731V-2.04541ZM24.7731 16.1362H1.13672v8.1819H24.7731v-8.1819Z"/></g><path fill="#fff" d="M12.9551 22.5c-5.52287 0-10.00002-4.4772-10.00002-10h-4c0 7.732 6.26801 14 14.00002 14v-4Zm10-10c0 5.5228-4.4772 10-10 10v4c7.732 0 14-6.268 14-14h-4Zm-10-10c5.5228 0 10 4.47715 10 10h4c0-7.73199-6.268-14-14-14v4Zm0-4c-7.73201 0-14.00002 6.26801-14.00002 14h4c0-5.52285 4.47715-10 10.00002-10v-4Z"/></svg>