<svg xmlns="http://www.w3.org/2000/svg" fill="none" viewBox="0 0 46 46"><g clip-path="url(#a)"><circle cx="22.998" cy="23.4512" r="22.5" fill="#2A7795"/><path fill="#fff" fill-rule="evenodd" d="M25.1954 18.1479c-.3905.3905-.3905 1.0236 0 1.4142l1.4142 1.4142c.3905.3905 1.0237.3905 1.4142 0l3.189-3.189c.1875-.1875.2929-.4419.2929-.7071V14.916c0-.1381-.112-.25-.25-.25h-2.1643c-.2652 0-.5195.1054-.7071.2929l-3.1889 3.189Zm5.0546-1.5478c.4142 0 .75-.3358.75-.75s-.3358-.75-.75-.75-.75.3358-.75.75.3358.75.75.75Zm-12.1054 1.7072c-.7319-.7664-.7319-2.0144 0-2.7808.7319-.7665 1.9236-.7665 2.6555 0 .7319.7664.7319 2.0144 0 2.7808-.7413.7763-1.9236.7763-2.6555 0Zm-1.0581 2.6147v6.6536c0 1.3806 1.0642 2.4951 2.3826 2.4951h3.971c.4368 0 .7942.3743.7942.8317 0 .4575-.3574.8317-.7942.8317h-3.971c-2.192 0-3.9711-1.863-3.9711-4.1585V20.922c0-.4574.3574-.8317.7943-.8317.4368 0 .7942.3743.7942.8317Zm7.7821 5.6467c-.1835-.0953-.4026-.1412-.6529-.1412h-2.5309v-2.7442c0-2.4689-.4527-2.9858-.4527-2.9858-.1509-.1747-.3415-.3161-.548-.4159-.2303-.1164-.7224-.1913-.9925-.1913h-.0238c-.9848 0-1.7869.84-1.7869 1.8713v4.7823c0 1.3806 1.0642 2.4951 2.3826 2.4951l3.8506.0424 1.0285 1.9408c.3181.6002 1.0781.8055 1.6551.447.5246-.3259.7065-1.0027.4161-1.5477l-1.5798-2.9643c-.1663-.3121-.4508-.5149-.7654-.5885Z" clip-rule="evenodd"/></g><defs><clipPath id="a"><path fill="#fff" d="M0 0h45v45H0z" transform="translate(.498047 .951172)"/></clipPath></defs></svg>