<svg xmlns="http://www.w3.org/2000/svg" fill="none" viewBox="0 0 46 46"><g clip-path="url(#a)"><circle cx="22.998" cy="23.4512" r="22.5" fill="#283238"/><path fill="#fff" fill-rule="evenodd" d="M18.8762 18.3497c-.7933-.7762-.7933-2.0401 0-2.8163.7934-.7763 2.085-.7763 2.8783 0 .7934.7762.7934 2.0401 0 2.8163-.8034.7862-2.0849.7862-2.8783 0Zm8.3094 4.9173-2.6876-2.6876.9407-.9407 1.7469 1.747 4.4345-4.4345.9407.9406-5.3752 5.3752Zm-8.9455-2.1982 1.6108 6.4555c.5537 1.8283 1.2763 2.5228 2.7053 2.5228h4.3042c.4735 0 .8609.3791.8609.8424 0 .4632-.3874.8423-.8609.8423h-4.3042c-2.376 0-3.3177-.8423-4.3043-4.2116l-1.7335-6.4514c-.1158-.4632.2806-.7755.7381-.8382.4576-.0627.8795.375.9836.8382Zm10.1124 5.3873c-.1551-.0761-.3496-.1129-.5908-.1129h-3.4118l-.8349-2.7634c-.8087-2.5247-1.0591-3.162-1.0591-3.162-.0142-.0155-.0295-.0335-.0464-.0533-.1764-.2077-.524-.6169-1.6556-.3815-1.2397.2579-1.5595.7892-1.362 1.8532l1.2334 4.8275c.5788 1.7066 1.1535 2.527 2.5825 2.527l4.2839.0441s.0315-.0041.0851-.0146l1.1447 2.0181c.3433.6054 1.1146.8142 1.7165.4648.5944-.3451.7992-1.105.4586-1.702l-1.6734-2.934c-.1929-.3382-.518-.5498-.8707-.611Z" clip-rule="evenodd"/></g><defs><clipPath id="a"><path fill="#fff" d="M0 0h45v45H0z" transform="translate(.498047 .951172)"/></clipPath></defs></svg>