<svg xmlns="http://www.w3.org/2000/svg" fill="none" viewBox="0 0 46 46"><g clip-path="url(#a)"><circle cx="22.998" cy="23.4512" r="22.5" fill="#0D3050"/><path fill="#fff" fill-rule="evenodd" d="M18.1446 18.3068c-.7319-.7664-.7319-2.0143 0-2.7808.7319-.7664 1.9236-.7664 2.6555 0 .7319.7665.7319 2.0144 0 2.7808-.7413.7763-1.9236.7763-2.6555 0Zm-1.0581 9.2683v-6.6536c0-.4574-.3574-.8317-.7942-.8317-.4369 0-.7943.3743-.7943.8317v6.6536c0 2.2955 1.7791 4.1586 3.9711 4.1586h3.971c.4368 0 .7942-.3743.7942-.8317 0-.4575-.3574-.8317-.7942-.8317h-3.971c-1.3184 0-2.3826-1.1145-2.3826-2.4952ZM24.872 26.57c-.1842-.0965-.4045-.143-.6563-.143h-2.5309v-2.7442c0-2.4689-.4527-2.9858-.4527-2.9858-.1509-.1747-.3415-.3161-.548-.4159-.2303-.1164-.7224-.1913-.9925-.1913h-.0238c-.9848 0-1.7869.8401-1.7869 1.8714v4.7822c0 1.3807 1.0642 2.4952 2.3826 2.4952l3.8501.0424 1.029 1.9417c.3181.6003 1.0781.8055 1.6551.447.5246-.3259.7065-1.0027.4161-1.5477l-1.5798-2.9643c-.1657-.311-.4487-.5135-.762-.5877Zm2.3136-3.303-2.6876-2.6876.9407-.9407 1.7469 1.747 4.4345-4.4345.9407.9406-5.3752 5.3752Z" clip-rule="evenodd"/></g><defs><clipPath id="a"><path fill="#fff" d="M0 0h45v45H0z" transform="translate(.498047 .951172)"/></clipPath></defs></svg>