<svg xmlns="http://www.w3.org/2000/svg" fill="none" viewBox="0 0 46 46"><g clip-path="url(#a)"><circle cx="22.998" cy="23.4512" r="22.5" fill="#006CB3"/><path fill="#fff" fill-rule="evenodd" d="M18.1149 18.2685c-.7235-.7577-.7235-1.9914 0-2.7491.7236-.7577 1.9016-.7577 2.6251 0 .7236.7577.7236 1.9914 0 2.7491-.7328.7674-1.9015.7674-2.6251 0Zm-1.0466 9.1626v-6.5776c0-.4522-.3533-.8222-.7851-.8222s-.7852.37-.7852.8222v6.5776c0 2.2693 1.7587 4.111 3.9257 4.111h3.9257c.4318 0 .7851-.37.7851-.8222 0-.4522-.3533-.8222-.7851-.8222h-3.9257c-1.3033 0-2.3554-1.1017-2.3554-2.4666Zm7.6946-.9946c-.1817-.0948-.3989-.1404-.647-.1404h-2.502v-2.7129c0-2.4406-.4475-2.9517-.4475-2.9517-.1492-.1726-.3376-.3124-.5418-.4111-.2276-.1151-.7141-.1891-.9811-.1891H19.62c-.9736 0-1.7666.8305-1.7666 1.85v4.7276c0 1.3649 1.0521 2.4666 2.3554 2.4666l3.8067.0419 1.0171 1.9191c.3144.5934 1.0657.7963 1.6361.4419.5186-.3222.6985-.9912.4113-1.53l-1.5617-2.9304c-.1642-.3081-.4449-.5085-.7554-.5815Zm5.7242-8.3274h.7675c.2303 0 .3838.1579.3838.3947v3.9474c0 .2368-.1535.3947-.3838.3947h-5.3728c-.2302 0-.3838-.1579-.3838-.3947v-3.9474c0-.2368.1536-.3947.3838-.3947h.7676v-1.9737c0-.6711.4989-1.1842 1.1513-1.1842h1.5351c.6524 0 1.1513.5131 1.1513 1.1842v1.9737Zm-2.6873-2.3689c-.2303 0-.3838.1579-.3838.3948v1.9737h2.3026V16.135c0-.2369-.1535-.3948-.3837-.3948h-1.5351Z" clip-rule="evenodd"/></g><defs><clipPath id="a"><path fill="#fff" d="M0 0h45v45H0z" transform="translate(.498047 .951172)"/></clipPath></defs></svg>