<svg xmlns="http://www.w3.org/2000/svg" fill="none" viewBox="0 0 46 46"><g clip-path="url(#a)"><circle cx="22.998" cy="23.4512" r="22.5" fill="#4B5D67"/><path fill="#fff" fill-rule="evenodd" d="M25.1934 18.1479c-.3905.3905-.3905 1.0236 0 1.4142l1.4142 1.4142c.3906.3905 1.0237.3905 1.4143 0l3.1889-3.189c.1875-.1875.2929-.4419.2929-.7071V14.916c0-.1381-.1119-.25-.25-.25h-2.1642c-.2652 0-.5196.1054-.7071.2929l-3.189 3.189Zm5.0546-1.5478c.4143 0 .75-.3358.75-.75s-.3357-.75-.75-.75c-.4142 0-.75.3358-.75.75s.3358.75.75.75Zm-11.3718 1.7501c-.7933-.7763-.7933-2.0401 0-2.8164.7934-.7762 2.085-.7762 2.8783 0 .7934.7763.7934 2.0401 0 2.8164-.8034.7862-2.0849.7862-2.8783 0Zm-.6361 2.7181 1.6108 6.4555c.5537 1.8283 1.2763 2.5228 2.7053 2.5228h4.3042c.4735 0 .8609.3791.8609.8424 0 .4632-.3874.8423-.8609.8423h-4.3042c-2.376 0-3.3177-.8423-4.3043-4.2116l-1.7335-6.4514c-.1158-.4632.2806-.7755.7381-.8382.4576-.0627.8795.375.9836.8382Zm10.1093 5.3867c-.1546-.075-.3481-.1113-.5877-.1113h-3.4118l-.8349-2.7634c-.8087-2.5247-1.0591-3.1621-1.0591-3.1621-.0142-.0154-.0295-.0334-.0464-.0532-.1764-.2077-.524-.617-1.6556-.3816-1.2397.2579-1.5595.7892-1.362 1.8533l1.2334 4.8275c.5788 1.7065 1.1535 2.5269 2.5825 2.5269l4.2839.0441s.0317-.004.0856-.0147l1.1442 2.0173c.3433.6053 1.1146.8142 1.7165.4648.5944-.3451.7992-1.105.4586-1.702l-1.6734-2.934c-.1935-.3392-.5199-.5511-.8738-.6116Z" clip-rule="evenodd"/></g><defs><clipPath id="a"><path fill="#fff" d="M0 0h45v45H0z" transform="translate(.498047 .951172)"/></clipPath></defs></svg>