<svg xmlns="http://www.w3.org/2000/svg" fill="none" viewBox="0 0 25 25"><circle cx="12.0488" cy="12.9512" r="10" fill="#006CB3"/><path fill="#fff" fill-rule="evenodd" d="M14.6536 11.3801h1.0417c.3125 0 .5208.2131.5208.5328v5.3274c0 .3197-.2083.5328-.5208.5328H8.40365c-.3125 0-.52084-.2131-.52084-.5328v-5.3274c0-.3197.20834-.5328.52084-.5328h1.04166V8.7164c0-.90567.67709-1.59824 1.56249-1.59824h2.0833c.8855 0 1.5625.69257 1.5625 1.59824v2.6637Zm-3.6464-3.19651c-.3125 0-.5209.2131-.5209.53275v2.66376h3.125V8.71634c0-.31965-.2083-.53275-.5208-.53275h-2.0833Z" clip-rule="evenodd"/></svg>