<svg xmlns="http://www.w3.org/2000/svg" fill="none" viewBox="0 0 24 25"><path fill="#AAAAAB" d="M21.5242 6.50871c-.7004.30627-1.4539.51293-2.2446.60568.8071-.47566 1.4263-1.22956 1.7184-2.12809-.755.44077-1.5911.76076-2.4815.93342-.7125-.74733-1.7283-1.21464-2.8523-1.21464-2.1582 0-3.908 1.72251-3.908 3.84702 0 .3012.0345.59465.1012.87617-3.24763-.16014-6.12747-1.6915-8.05483-4.0191-.33627.56811-.52895 1.22867-.52895 1.93395 0 1.33453.68982 2.5119 1.73832 3.20198-.64043-.0203-1.2433-.1929-1.76983-.4813-.0006.0161-.0006.0319-.0006.0486 0 1.8636 1.34721 3.4182 3.13522 3.7719-.3281.0876-.67346.1351-1.02973.1351-.25205 0-.49683-.0242-.73556-.0692.49745 1.528 1.9407 2.6407 3.65054 2.6714-1.33752 1.0318-3.02222 1.6471-4.85355 1.6471-.31506 0-.62619-.0185-.93187-.054 1.72954 1.0918 3.78353 1.7285 5.99021 1.7285 7.18833 0 11.11883-5.8618 11.11883-10.94526 0-.1667-.0036-.33311-.0112-.49773.7634-.54246 1.426-1.21971 1.9498-1.9915"/></svg>