<svg xmlns="http://www.w3.org/2000/svg" fill="none" viewBox="0 0 24 25"><path fill="#AAAAAB" d="M20.8966 2.70508H3.10345C2.49414 2.70508 2 3.19922 2 3.80853V21.6016c0 .6093.49414 1.1035 1.10345 1.1035h9.58625v-7.7345h-2.6035V11.943h2.6035V9.71542c0-2.58276 1.5793-3.98965 3.8827-3.98965.7762-.00173 1.5521.03758 2.3242.11724v2.7h-1.5859c-1.2555 0-1.5004.5931-1.5004 1.46899v1.9276h3l-.3896 3.0275h-2.6276v7.738h5.1035c.6096 0 1.1034-.4942 1.1034-1.1035V3.80853c0-.60931-.4938-1.10345-1.1034-1.10345"/></svg>