<svg xmlns="http://www.w3.org/2000/svg" fill="none" viewBox="0 0 24 25"><path fill="#AAAAAB" fill-rule="evenodd" d="M7.87516 3.18809c1.06623-.04865 1.40671-.06016 4.12164-.06016 2.715 0 3.0554.01151 4.1217.06016 1.0641.04853 1.7907.21754 2.4267.46468.6573.25544 1.2148.59726 1.7706 1.15302.5558.55579.8976 1.11329 1.153 1.77063.2472.63591.4162 1.36258.4647 2.42667.0487 1.06631.0602 1.40671.0602 4.12171 0 2.715-.0115 3.0554-.0602 4.1217-.0485 1.064-.2175 1.7907-.4647 2.4266-.2554.6574-.5972 1.2149-1.153 1.7706-.5558.5558-1.1133.8976-1.7706 1.1531-.636.2471-1.3626.4161-2.4267.4647-1.0663.0486-1.4067.0601-4.1217.0601-2.71493 0-3.05541-.0115-4.12164-.0601-1.06409-.0486-1.79076-.2176-2.42667-.4647-.65734-.2555-1.21488-.5973-1.77063-1.1531-.5558-.5557-.89758-1.1133-1.15306-1.7706-.24714-.6359-.41611-1.3626-.46468-2.4266C2.01147 16.1802 2 15.8398 2 13.1248s.01147-3.0554.06012-4.12171c.04857-1.06409.21754-1.79076.46468-2.42667.25548-.65734.59726-1.21484 1.15306-1.77063.55575-.55576 1.11329-.89758 1.77063-1.15302.63591-.24714 1.36258-.41615 2.42667-.46468Zm8.16074 1.79936c-1.0541-.04809-1.3702-.05825-4.0395-.05825-2.66931 0-2.98546.01016-4.03963.05825-.97464.04449-1.504.20734-1.85627.34425-.46658.18135-.79964.39798-1.14944.74782-.3498.3498-.56647.68281-.74782 1.14944-.13686.35226-.29972.88159-.3442 1.85627-.0481 1.05417-.05826 1.37027-.05826 4.03957 0 2.6693.01016 2.9855.05826 4.0396.04448.9747.20734 1.504.3442 1.8563.18135.4666.39802.7996.74782 1.1494.3498.3499.68286.5665 1.14944.7478.35227.1369.88163.2998 1.85631.3442 1.05397.0481 1.37008.0583 4.03959.0583 2.6695 0 2.9856-.0102 4.0395-.0583.9747-.0444 1.504-.2073 1.8563-.3442.4666-.1813.7997-.3979 1.1495-.7478.3498-.3498.5664-.6828.7478-1.1494.1369-.3523.2997-.8816.3442-1.8563.0481-1.0541.0583-1.3703.0583-4.0396s-.0102-2.9854-.0583-4.03957c-.0445-.97468-.2073-1.50401-.3442-1.85627-.1814-.46663-.398-.79964-.7478-1.14948-.3498-.3498-.6829-.56643-1.1495-.74778-.3523-.13691-.8816-.29976-1.8563-.34425ZM11.9995 16.3672c-1.7925 0-3.24561-1.4531-3.24561-3.2456S10.207 9.87601 11.9995 9.87601c1.7925 0 3.2457 1.45309 3.2457 3.24559s-1.4532 3.2456-3.2457 3.2456ZM12 8.12162c-2.76142 0-5.00002 2.23858-5.00002 4.99998 0 2.7615 2.2386 5 5.00002 5 2.7614 0 5-2.2385 5-5 0-2.7614-2.2386-4.99998-5-4.99998Zm5.416.83346c.6904 0 1.25-.55963 1.25-1.25 0-.69038-.5596-1.25-1.25-1.25-.6903 0-1.25.55962-1.25 1.25 0 .69037.5597 1.25 1.25 1.25Z" clip-rule="evenodd"/></svg>